<?xml version="1.0" standalone="no"?>
<!DOCTYPE svg PUBLIC "-//W3C//DTD SVG 1.1//EN" "http://www.w3.org/Graphics/SVG/1.1/DTD/svg11.dtd" >
<svg>
<metadata>
Created by FontForge 20090622 at Fri May 10 07:49:39 2019
 By deploy user
(URW)++, Copyright &#194;&#169; 2001 by (URW)++ Design &#38; Development
</metadata>
<defs>
<font id="RomanaTOT-Bol" horiz-adv-x="500" >
  <font-face 
    font-family="Romana T OT"
    font-weight="700"
    font-stretch="normal"
    units-per-em="1000"
    panose-1="2 0 0 0 0 0 0 0 0 0"
    ascent="800"
    descent="-200"
    x-height="454"
    cap-height="667"
    bbox="-98 -293 1102 885"
    underline-thickness="98"
    underline-position="-45"
    unicode-range="U+0020-U+FB02"
  />
<missing-glyph horiz-adv-x="300" 
 />
    <glyph glyph-name="fi" unicode="fi" horiz-adv-x="589" 
d="M313 416h-83v-349q0 -38 27 -54v-13h-230v13q27 18 27 54v349h-49v38h49v82q0 46 6.5 69t24.5 39q42 40 121 40q53 0 83.5 -17.5t30.5 -47.5q0 -20 -15 -33.5t-37 -13.5q-26 0 -41 12.5t-25 43.5q-7 23 -22 23q-9 0 -15 -8t-6 -20q0 -19 9.5 -32.5t45.5 -48.5
q16 -14 16 -50v-38h83v-38zM329 397v25q66 13 93.5 20.5t85.5 30.5h24v-406q0 -38 27 -54v-13h-230v13q27 16 27 54v286q0 21 -6 30.5t-21 13.5zM437 677q43 0 67.5 -17t24.5 -46t-25 -46t-69 -17t-68 17t-24 48q0 28 25 44.5t69 16.5z" />
    <glyph glyph-name="fl" unicode="fl" horiz-adv-x="577" 
d="M313 416h-83v-349q0 -38 27 -54v-13h-230v13q27 18 27 54v349h-49v38h49v82q0 46 6.5 69t24.5 39q42 40 121 40q53 0 83.5 -17.5t30.5 -47.5q0 -20 -15 -33.5t-37 -13.5q-26 0 -41 12.5t-25 43.5q-7 23 -22 23q-9 0 -15 -8t-6 -20q0 -19 9.5 -32.5t45.5 -48.5
q16 -14 16 -50v-38h83v-38zM324 605v25q66 13 93.5 20.5t85.5 30.5h24v-614q0 -38 27 -54v-13h-230v13q27 16 27 54v494q0 21 -6 30.5t-21 13.5z" />
    <glyph glyph-name=".notdef" horiz-adv-x="300" 
 />
    <glyph glyph-name=".null" horiz-adv-x="0" 
 />
    <glyph glyph-name="nonmarkingreturn" horiz-adv-x="333" 
 />
    <glyph glyph-name="space" unicode=" " horiz-adv-x="300" 
 />
    <glyph glyph-name="exclam" unicode="!" horiz-adv-x="322" 
d="M119 186l-69 365q-5 28 -5 48q0 45 27 65t88 20q62 0 88.5 -20t26.5 -67q0 -18 -4 -46l-70 -365h-82zM161 140q41 0 66.5 -21t25.5 -55q0 -33 -27.5 -55t-68.5 -22q-39 0 -64 21t-25 54q0 34 26.5 56t66.5 22z" />
    <glyph glyph-name="quotedbl" unicode="&#x22;" horiz-adv-x="521" 
d="M168 400h-81l-55 267h192zM433 400h-81l-55 267h192z" />
    <glyph glyph-name="numbersign" unicode="#" horiz-adv-x="571" 
d="M381 226l-68 -226h-80l67 226h-88l-68 -226h-79l68 226h-109l12 72h117l27 84h-107l12 72h116l63 213h79l-63 -213h88l64 213h80l-63 -213h97l-12 -72h-106l-26 -84h97l-12 -72h-106zM321 298l27 84h-89l-26 -84h88z" />
    <glyph glyph-name="dollar" unicode="$" horiz-adv-x="595" 
d="M334 731v-82q44 -5 71.5 -13.5t96.5 -36.5l-24 -125h-25q-9 62 -39 97q-42 51 -106 51q-45 0 -74 -26t-29 -66t31.5 -69t108.5 -60q78 -32 114.5 -52.5t54.5 -43.5q26 -34 26 -91q0 -79 -59 -132q-28 -25 -60 -38t-87 -21v-92h-75v92q-60 7 -103.5 21.5t-101.5 45.5
l27 135l26 -4q1 -41 9 -65t29 -47q50 -56 129 -56q48 0 77 25t29 66q0 42 -34 73t-122 69q-97 42 -125 77q-35 41 -35 104q0 93 72 143q26 18 51.5 26.5t71.5 12.5v82h75z" />
    <glyph glyph-name="percent" unicode="%" horiz-adv-x="749" 
d="M74 0l527 667h73l-526 -667h-74zM194 684q77 0 123.5 -47.5t46.5 -127.5q0 -79 -46 -127.5t-122 -48.5q-82 0 -128.5 48t-46.5 132q0 76 48 123.5t125 47.5zM192 654q-26 0 -35 -29.5t-9 -115.5q0 -85 9.5 -115.5t35.5 -30.5q25 0 34.5 29.5t9.5 107.5q0 90 -9.5 122
t-35.5 32zM558 334q77 0 123.5 -47.5t46.5 -127.5q0 -79 -46 -127.5t-122 -48.5q-82 0 -128.5 48t-46.5 132q0 76 48 123.5t125 47.5zM556 304q-26 0 -35 -29.5t-9 -115.5q0 -85 9.5 -115.5t35.5 -30.5q25 0 34.5 29.5t9.5 107.5q0 90 -9.5 122t-35.5 32z" />
    <glyph glyph-name="ampersand" unicode="&#x26;" horiz-adv-x="702" 
d="M535 178l66 -98q22 -30 42.5 -44.5t50.5 -22.5v-13h-249l-35 49q-49 -37 -91 -51.5t-97 -14.5q-100 0 -151 53q-51 54 -51 135q0 92 65 143q27 22 57 35.5t91 32.5l-19 46q-21 48 -21 94q0 76 55 119t151 43q77 0 125.5 -23.5t48.5 -61.5q0 -25 -19.5 -42t-48.5 -17
q-53 0 -76 54q-15 36 -25.5 47.5t-28.5 11.5q-20 0 -32.5 -14t-12.5 -37q0 -33 31 -92l152 -297q28 44 46 93t18 81q0 37 -41 51v13h144v-13q-23 -10 -34.5 -23.5t-22.5 -43.5q-31 -87 -44.5 -116t-43.5 -77zM244 348q-31 -25 -43 -46.5t-12 -51.5q0 -72 45 -134.5t97 -62.5
q24 0 59 26q-80 121 -146 269z" />
    <glyph glyph-name="quotesingle" unicode="'" horiz-adv-x="285" 
d="M187 400h-88l-56 267h200z" />
    <glyph glyph-name="parenleft" unicode="(" horiz-adv-x="372" 
d="M323 -139v-27q-146 84 -214.5 189.5t-68.5 247.5q0 139 67.5 240t215.5 182v-23q-47 -45 -76 -98q-65 -120 -65 -305q0 -102 23 -194t63 -150q23 -32 55 -62z" />
    <glyph glyph-name="parenright" unicode=")" horiz-adv-x="372" 
d="M49 -166v27q44 41 72 89q32 56 50.5 142t18.5 175q0 210 -83 334q-23 35 -58 69v23q148 -81 215.5 -182t67.5 -240q0 -142 -68.5 -247.5t-214.5 -189.5z" />
    <glyph glyph-name="asterisk" unicode="*" horiz-adv-x="491" 
d="M247 683q25 0 41.5 -14.5t16.5 -36.5q0 -18 -17 -52q-27 -51 -27 -63q0 -13 13 -13q9 0 35 25q35 34 51 45t32 11q22 0 36.5 -17t14.5 -43t-15 -40t-42 -14q-24 0 -67 6q-6 0 -12 0.5t-9 1t-5 0.5q-16 0 -16 -13q0 -7 12.5 -16t50.5 -28q34 -16 45 -28t11 -30
q0 -27 -20.5 -45t-50.5 -18q-22 0 -33 16.5t-19 63.5q-8 45 -12.5 58t-14.5 13t-14.5 -13t-12.5 -58q-7 -46 -18 -63t-34 -17q-30 0 -50.5 18t-20.5 44q0 19 11.5 30.5t44.5 28.5q38 19 50.5 28t12.5 16q0 13 -17 13q-6 0 -25 -3q-50 -6 -67 -6q-26 0 -41 14.5t-15 39.5
q0 26 14.5 43.5t36.5 17.5q16 0 32 -11t50 -45q25 -25 35 -25q13 0 13 13q0 12 -27 63q-17 35 -17 52q0 22 17 36.5t43 14.5z" />
    <glyph glyph-name="plus" unicode="+" 
d="M-1 423h200v205h101v-205h202v-98h-202v-206h-101v206h-200v98z" />
    <glyph glyph-name="comma" unicode="," horiz-adv-x="287" 
d="M62 -160l-16 32q82 63 82 96q0 17 -25 28q-29 15 -39 29t-10 38q0 34 26 55.5t67 21.5q42 0 68.5 -23.5t26.5 -60.5q0 -49 -51.5 -111t-128.5 -105z" />
    <glyph glyph-name="hyphen" unicode="-" horiz-adv-x="241" 
d="M0 219v82h241v-82h-241z" />
    <glyph glyph-name="period" unicode="." horiz-adv-x="287" 
d="M144 140q41 0 66.5 -21t25.5 -55q0 -33 -27.5 -55t-68.5 -22q-39 0 -64 21t-25 54q0 34 26.5 56t66.5 22z" />
    <glyph glyph-name="slash" unicode="/" horiz-adv-x="397" 
d="M113 -140h-96l236 807h95z" />
    <glyph glyph-name="zero" unicode="0" horiz-adv-x="617" 
d="M308 684q109 0 177 -59q52 -45 81 -121t29 -170t-28.5 -170t-81.5 -122q-67 -59 -176 -59q-136 0 -211.5 94t-75.5 262q0 90 29 166.5t81 119.5q68 59 176 59zM309 656q-53 0 -76 -73.5t-23 -243.5q0 -178 22.5 -252.5t76.5 -74.5q53 0 75.5 74.5t22.5 247.5t-22.5 247.5
t-75.5 74.5z" />
    <glyph glyph-name="one" unicode="1" horiz-adv-x="617" 
d="M406 673v-594q0 -49 40 -67v-12h-275v12q41 18 41 67v470q0 46 -41 49v23q103 24 181 52h54z" />
    <glyph glyph-name="two" unicode="2" horiz-adv-x="617" 
d="M498 0h-472v26q46 58 70 85t77 77q70 66 99 99.5t54 75.5q46 78 46 155q0 59 -20.5 97.5t-52.5 38.5q-47 0 -57 -77q-8 -55 -27.5 -76.5t-62.5 -21.5q-40 0 -63.5 18t-23.5 50q0 58 67.5 97.5t168.5 39.5q145 0 214 -66q47 -47 47 -126q0 -75 -53 -131
q-23 -24 -46.5 -39.5t-92.5 -51.5q-50 -26 -85 -52.5t-87 -77.5h168q63 0 98 14t68 52l23 -7z" />
    <glyph glyph-name="three" unicode="3" horiz-adv-x="617" 
d="M201 339v22q52 8 80 19q77 35 77 145q0 75 -32 110q-15 18 -39 18q-28 0 -39 -25q-7 -13 -11 -58q-8 -74 -85 -74q-33 0 -54 17t-21 45q0 52 65.5 89t159.5 37q126 0 192 -52q47 -39 47 -103q0 -126 -198 -167q20 -4 24 -5q59 -11 79.5 -18t46.5 -25q66 -47 66 -124
q0 -94 -77 -150.5t-206 -56.5q-100 0 -165.5 32.5t-65.5 82.5q0 29 22.5 49.5t54.5 20.5q35 0 58.5 -23.5t38.5 -74.5q11 -36 21.5 -46.5t33.5 -10.5q43 0 69.5 46.5t26.5 123.5q0 81 -35.5 118.5t-111.5 37.5h-22z" />
    <glyph glyph-name="four" unicode="4" horiz-adv-x="617" 
d="M583 160h-81v-77q0 -28 9 -43t31 -25v-15h-275v15q39 19 39 68v77h-271v34l296 479h171v-431h81v-82zM117 242h189v307z" />
    <glyph glyph-name="five" unicode="5" horiz-adv-x="617" 
d="M501 689l21 -22q-66 -64 -161 -102t-196 -41l-4 -132q58 75 171 75q105 0 168.5 -61t63.5 -161q0 -116 -79.5 -189t-206.5 -73q-111 0 -181 48q-45 32 -45 74q0 27 21.5 45t53.5 18q64 0 85 -74q12 -40 18 -51q17 -30 49 -30q33 0 54 32q44 66 44 171q0 77 -33 126
t-86 49q-64 0 -99 -67l-48 6l13 343q81 -20 164 -20q124 0 213 36z" />
    <glyph glyph-name="six" unicode="6" horiz-adv-x="617" 
d="M230 422q60 50 130 50q101 0 161 -63t60 -169q0 -66 -27.5 -123t-74.5 -90q-62 -44 -159 -44q-135 0 -210 85t-75 237q0 115 39 206t105 132q68 41 174 41q83 0 137.5 -27t54.5 -69q0 -24 -23 -42.5t-54 -18.5q-32 0 -57 20q-19 16 -41 63q-19 41 -47 41q-80 0 -93 -229z
M316 441q-83 0 -83 -225q0 -203 80 -203q39 0 55 41q26 68 26 180q0 108 -26 169q-17 38 -52 38z" />
    <glyph glyph-name="seven" unicode="7" horiz-adv-x="617" 
d="M354 0h-193q55 347 238 524h-210q-44 0 -62 -11.5t-29 -46.5h-24l15 201h465v-24q-99 -97 -142 -218q-59 -159 -59 -375q0 -28 1 -50z" />
    <glyph glyph-name="eight" unicode="8" horiz-adv-x="617" 
d="M221 335q-165 58 -165 171q0 79 71 128.5t185 49.5q110 0 176.5 -39.5t66.5 -104.5q0 -100 -162 -152q100 -37 147 -85.5t47 -115.5q0 -89 -77.5 -146.5t-197.5 -57.5q-123 0 -209 51q-74 44 -74 124q0 57 45.5 99t146.5 78zM271 305q-4 -2 -9 -5q-77 -37 -77 -134
q0 -68 33.5 -110.5t86.5 -42.5q49 0 83 35t34 85q0 86 -93 141q-14 9 -58 31zM338 412q76 60 76 140q0 45 -28.5 73.5t-72.5 28.5q-42 0 -67.5 -27t-25.5 -71q0 -46 28 -80t90 -64z" />
    <glyph glyph-name="nine" unicode="9" horiz-adv-x="617" 
d="M387 245q-60 -50 -129 -50q-102 0 -162 62.5t-60 169.5q0 66 27.5 123t74.5 90q61 44 159 44q135 0 210 -85t75 -237q0 -115 -39 -206t-104 -132q-70 -41 -174 -41q-83 0 -137.5 27t-54.5 69q0 24 23 42.5t53 18.5q33 0 58 -20q18 -16 40 -63q19 -41 48 -41q79 0 92 229z
M304 654q-39 0 -55 -41q-26 -66 -26 -180q0 -107 26 -169q17 -38 52 -38q83 0 83 225q0 203 -80 203z" />
    <glyph glyph-name="colon" unicode=":" horiz-adv-x="267" 
d="M134 140q41 0 66.5 -21t25.5 -55q0 -33 -27.5 -55t-68.5 -22q-39 0 -64 21t-25 54q0 34 26.5 56t66.5 22zM134 427q41 0 66.5 -21t25.5 -55q0 -33 -27.5 -55t-68.5 -22q-39 0 -64 21t-25 54q0 34 26.5 56t66.5 22z" />
    <glyph glyph-name="semicolon" unicode=";" horiz-adv-x="267" 
d="M52 -160l-16 32q82 63 82 96q0 17 -25 28q-29 15 -39 29t-10 38q0 34 26 55.5t67 21.5q42 0 68.5 -23.5t26.5 -60.5q0 -49 -51.5 -111t-128.5 -105zM140 427q40 0 65.5 -21.5t25.5 -54.5t-27 -55t-68 -22q-39 0 -64 21t-25 54q0 34 26.5 56t66.5 22z" />
    <glyph glyph-name="less" unicode="&#x3c;" 
d="M463 649v-81l-207 -127l207 -143v-217l-427 296v10z" />
    <glyph glyph-name="equal" unicode="=" 
d="M-2 500h503v-94h-503v94zM-2 342h503v-95h-503v95z" />
    <glyph glyph-name="greater" unicode="&#x3e;" 
d="M36 81v82l207 126l-207 144v216l427 -296v-10z" />
    <glyph glyph-name="question" unicode="?" horiz-adv-x="553" 
d="M228 183h-63l-23 159q190 1 190 169q0 56 -22 94.5t-55 38.5t-41 -25q-3 -8 -4 -49q-2 -33 -27 -53.5t-65 -20.5q-38 0 -60.5 18t-22.5 49q0 53 64 87t165 34q133 0 200 -68q53 -55 53 -136q0 -112 -90 -174q-36 -25 -76 -36.5t-112 -16.5zM198 140q40 0 65.5 -21.5
t25.5 -54.5t-27 -55t-68 -22q-39 0 -64 21t-25 54q0 34 26.5 56t66.5 22z" />
    <glyph glyph-name="at" unicode="@" horiz-adv-x="794" 
d="M657 184l68 2q-37 -86 -123.5 -140.5t-187.5 -54.5q-142 0 -243.5 101.5t-101.5 243.5t98.5 240.5t239.5 98.5q129 0 222 -84.5t93 -202.5q0 -115 -88 -190q-67 -57 -133 -57q-55 0 -81 36l-4 -2l-13 -8.5l-16 -10.5q-29 -19 -70 -19q-53 0 -90 40.5t-37 100.5
q0 79 53 155q64 93 153 93q63 0 98 -43l11 27h32q36 0 67 2l-87 -261q-7 -21 -8 -23q-4 -12 -4 -17q0 -8 6.5 -13.5t16.5 -5.5q15 0 41.5 18t47.5 43q50 59 50 131q0 96 -78 165.5t-185 69.5q-96 0 -173 -59q-106 -81 -106 -220q0 -121 85 -206t206 -85q73 0 141.5 38.5
t99.5 96.5zM413 254l52 154q5 17 5 23q0 20 -13 34.5t-31 14.5q-55 0 -96 -89q-43 -91 -43 -160q0 -23 12 -36.5t32 -13.5q26 0 48.5 19.5t33.5 53.5z" />
    <glyph glyph-name="A" unicode="A" horiz-adv-x="605" 
d="M123 212l-42 -132q-4 -11 -4 -20q0 -32 62 -47v-13h-183v13q31 9 47.5 23.5t28.5 43.5l193 593h153l191 -593q17 -52 56 -67v-13h-277v13q31 12 31 40q0 10 -5 27l-42 132h-209zM141 257h177l-90 278z" />
    <glyph glyph-name="B" unicode="B" horiz-adv-x="671" 
d="M33 667h99q20 0 108 6q54 2 77 2q302 0 302 -159q0 -71 -68 -110q-42 -22 -128 -41q88 -13 137 -40q91 -51 91 -148q0 -60 -37 -102q-34 -41 -85.5 -58t-140.5 -17h-355v15q40 19 40 66v505q0 48 -40 66v15zM268 379h39q137 0 137 133q0 61 -31.5 97.5t-84.5 36.5
q-32 0 -46 -13.5t-14 -43.5v-210zM268 341v-258q0 -29 14.5 -42t47.5 -13t55 11q32 17 52 58t20 91q0 74 -38.5 113.5t-109.5 39.5h-41z" />
    <glyph glyph-name="C" unicode="C" horiz-adv-x="593" 
d="M575 126l24 -18q-63 -67 -122.5 -96t-131.5 -29q-74 0 -142 34t-113 95q-66 88 -66 214q0 158 95.5 258t247.5 100q77 0 199 -44l-30 -141h-25q-13 64 -49 102q-46 49 -102 49q-68 0 -111.5 -71.5t-43.5 -183.5q0 -94 34 -185q60 -154 186 -154q41 0 75 16t75 54z" />
    <glyph glyph-name="D" unicode="D" horiz-adv-x="738" 
d="M73 81v505q0 48 -40 66v15h97q35 0 86 4q72 5 116 5q175 0 279 -97t104 -259q0 -151 -87.5 -235.5t-243.5 -84.5h-351v15q40 19 40 66zM259 584v-503q0 -51 75 -51q90 0 137 76t47 222q0 182 -76 266q-21 23 -54 37.5t-65 14.5q-64 0 -64 -62z" />
    <glyph glyph-name="E" unicode="E" horiz-adv-x="595" 
d="M537 667l11 -127h-25q-14 33 -32 53q-44 47 -121 47h-36q-35 0 -50.5 -13.5t-15.5 -44.5v-196h70q49 0 74 17t30 55h23v-179h-23q-1 40 -25.5 57.5t-78.5 17.5h-70v-263q0 -41 18 -51q21 -12 72 -12h34q81 0 129 49q24 24 41 73l24 -10l-38 -140h-515v15q40 19 40 66v505
q0 47 -40 66v15h504z" />
    <glyph glyph-name="F" unicode="F" horiz-adv-x="553" 
d="M465 282h-24q-2 40 -24.5 56.5t-75.5 16.5h-72v-271q0 -32 11.5 -46.5t43.5 -22.5v-15h-291v15q40 19 40 66v505q0 48 -40 66v15h501l13 -127h-24q-13 45 -55 72.5t-99 27.5h-34q-36 0 -51 -13.5t-15 -45.5v-193h71q94 0 101 75h24v-181z" />
    <glyph glyph-name="G" unicode="G" horiz-adv-x="759" 
d="M733 70v-18q-118 -40 -186 -54.5t-144 -14.5q-169 0 -274 93.5t-105 244.5q0 153 112.5 258t276.5 105q91 0 259 -41l-30 -143h-27q-17 45 -32 67.5t-39 40.5q-59 45 -127 45q-79 0 -131 -66q-30 -36 -48 -110t-18 -160q0 -148 46.5 -225.5t135.5 -77.5q47 0 72.5 23.5
t25.5 67.5v196q0 47 -40 66v15h271v-15q-40 -19 -40 -66v-181q0 -40 42 -50z" />
    <glyph glyph-name="H" unicode="H" horiz-adv-x="739" 
d="M268 334v-253q0 -47 40 -66v-15h-275v15q40 19 40 66v505q0 48 -40 66v15h275v-15q-40 -18 -40 -66v-205h203v205q0 47 -40 66v15h275v-15q-40 -18 -40 -66v-505q0 -47 40 -66v-15h-275v15q40 19 40 66v253h-203z" />
    <glyph glyph-name="I" unicode="I" horiz-adv-x="353" 
d="M275 586v-505q0 -47 40 -66v-15h-276v15q40 19 40 66v505q0 48 -40 66v15h276v-15q-40 -18 -40 -66z" />
    <glyph glyph-name="J" unicode="J" horiz-adv-x="340" 
d="M268 586v-625q0 -90 -57 -142t-157 -52q-68 0 -106 21.5t-38 58.5q0 23 17.5 40.5t41.5 17.5q28 0 43 -20q10 -11 12.5 -20t4.5 -40q1 -11 7.5 -18.5t14.5 -7.5q22 0 22 41v746q0 48 -40 66v15h275v-15q-40 -18 -40 -66z" />
    <glyph glyph-name="K" unicode="K" horiz-adv-x="688" 
d="M416 436l228 -357q31 -49 67 -67v-12h-297v12q34 12 34 34q0 14 -12 33l-131 223l-35 -45v-176q0 -47 40 -66v-15h-277v15q40 19 40 66v505q0 48 -40 66v15h277v-15q-40 -19 -40 -66v-256l209 257q15 17 15 33q0 12 -10 19t-37 15v13h183v-13q-50 -18 -91 -67z" />
    <glyph glyph-name="L" unicode="L" horiz-adv-x="542" 
d="M529 150l26 -10l-33 -140h-490v15q40 19 40 66v505q0 48 -40 66v15h277v-15q-40 -18 -40 -66v-496q0 -36 16.5 -49.5t60.5 -13.5h22q66 0 115 47q23 23 46 76z" />
    <glyph glyph-name="M" unicode="M" horiz-adv-x="840" 
d="M386 0h-66l-159 528l-62 -444q-1 -5 -1 -13q0 -26 12 -37.5t51 -22.5v-11h-178v11q32 9 47.5 24.5t20.5 42.5l73 508l1 10q3 41 -52 57v14h235l113 -369l103 369h230v-14q-26 -10 -36.5 -22.5t-9.5 -32.5l1 -12l72 -508q8 -50 51 -67v-11h-274v11q37 16 37 55q0 8 -1 12
l-59 450z" />
    <glyph glyph-name="N" unicode="N" horiz-adv-x="721" 
d="M639 0h-178l-332 513v-429q0 -32 12 -46.5t45 -22.5v-15h-161v15q33 8 45 22.5t12 46.5v499q0 32 -12 46.5t-45 22.5v15h233l333 -511v427q0 32 -12 46.5t-45 22.5v15h162v-15q-33 -8 -45 -22.5t-12 -46.5v-583z" />
    <glyph glyph-name="O" unicode="O" horiz-adv-x="756" 
d="M378 684q79 0 150.5 -31.5t120.5 -87.5q83 -94 83 -232q0 -151 -101 -250.5t-254 -99.5q-119 0 -215 68q-67 46 -102.5 121t-35.5 169q0 145 102.5 244t251.5 99zM375 654q-68 0 -111 -87.5t-43 -226.5q0 -155 42 -241t118 -86q71 0 112.5 86.5t41.5 232.5q0 150 -43 236
t-117 86z" />
    <glyph glyph-name="P" unicode="P" horiz-adv-x="642" 
d="M267 297v-213q0 -32 11.5 -46.5t43.5 -22.5v-15h-289v15q22 10 31 25t9 41v505q0 26 -9 41t-31 25v15h102l211 8q98 0 159.5 -20t102.5 -65q38 -40 38 -104q0 -190 -320 -190zM267 326h26q87 0 124.5 34.5t37.5 113.5q0 77 -37 124t-98 47q-28 0 -40.5 -16t-12.5 -51
v-252z" />
    <glyph glyph-name="Q" unicode="Q" horiz-adv-x="756" 
d="M714 -48l22 -20q-42 -26 -71.5 -36t-65.5 -10q-110 0 -171 101q-33 -4 -53 -4q-75 0 -147.5 32t-120.5 86q-83 94 -83 229q0 152 101 253t253 101q151 0 252.5 -100t101.5 -248q0 -83 -34 -157.5t-94 -122.5q-23 -18 -60 -37q16 -18 19 -20q31 -36 53.5 -49t50.5 -13
q22 0 47 15zM306 104l-12 29q34 14 59 14q61 0 127 -65q31 49 43.5 106t12.5 146q0 147 -42.5 233.5t-115.5 86.5q-41 0 -70 -27q-87 -81 -87 -295q0 -171 52 -251q44 -68 107 -68q14 0 31 6q-48 90 -82 90q-8 0 -23 -5z" />
    <glyph glyph-name="R" unicode="R" horiz-adv-x="678" 
d="M681 -47v-24q-134 34 -234 125q-55 53 -81.5 102.5t-54.5 151.5q-9 -1 -18 -1q-12 0 -24 2v-228q0 -47 40 -66v-15h-276v15q40 19 40 66v505q0 47 -40 66v15h81q35 0 94 4q85 5 148 5q144 0 218.5 -46.5t74.5 -137.5q0 -77 -56 -125q-30 -26 -101 -49q41 -146 93 -246
t96 -119zM269 575v-232q28 -2 38 -2q71 0 109 38t38 109q0 70 -42 116q-38 41 -82 41q-61 0 -61 -70z" />
    <glyph glyph-name="S" unicode="S" horiz-adv-x="575" 
d="M489 486h-28q-8 67 -40 107q-48 58 -121 58q-50 0 -82 -28.5t-32 -72.5q0 -49 36 -80.5t136 -71.5q120 -48 160 -88t40 -113q0 -94 -73 -154t-187 -60q-130 0 -280 77l31 150l29 -4v-10q0 -64 33 -109q23 -31 65 -50t88 -19q51 0 83.5 28.5t32.5 73.5t-36.5 79.5
t-121.5 71.5q-97 41 -131 70q-62 53 -62 142q0 93 67.5 147t183.5 54q58 0 103 -11t133 -47z" />
    <glyph glyph-name="T" unicode="T" horiz-adv-x="649" 
d="M664 520l-28 -6q-62 108 -153 108q-31 0 -45 -14.5t-14 -46.5v-480q0 -47 40 -66v-15h-275v15q40 19 40 66v486q0 55 -60 55q-101 0 -158 -108l-26 6l37 147h605z" />
    <glyph glyph-name="U" unicode="U" horiz-adv-x="700" 
d="M264 586v-389q0 -82 18 -117q35 -62 132 -62q86 0 132 51t46 145v369q0 32 -12 46.5t-45 22.5v15h161v-15q-33 -8 -45 -22.5t-12 -46.5v-354q0 -119 -51 -176q-63 -70 -196 -70q-144 0 -236 50q-88 50 -88 172v381q0 48 -40 66v15h276v-15q-40 -18 -40 -66z" />
    <glyph glyph-name="V" unicode="V" horiz-adv-x="610" 
d="M376 0h-152l-195 587q-17 49 -55 67v13h274v-13q-30 -14 -30 -39q0 -11 6 -28l150 -458l144 458q3 9 3 19q0 19 -12.5 29t-47.5 19v13h178v-13q-55 -17 -72 -67z" />
    <glyph glyph-name="W" unicode="W" horiz-adv-x="928" 
d="M709 0h-132l-100 333l-101 -333h-130l-218 587q-21 53 -54 66v14h282v-14q-30 -14 -30 -38q0 -15 6 -28l150 -418l70 242l-52 176q-16 52 -52 66v14h275v-14q-30 -15 -30 -40q0 -8 4 -26l119 -415l129 415q3 11 3 19q0 19 -10 28t-39 19v14h159v-14q-45 -18 -62 -66z" />
    <glyph glyph-name="X" unicode="X" horiz-adv-x="654" 
d="M397 398l210 -317q35 -50 71 -66v-15h-311v15q20 6 27.5 13t7.5 20q0 14 -13 33l-119 179l-123 -179q-14 -19 -14 -36q0 -21 31 -30v-15h-162v15q53 16 88 66l153 221l-190 285q-34 52 -63 67v13h308v-13q-19 -6 -27 -13.5t-8 -20.5q0 -14 12 -33l95 -147l97 147
q12 17 12 31q0 22 -43 36v13h162v-13q-39 -17 -73 -67z" />
    <glyph glyph-name="Y" unicode="Y" horiz-adv-x="607" 
d="M404 273v-192q0 -47 40 -66v-15h-275v15q40 19 40 66v192l-170 314q-29 53 -65 66v14h308v-14q-39 -12 -39 -36q0 -16 8 -30l136 -252l135 252q8 14 8 30q0 14 -9 21.5t-32 14.5v14h148v-14q-38 -17 -64 -66z" />
    <glyph glyph-name="Z" unicode="Z" horiz-adv-x="599" 
d="M553 0h-547v46l344 575h-61q-145 0 -210 -108l-27 5l38 149h497l-369 -619h123q80 0 128 23.5t91 84.5l24 -10z" />
    <glyph glyph-name="bracketleft" unicode="[" 
d="M140 -182v842h255v-26h-2q-47 0 -63 -6t-19.5 -17.5t-3.5 -55.5v-632q0 -44 3.5 -55.5t19.5 -16.5q19 -7 63 -7h2v-26h-255z" />
    <glyph glyph-name="backslash" unicode="\" horiz-adv-x="397" 
d="M284 -140l-235 807h94l237 -807h-96z" />
    <glyph glyph-name="bracketright" unicode="]" 
d="M360 660v-842h-255v26h2q44 0 63 7q16 5 19.5 16.5t3.5 55.5v632q0 44 -3.5 55.5t-19.5 17.5q-17 6 -63 6h-2v26h255z" />
    <glyph glyph-name="asciicircum" unicode="^" 
d="M535 273h-82l-127 207l-143 -207h-217l296 427h11z" />
    <glyph glyph-name="underscore" unicode="_" 
d="M-2 -93h503v-98h-503v98z" />
    <glyph glyph-name="grave" unicode="`" 
d="M256 668l42 -145l-202 145h160z" />
    <glyph glyph-name="a" unicode="a" horiz-adv-x="507" 
d="M485 46l19 -20q-55 -36 -110 -36q-92 0 -113 69q-50 -42 -79 -55.5t-70 -13.5q-56 0 -92 29.5t-36 75.5q0 68 95 121q58 30 182 77v106q0 40 -32 40q-17 0 -26.5 -10.5t-14.5 -35.5q-17 -79 -80 -79q-29 0 -49 16.5t-20 40.5q0 44 59.5 71.5t154.5 27.5q183 0 183 -117
v-296q0 -20 13 -20q7 0 16 9zM281 91v166q-54 -23 -74 -44q-30 -32 -30 -80q0 -29 13 -47.5t35 -18.5q23 0 56 24z" />
    <glyph glyph-name="b" unicode="b" horiz-adv-x="539" 
d="M13 17l-12 20q31 25 39.5 48.5t8.5 86.5v389q0 21 -6 30.5t-21 13.5v25q65 12 92 20t87 31h23v-271q69 60 134 60q70 0 116 -64.5t46 -160.5q0 -120 -64 -187.5t-179 -67.5q-60 0 -119 21q-66 22 -83 22q-19 0 -62 -16zM224 377v-293q0 -60 45 -60q36 0 55.5 51t19.5 144
q0 86 -19.5 133t-55.5 47q-19 0 -45 -22z" />
    <glyph glyph-name="c" unicode="c" horiz-adv-x="431" 
d="M405 120l22 -13q-38 -55 -74 -78q-61 -39 -129 -39q-86 0 -145.5 66t-59.5 163q0 107 64.5 179t161.5 72q67 0 114.5 -32.5t47.5 -78.5q0 -25 -18 -41t-46 -16q-37 0 -54 29q-9 18 -13 79q-4 28 -24 28q-27 0 -46 -48.5t-19 -118.5q0 -87 35.5 -139t94.5 -52q48 0 88 40z
" />
    <glyph glyph-name="d" unicode="d" horiz-adv-x="546" 
d="M318 0v52q-59 -62 -127 -62q-38 0 -73 18t-56 48q-43 59 -43 162q0 114 53 183t140 69q32 0 54 -7.5t52 -29.5v128q0 21 -6 30.5t-21 13.5v25q65 12 92 20t87 31h24v-614q0 -36 27 -54v-13h-203zM318 88v260q0 76 -51 76q-15 0 -26 -9q-43 -40 -43 -183q0 -169 73 -169
q18 0 47 25z" />
    <glyph glyph-name="e" unicode="e" horiz-adv-x="459" 
d="M424 121l20 -13q-59 -66 -107 -92.5t-108 -26.5q-93 0 -151.5 67.5t-58.5 175.5q0 116 74 181q63 57 145 57q53 0 100.5 -27t72.5 -71q26 -46 26 -122v-18h-242q7 -62 26 -90q17 -25 47 -39.5t64 -14.5q38 0 92 33zM191 271h63q27 0 36 12q12 17 12 57q0 47 -13.5 73
t-38.5 26q-32 0 -46 -40t-13 -128z" />
    <glyph glyph-name="f" unicode="f" horiz-adv-x="300" 
d="M313 416h-83v-349q0 -38 27 -54v-13h-230v13q27 18 27 54v349h-49v38h49v82q0 46 6.5 69t24.5 39q42 40 121 40q53 0 83.5 -17.5t30.5 -47.5q0 -20 -15 -33.5t-37 -13.5q-26 0 -41 12.5t-25 43.5q-7 23 -22 23q-9 0 -15 -8t-6 -20q0 -19 9.5 -32.5t45.5 -48.5
q16 -14 16 -50v-38h83v-38z" />
    <glyph glyph-name="g" unicode="g" horiz-adv-x="482" 
d="M397 410q47 60 94 60q19 0 31 -13t12 -33q0 -21 -11.5 -34t-30.5 -13q-15 0 -33 10q-18 11 -24 11q-7 0 -18 -9q22 -40 22 -77q0 -71 -59 -117t-150 -46q-21 0 -38 2q-30 -14 -30 -33q0 -17 23 -24q12 -4 187 -32q127 -21 127 -122q0 -78 -74 -125.5t-195 -47.5
q-101 0 -166.5 31t-65.5 78q0 66 123 106q-41 11 -66 31.5t-25 45.5q0 27 29.5 50t94.5 47q-50 13 -81 38q-57 45 -57 115t61 115.5t155 45.5q52 0 88.5 -13.5t76.5 -46.5zM230 439q-27 0 -43 -35t-16 -96q0 -127 58 -127q57 0 57 135q0 123 -56 123zM166 -32
q-35 -22 -49 -39.5t-14 -39.5q0 -38 38 -62.5t97 -24.5q55 0 86.5 21.5t31.5 58.5q0 31 -20.5 45.5t-72.5 21.5q-54 8 -97 19z" />
    <glyph glyph-name="h" unicode="h" horiz-adv-x="546" 
d="M227 355v-288q0 -38 27 -54v-13h-230v13q27 18 27 54v494q0 21 -6 30.5t-21 13.5v25q65 13 92.5 20.5t86.5 30.5h24v-289q105 78 178 78q44 0 70 -26q20 -21 20 -68v-309q0 -38 27 -54v-13h-228v13q27 18 27 54v272q0 47 -32 47q-24 0 -62 -31z" />
    <glyph glyph-name="i" unicode="i" horiz-adv-x="289" 
d="M28 397v25q66 13 93.5 20.5t85.5 30.5h24v-406q0 -38 27 -54v-13h-230v13q27 16 27 54v286q0 21 -6 30.5t-21 13.5zM136 677q43 0 67.5 -17t24.5 -46t-25 -46t-69 -17t-68 17t-24 48q0 28 25 44.5t69 16.5z" />
    <glyph glyph-name="j" unicode="j" horiz-adv-x="278" 
d="M227 473v-525q0 -65 -6 -92.5t-24 -46.5q-39 -42 -137 -42q-62 0 -95.5 16.5t-33.5 46.5q0 22 16 36t39 14q25 0 38.5 -12t28.5 -47q10 -23 23 -23q19 0 19 23q0 15 -28 67q-16 31 -16 73v392q0 21 -6 30.5t-21 13.5v25q65 13 92.5 20.5t86.5 30.5h24zM135 677
q43 0 67.5 -17t24.5 -46t-25 -46t-69 -17t-68 17t-24 48q0 28 25 44.5t69 16.5z" />
    <glyph glyph-name="k" unicode="k" horiz-adv-x="535" 
d="M368 332l144 -264q20 -36 47 -53v-15h-255v15q21 12 21 28q0 9 -7 25l-71 143l-20 -20v-124q0 -38 27 -54v-13h-230v13q27 18 27 54v494q0 21 -6 30.5t-21 13.5v25q65 13 92.5 20.5t86.5 30.5h24v-440l139 147q10 10 10 20q0 11 -11.5 18t-39.5 15v13h184v-13
q-49 -16 -86 -53z" />
    <glyph glyph-name="l" unicode="l" horiz-adv-x="277" 
d="M24 605v25q65 13 92.5 20.5t85.5 30.5h24v-614q0 -38 27 -54v-13h-230v13q27 16 27 54v494q0 21 -5.5 30.5t-20.5 13.5z" />
    <glyph glyph-name="m" unicode="m" horiz-adv-x="794" 
d="M484 402l36 21q82 47 131 47q39 0 64 -19q28 -21 28 -74v-310q0 -38 27 -54v-13h-228v13q27 16 27 54v268q0 50 -33 50q-10 0 -52 -18v-300q0 -38 27 -54v-13h-227v13q27 16 27 54v270q0 46 -29 46q-14 0 -56 -20v-296q0 -36 27 -54v-13h-228v13q27 18 27 54v287
q0 37 -27 44v24q65 12 92 20t87 31h22v-78q80 52 105 63.5t60 11.5q39 0 60 -15.5t33 -52.5z" />
    <glyph glyph-name="n" unicode="n" horiz-adv-x="547" 
d="M227 473v-82q56 39 76 50q50 29 97 29q95 0 95 -90v-313q0 -36 27 -54v-13h-228v13q27 16 27 54v272q0 26 -7 37t-23 11q-25 0 -64 -28v-292q0 -38 27 -54v-13h-230v13q27 16 27 54v287q0 36 -26 43v25q65 13 92.5 20.5t85.5 30.5h24z" />
    <glyph glyph-name="o" unicode="o" horiz-adv-x="541" 
d="M270 470q84 0 151 -42q100 -62 100 -198q0 -139 -100 -199q-69 -41 -151 -41t-151 41q-100 59 -100 202q0 63 26.5 114.5t73.5 80.5q67 42 151 42zM270 440q-75 0 -75 -210q0 -211 75 -211t75 207q0 214 -75 214z" />
    <glyph glyph-name="p" unicode="p" horiz-adv-x="544" 
d="M225 27v-173q0 -38 27 -54v-13h-230v13q27 16 27 54v499q0 21 -6 30.5t-21 13.5v25q65 13 92.5 20.5t86.5 30.5h24v-64q39 35 67.5 48t64.5 13q75 0 121 -63t46 -166q0 -112 -54.5 -182t-141.5 -70q-50 0 -103 38zM225 373v-266q0 -31 14 -50t37 -19q34 0 52 49t18 138
q0 81 -19 126t-53 45q-18 0 -49 -23z" />
    <glyph glyph-name="q" unicode="q" horiz-adv-x="533" 
d="M490 473v-619q0 -36 27 -54v-13h-230v13q27 16 27 54v192q-71 -56 -134 -56q-73 0 -117.5 62t-44.5 165q0 119 64.5 186t179.5 67q90 0 155 -39l21 42h52zM314 75v299q0 65 -46 65q-20 0 -32 -14q-19 -22 -31.5 -76t-12.5 -117q0 -85 19.5 -131t55.5 -46q19 0 47 20z" />
    <glyph glyph-name="r" unicode="r" horiz-adv-x="380" 
d="M228 358v-291q0 -36 27 -54v-13h-230v13q27 16 27 54v286q0 21 -6 30.5t-21 13.5v25q65 13 92.5 20.5t86.5 30.5h24v-77q46 74 105 74q29 0 48.5 -17.5t19.5 -44.5t-18.5 -45.5t-45.5 -18.5q-14 0 -22 3.5t-29 20.5q-13 10 -24 10q-20 0 -34 -20z" />
    <glyph glyph-name="s" unicode="s" horiz-adv-x="421" 
d="M349 320l-23 8q2 16 2 19q0 38 -29 65t-69 27q-27 0 -44 -14.5t-17 -38.5q0 -43 81 -86q65 -34 88 -48.5t39 -31.5q34 -37 34 -80q0 -64 -56.5 -107t-142.5 -43q-48 0 -90 13.5t-111 50.5l30 106l22 -7v-13q0 -47 32.5 -80.5t78.5 -33.5q29 0 48.5 16t19.5 41
q0 27 -26 48q-13 10 -85 49q-107 58 -107 144q0 76 72 117q56 29 120 29q65 0 163 -44z" />
    <glyph glyph-name="t" unicode="t" horiz-adv-x="308" 
d="M304 418h-74v-342q0 -34 20 -34q17 0 33 20l23 -17q-32 -30 -61.5 -42.5t-70.5 -12.5q-55 0 -91 24q-29 17 -29 65v339h-55v36q71 27 118.5 67t85.5 104h27v-171h74v-36z" />
    <glyph glyph-name="u" unicode="u" horiz-adv-x="546" 
d="M318 0v68q-59 -44 -97 -61t-77 -17q-44 0 -72 26q-21 21 -21 70v267q0 21 -6 30.5t-21 13.5v25q65 13 92.5 20.5t86.5 30.5h24v-350q0 -49 29 -49q28 0 62 33v246q0 37 -26 44v25q65 13 92.5 20.5t85.5 30.5h24v-406q0 -38 27 -54v-13h-203z" />
    <glyph glyph-name="v" unicode="v" horiz-adv-x="437" 
d="M289 0h-141l-129 387q-14 38 -47 54v13h243v-13q-23 -14 -23 -33q0 -10 3 -21l89 -275l84 275q2 10 2 14q0 14 -10 22t-40 18v13h158v-13q-32 -10 -47 -22.5t-23 -37.5z" />
    <glyph glyph-name="w" unicode="w" horiz-adv-x="692" 
d="M530 0h-128l-53 189l-67 -189h-130l-133 388q-15 37 -47 53v13h247v-13q-27 -15 -27 -34q0 -5 4 -19l88 -273l47 138l-37 135q-13 38 -43 53v13h237v-13q-27 -15 -27 -36q0 -8 3 -17l74 -273l86 270q3 9 3 16q0 14 -11 22.5t-39 17.5v13h157v-13q-32 -12 -46 -23t-21 -30
z" />
    <glyph glyph-name="x" unicode="x" horiz-adv-x="480" 
d="M309 292l130 -224q21 -36 60 -53v-15h-260v15q16 11 16 24q0 10 -10 29l-50 92l-70 -92q-9 -11 -9 -21q0 -20 51 -32v-15h-185v15q35 10 54.5 21t36.5 32l101 127l-111 192q-22 37 -58 54v13h259v-13q-17 -12 -17 -25q0 -12 9 -29l32 -59l47 59q11 16 11 26q0 15 -34 28
v13h153v-13q-50 -16 -81 -54z" />
    <glyph glyph-name="y" unicode="y" horiz-adv-x="420" 
d="M202 0l-175 387q-18 39 -57 54v13h270v-13q-31 -13 -31 -33q0 -7 4 -21l75 -175l70 174q4 8 4 19q0 22 -45 36v13h146v-13q-27 -11 -41 -22.5t-23 -31.5l-208 -515q-21 -52 -47 -75t-64 -23q-36 0 -60 21t-24 51q0 23 17 39.5t42 16.5q18 0 28.5 -7t20.5 -26
q10 -17 20 -17q17 0 29 31z" />
    <glyph glyph-name="z" unicode="z" horiz-adv-x="461" 
d="M413 0h-418l254 424h-50q-61 0 -95.5 -22t-49.5 -72l-26 8l28 116h404v-17l-246 -408h54q58 0 102 27q34 22 56 75l24 -9z" />
    <glyph glyph-name="braceleft" unicode="{" 
d="M104 238v31q37 3 50 20t13 62q0 22 -2 109v30q0 80 21 115q17 28 42.5 39.5t75.5 13.5q15 1 97 2v-29q-34 -1 -50.5 -11.5t-27.5 -37.5q-10 -25 -10 -82v-100q5 -73 -21 -103t-102 -42v-3q96 -11 115 -73q5 -23 5 -61l1 -159q1 -61 22 -87t68 -25v-29q-128 2 -153 9
q-45 12 -65.5 45.5t-20.5 94.5q0 16 2 133q1 31 1 62q0 40 -13.5 56.5t-47.5 19.5z" />
    <glyph glyph-name="bar" unicode="|" 
d="M184 667h132v-834h-132v834z" />
    <glyph glyph-name="braceright" unicode="}" 
d="M396 269v-31q-34 -3 -47.5 -19.5t-13.5 -56.5q0 -12 2 -143q1 -25 1 -53q0 -63 -22.5 -96.5t-72.5 -44.5q-22 -5 -144 -7v29q40 -1 60 16t27 57q3 25 3 64l1 155q-1 49 29 77.5t91 35.5v3q-75 10 -106 48q-17 22 -17 68v100q2 93 -16 126t-72 34v29q92 -1 116.5 -3
t45.5 -9q50 -16 65 -72q9 -31 9 -89q0 -13 -2 -92v-44q0 -45 13 -62t50 -20z" />
    <glyph glyph-name="asciitilde" unicode="~" horiz-adv-x="667" 
d="M491 733l29 -17q-20 -41 -56 -85q-17 -20 -34 -28t-44 -8q-22 0 -89 26q-27 12 -57 12q-32 0 -57 -28l-9 -9l-28 17q37 68 65 95t62 27q23 0 75 -19q56 -19 79 -19q32 0 64 36z" />
    <glyph glyph-name="uni00A0" unicode="&#xa0;" horiz-adv-x="300" 
 />
    <glyph glyph-name="exclamdown" unicode="&#xa1;" horiz-adv-x="315" 
d="M135 270h45q4 -71 53 -250q21 -77 21 -114q0 -46 -28 -77.5t-68 -31.5t-68.5 31.5t-28.5 76.5q0 27 6 54t35 135q32 124 33 176zM158 494q37 0 63 -26t26 -63t-26 -63t-64 -26q-36 0 -62 26.5t-26 62.5q0 37 26 63t63 26z" />
    <glyph glyph-name="cent" unicode="&#xa2;" horiz-adv-x="594" 
d="M346 625v-76q40 -8 61 -20q56 -29 56 -78q0 -23 -16 -37.5t-41 -14.5q-59 0 -60 80q-1 43 -24 43t-40.5 -44t-17.5 -104q0 -81 32 -128.5t85 -47.5q40 0 80 37l19 -12q-31 -46 -58 -66t-76 -34v-84h-51v78q-61 5 -102 36q-80 62 -80 171q0 103 67 170q23 23 47 34.5
t68 20.5v76h51z" />
    <glyph glyph-name="sterling" unicode="&#xa3;" horiz-adv-x="617" 
d="M182 48h168q86 0 132 22.5t88 83.5l28 -12l-37 -142h-543q92 103 98 330h-78v48h78q6 143 82 224.5t203 81.5q83 0 142 -31t59 -74q0 -26 -20 -44.5t-48 -18.5q-37 0 -56 27q-11 15 -32 72q-14 37 -48 37q-22 0 -40.5 -21t-25.5 -54q-8 -38 -13 -134q-2 -38 -3 -65h118
v-48h-122q-4 -84 -34 -149t-96 -133z" />
    <glyph glyph-name="currency" unicode="&#xa4;" horiz-adv-x="667" 
d="M10 85l102 102q-41 81 -41 163q0 69 41 147l-102 102l65 65l103 -103q63 41 150 41q82 0 156 -43l107 107l65 -65l-109 -109q39 -72 39 -149q0 -85 -40 -151l107 -106l-65 -65l-103 103q-78 -43 -155 -43q-82 0 -152 42l-103 -103zM332 453q-47 0 -80 -32.5t-33 -78.5
t33 -79t80 -33q46 0 79 32.5t33 77.5q0 47 -32.5 80t-79.5 33z" />
    <glyph glyph-name="yen" unicode="&#xa5;" horiz-adv-x="607" 
d="M394 227h133v-52h-133v-94q0 -26 8 -41t28 -25v-15h-247v15q20 10 28 25t8 41v94h-139v49h139v50l-22 44h-117v50h92l-107 219q-25 52 -58 66v14h278v-14q-37 -12 -36 -36q2 -18 8 -30l122 -253l121 253q8 16 8 29q0 14 -8 22t-29 15v14h132v-14q-34 -17 -57 -66
l-106 -219h87v-50h-111l-22 -44v-47z" />
    <glyph glyph-name="brokenbar" unicode="&#xa6;" 
d="M184 667h132v-368h-132v368zM184 153h132v-320h-132v320z" />
    <glyph glyph-name="section" unicode="&#xa7;" horiz-adv-x="577" 
d="M486 641l-31 -112h-17q-24 119 -131 119q-43 0 -70.5 -21.5t-27.5 -56.5q0 -27 16 -45t55 -36q143 -64 188 -95q30 -21 47.5 -50t17.5 -57q0 -42 -34 -95q-21 -32 -61 -68q35 -28 49.5 -57.5t14.5 -72.5q0 -86 -65.5 -142.5t-165.5 -56.5q-113 0 -204 48l40 128h17
q26 -70 42 -90q17 -24 47.5 -38.5t61.5 -14.5q46 0 79 32.5t33 78.5q0 35 -21 55t-81 42q-92 34 -153 64q-40 19 -64 53.5t-24 72.5q0 89 106 178q-57 48 -57 112q0 71 61 118t153 47q93 0 179 -40zM177 382q-38 -32 -38 -72q0 -36 40 -62q29 -19 113 -52q81 -33 118 -52
q29 34 29 67t-31 55q-19 14 -107 52q-100 46 -124 64z" />
    <glyph glyph-name="dieresis" unicode="&#xa8;" horiz-adv-x="449" 
d="M115 678q35 0 57.5 -19t22.5 -48t-24 -48.5t-60 -19.5q-34 0 -56 19t-22 48t23.5 48.5t58.5 19.5zM335 678q35 0 57.5 -19t22.5 -48t-24 -48.5t-60 -19.5q-34 0 -56 19t-22 48t23.5 48.5t58.5 19.5z" />
    <glyph glyph-name="copyright" unicode="&#xa9;" horiz-adv-x="804" 
d="M402 680q143 0 244.5 -101.5t101.5 -244.5q0 -145 -102 -246t-249 -101q-140 0 -241 102.5t-101 244.5q0 143 101.5 244.5t245.5 101.5zM402 631q-124 0 -211 -87t-87 -210q0 -121 87 -209t207 -88q126 0 213.5 86.5t87.5 211.5q0 122 -87.5 209t-209.5 87zM547 209
l15 -11q-78 -75 -165 -75q-89 0 -149 59t-60 147q0 95 62 155t161 60q52 0 129 -27l-19 -84h-16q-8 40 -35.5 65t-62.5 25q-44 0 -72.5 -43t-28.5 -110q0 -56 22 -111q38 -92 121 -92q49 0 98 42z" />
    <glyph glyph-name="ordfeminine" unicode="&#xaa;" horiz-adv-x="332" 
d="M309 302l17 -17q-37 -24 -74 -24q-56 0 -71 38q-47 -38 -91 -38q-36 0 -59.5 18.5t-23.5 46.5q0 44 62 74q32 17 110 45v61q0 20 -16 20t-21 -25q-11 -49 -53 -49q-20 0 -33.5 10.5t-13.5 25.5q0 28 37.5 45.5t98.5 17.5q117 0 117 -73v-174q0 -8 4 -8t10 6zM179 325v91
q-31 -13 -44 -28t-13 -39q0 -16 7.5 -26t18.5 -10q12 0 31 12z" />
    <glyph glyph-name="guillemotleft" unicode="&#xab;" horiz-adv-x="382" 
d="M207 63l-169 190l169 187v-30l-72 -157l72 -165v-25zM344 63l-169 190l169 187v-30l-72 -157l72 -165v-25z" />
    <glyph glyph-name="logicalnot" unicode="&#xac;" 
d="M266 0v178h-240v89h449v-267h-209z" />
    <glyph glyph-name="uni00AD" unicode="&#xad;" horiz-adv-x="241" 
d="M0 219v82h241v-82h-241z" />
    <glyph glyph-name="registered" unicode="&#xae;" horiz-adv-x="804" 
d="M401 680q144 0 245.5 -101.5t101.5 -244.5q0 -145 -102 -246t-249 -101q-140 0 -241 102.5t-101 244.5t101.5 244t244.5 102zM211 521h52q19 0 62 3q48 3 94 3q192 0 192 -111q0 -39 -24 -64t-78 -41q40 -131 94 -196q96 90 96 218q0 123 -87 210t-211 87
q-122 0 -209.5 -87t-87.5 -210q0 -122 87 -209t210 -87q96 0 177 58q-80 34 -122.5 81.5t-64.5 129.5q-6 -1 -12 -1q-7 0 -15 1v-137q0 -28 26 -39v-9h-179v9q26 11 26 39v304q0 28 -26 39v9zM364 466v-139q9 -1 25 -1q46 0 71 23t25 65q0 38 -24.5 66t-57.5 28
q-39 0 -39 -42z" />
    <glyph glyph-name="macron" unicode="&#xaf;" 
d="M72 567v65h355v-65h-355z" />
    <glyph glyph-name="macron" unicode="&#x2c9;" 
d="M72 567v65h355v-65h-355z" />
    <glyph glyph-name="degree" unicode="&#xb0;" horiz-adv-x="522" 
d="M261 677q61 0 102.5 -41.5t41.5 -102.5q0 -60 -43 -103t-103 -43q-59 0 -101 43t-42 103q0 61 42 102.5t103 41.5zM261 598q-28 0 -47 -18.5t-19 -46.5t19 -47.5t45 -19.5q28 0 47.5 19.5t19.5 47.5q0 26 -19.5 45.5t-45.5 19.5z" />
    <glyph glyph-name="plusminus" unicode="&#xb1;" 
d="M-2 421h200v206h101v-206h202v-98h-202v-194h-101v194h-200v98zM-2 91h503v-98h-503v98z" />
    <glyph glyph-name="twosuperior" unicode="&#xb2;" horiz-adv-x="424" 
d="M339 267h-317v20q42 48 98 97q46 37 65 57t36 45q30 46 30 89q0 34 -13 56t-33 22q-27 0 -33 -43q-5 -33 -19.5 -46.5t-43.5 -13.5q-28 0 -44.5 11.5t-16.5 31.5q0 36 45.5 60t113.5 24q84 0 130 -30.5t46 -86.5q0 -44 -36 -79q-24 -23 -93 -55q-54 -24 -106 -70h102
q41 0 63.5 8t44.5 31l20 -5z" />
    <glyph glyph-name="threesuperior" unicode="&#xb3;" horiz-adv-x="424" 
d="M137 467v19q36 5 54 11q49 18 49 83q0 32 -12 52t-31 20q-16 0 -21.5 -8.5t-8.5 -37.5q-6 -47 -60 -47q-22 0 -37 11.5t-15 28.5q0 33 44 55.5t108 22.5q75 0 118 -25.5t43 -69.5q0 -46 -45 -72q-25 -14 -71 -26q128 -19 128 -102q0 -57 -52 -91t-138 -34
q-67 0 -111.5 20t-44.5 50q0 19 16 32t38 13q48 0 68 -60q7 -20 13 -25.5t20 -5.5q27 0 43.5 26.5t16.5 70.5q0 47 -22.5 68t-71.5 21h-18z" />
    <glyph glyph-name="acute" unicode="&#xb4;" 
d="M402 668l-198 -145l56 145h142z" />
    <glyph glyph-name="mu" unicode="&#xb5;" horiz-adv-x="507" 
d="M541 56v-23l-161 -45q-3 -1 -7 -1q-39 0 -63 60q-38 -63 -108 -63q-38 0 -60.5 17t-43.5 63q-1 -5 -1 -11q0 -24 8 -49.5t35 -88.5q16 -37 16 -54q0 -26 -23 -44t-57 -18q-38 0 -61 18t-23 48q0 26 10 69q33 139 33 283v240h176v-288q3 -76 7 -89q4 -10 13.5 -17t17.5 -7
q17 0 49 36v365h175v-314q0 -56 8.5 -72t38.5 -16h4q6 0 17 1z" />
    <glyph glyph-name="mu" unicode="&#x3bc;" horiz-adv-x="507" 
d="M541 56v-23l-161 -45q-3 -1 -7 -1q-39 0 -63 60q-38 -63 -108 -63q-38 0 -60.5 17t-43.5 63q-1 -5 -1 -11q0 -24 8 -49.5t35 -88.5q16 -37 16 -54q0 -26 -23 -44t-57 -18q-38 0 -61 18t-23 48q0 26 10 69q33 139 33 283v240h176v-288q3 -76 7 -89q4 -10 13.5 -17t17.5 -7
q17 0 49 36v365h175v-314q0 -56 8.5 -72t38.5 -16h4q6 0 17 1z" />
    <glyph glyph-name="paragraph" unicode="&#xb6;" horiz-adv-x="681" 
d="M585 -39v-38h-145v702h-56v-702h-176v38h22q46 0 50 2q5 2 6 7.5t2 33.5v333h-35q-68 0 -99 12q-47 17 -75.5 58t-28.5 93q0 55 29.5 97t79.5 59q24 8 42 9.5t99 1.5h299v-38h-10q-39 0 -46 -9.5t-7 -59.5v-562q0 -31 3 -34q2 -3 30 -3h16zM288 628h-14q-22 0 -31 -3.5
t-17 -14.5q-22 -33 -22 -106q0 -58 17 -91.5t46 -33.5h21v249z" />
    <glyph glyph-name="periodcentered" unicode="&#xb7;" horiz-adv-x="278" 
d="M140 412q39 0 67 -28t28 -67q0 -40 -28 -68t-67 -28q-40 0 -68 28.5t-28 68.5q0 38 28 66t68 28z" />
    <glyph glyph-name="periodcentered" unicode="&#x2219;" horiz-adv-x="278" 
d="M140 412q39 0 67 -28t28 -67q0 -40 -28 -68t-67 -28q-40 0 -68 28.5t-28 68.5q0 38 28 66t68 28z" />
    <glyph glyph-name="cedilla" unicode="&#xb8;" 
d="M207 7h45l-9 -57q95 -2 95 -70q0 -33 -28 -54.5t-71 -21.5q-36 0 -77 23l11 11q18 -6 32 -6q25 0 42 15.5t17 38.5q0 44 -54 44q-10 0 -16 -1z" />
    <glyph glyph-name="onesuperior" unicode="&#xb9;" horiz-adv-x="424" 
d="M280 671v-354q0 -27 26 -37v-13h-188v13q27 9 27 37v277q0 24 -27 26v19q69 15 122 32h40z" />
    <glyph glyph-name="ordmasculine" unicode="&#xba;" horiz-adv-x="353" 
d="M177 551q71 0 115 -40.5t44 -105.5q0 -84 -64 -120q-43 -24 -95 -24q-53 0 -96 24q-64 37 -64 123q0 63 45 103t115 40zM177 527q-43 0 -43 -121t42 -121q43 0 43 119q0 123 -42 123z" />
    <glyph glyph-name="guillemotright" unicode="&#xbb;" horiz-adv-x="382" 
d="M174 63v25l72 165l-72 157v30l169 -187zM38 63v25l72 165l-72 157v30l169 -187z" />
    <glyph glyph-name="onequarter" unicode="&#xbc;" horiz-adv-x="991" 
d="M280 671v-354q0 -27 26 -37v-13h-188v13q27 9 27 37v277q0 24 -27 26v19q69 15 122 32h40zM404 0h-78l262 667h77zM964 94h-54v-42q0 -28 26 -37v-15h-187v14q25 11 25 38v42h-179v25l197 285h118v-255h54v-55zM659 149h115v168z" />
    <glyph glyph-name="onehalf" unicode="&#xbd;" horiz-adv-x="991" 
d="M280 671v-354q0 -27 26 -37v-13h-188v13q27 9 27 37v277q0 24 -27 26v19q69 15 122 32h40zM404 0h-78l262 667h77zM907 0h-317v20q42 48 98 97q47 39 66 58t35 44q30 46 30 89q0 34 -13 56t-33 22q-27 0 -33 -43q-5 -33 -19.5 -46.5t-43.5 -13.5q-28 0 -44.5 11.5
t-16.5 31.5q0 36 45.5 60t113.5 24q84 0 130 -30.5t46 -86.5q0 -44 -36 -79q-24 -23 -93 -55q-54 -24 -106 -70h102q41 0 63 8t45 31l20 -5z" />
    <glyph glyph-name="threequarters" unicode="&#xbe;" horiz-adv-x="991" 
d="M137 467v19q36 5 54 11q49 18 49 83q0 32 -12 52t-31 20q-16 0 -21.5 -8.5t-8.5 -37.5q-6 -47 -60 -47q-22 0 -37 11.5t-15 28.5q0 33 44 55.5t108 22.5q75 0 118 -25.5t43 -69.5q0 -46 -45 -72q-25 -14 -71 -26q128 -19 128 -102q0 -57 -52 -91t-138 -34
q-67 0 -111.5 20t-44.5 50q0 19 16 32t38 13q48 0 68 -60q7 -20 13 -25.5t20 -5.5q27 0 43.5 26.5t16.5 70.5q0 47 -22.5 68t-71.5 21h-18zM404 0h-78l261 667h78zM963 94h-53v-42q0 -28 26 -37v-15h-187v14q25 11 25 38v42h-179v25l197 285h118v-255h53v-55zM659 149h115
v168z" />
    <glyph glyph-name="questiondown" unicode="&#xbf;" horiz-adv-x="470" 
d="M242 260h25q7 -26 7 -55q0 -49 -26 -97q-14 -26 -18.5 -54t-4.5 -84q0 -61 16.5 -95t46.5 -34t30 18q0 10 -16 21q-28 22 -28 57q0 30 23 52t55 22q31 0 52.5 -24.5t21.5 -59.5q0 -56 -50 -92.5t-128 -36.5q-90 0 -149 47.5t-59 120.5q0 112 139 182q35 16 48 38t15 74z
M247 496q39 0 67 -28t28 -68q0 -39 -28 -67t-67 -28q-40 0 -68 28t-28 69q0 38 28 66t68 28z" />
    <glyph glyph-name="Agrave" unicode="&#xc0;" horiz-adv-x="605" 
d="M123 212l-42 -132q-4 -11 -4 -20q0 -32 62 -47v-13h-183v13q31 9 47.5 23.5t28.5 43.5l193 593h153l191 -593q17 -52 56 -67v-13h-277v13q31 12 31 40q0 10 -5 27l-42 132h-209zM141 257h177l-90 278zM154 847h142l61 -142z" />
    <glyph glyph-name="Aacute" unicode="&#xc1;" horiz-adv-x="605" 
d="M123 212l-42 -132q-4 -11 -4 -20q0 -32 62 -47v-13h-183v13q31 9 47.5 23.5t28.5 43.5l193 593h153l191 -593q17 -52 56 -67v-13h-277v13q31 12 31 40q0 10 -5 27l-42 132h-209zM141 257h177l-90 278zM461 847l-203 -142l61 142h142z" />
    <glyph glyph-name="Acircumflex" unicode="&#xc2;" horiz-adv-x="605" 
d="M123 212l-42 -132q-4 -11 -4 -20q0 -32 62 -47v-13h-183v13q31 9 47.5 23.5t28.5 43.5l193 593h153l191 -593q17 -52 56 -67v-13h-277v13q31 12 31 40q0 10 -5 27l-42 132h-209zM141 257h177l-90 278zM352 846l77 -143l-129 85l-124 -85l73 143h103z" />
    <glyph glyph-name="Atilde" unicode="&#xc3;" horiz-adv-x="605" 
d="M123 212l-42 -132q-4 -11 -4 -20q0 -32 62 -47v-13h-183v13q31 9 47.5 23.5t28.5 43.5l193 593h153l191 -593q17 -52 56 -67v-13h-277v13q31 12 31 40q0 10 -5 27l-42 132h-209zM141 257h177l-90 278zM178 722l-21 3q11 56 28.5 79.5t49.5 23.5q18 0 75 -19
q36 -13 61 -13q35 0 56 38l20 -3q-9 -45 -24 -66q-21 -33 -64 -33q-24 0 -62 10q-56 16 -74 16q-30 0 -45 -36z" />
    <glyph glyph-name="Adieresis" unicode="&#xc4;" horiz-adv-x="605" 
d="M123 212l-42 -132q-4 -11 -4 -20q0 -32 62 -47v-13h-183v13q31 9 47.5 23.5t28.5 43.5l193 593h153l191 -593q17 -52 56 -67v-13h-277v13q31 12 31 40q0 10 -5 27l-42 132h-209zM141 257h177l-90 278zM190 856q35 0 57.5 -19t22.5 -48t-24 -48.5t-60 -19.5q-34 0 -56 19
t-22 48t23.5 48.5t58.5 19.5zM416 856q35 0 57.5 -19t22.5 -48t-24 -48.5t-60 -19.5q-34 0 -56 19t-22 48t23.5 48.5t58.5 19.5z" />
    <glyph glyph-name="Aring" unicode="&#xc5;" horiz-adv-x="605" 
d="M123 212l-42 -132q-4 -11 -4 -20q0 -32 62 -47v-13h-183v13q31 9 47.5 23.5t28.5 43.5l193 593h153l191 -593q17 -52 56 -67v-13h-277v13q31 12 31 40q0 10 -5 27l-42 132h-209zM141 257h177l-90 278zM303 885q37 0 64 -27t27 -65t-27 -65t-65 -27t-65 27t-27 66
q0 37 27.5 64t65.5 27zM303 828q-15 0 -25.5 -10.5t-10.5 -24.5t10.5 -24.5t24.5 -10.5t24.5 10.5t10.5 24.5t-10 24.5t-24 10.5z" />
    <glyph glyph-name="AE" unicode="&#xc6;" horiz-adv-x="914" 
d="M398 226h-222l-85 -145q-8 -14 -8 -27q0 -26 53 -40v-14h-181v14q48 17 80 67l338 567l-13 7v12h504l14 -127h-27q-16 44 -44 64q-44 35 -109 35h-32q-35 0 -49.5 -14t-14.5 -47v-191h67q46 0 69.5 16.5t31.5 54.5h25v-180h-25q-5 77 -97 77h-71v-271q0 -30 22.5 -43.5
t71.5 -13.5h27q59 0 97 24.5t66 80.5l23 -11l-31 -121h-520v15q22 10 31 25t9 41v145zM398 269v298q0 19 -1 30l-194 -328h195z" />
    <glyph glyph-name="Ccedilla" unicode="&#xc7;" horiz-adv-x="593" 
d="M575 126l24 -18q-61 -65 -118.5 -93.5t-132.5 -31.5l-7 -43q49 -1 73 -24q22 -20 22 -52q0 -36 -27.5 -59t-70.5 -23q-37 0 -78 27l11 11q18 -9 32 -9q25 0 42 17t17 42q0 48 -54 48h-16l11 68q-84 18 -136 53q-69 44 -106 118.5t-37 169.5q0 158 95.5 257.5t247.5 99.5
q77 0 199 -44l-30 -141h-25q-11 64 -54.5 107.5t-96.5 43.5q-68 0 -111.5 -71.5t-43.5 -183.5q0 -94 34 -184q59 -154 189 -154q37 0 68.5 15t78.5 54z" />
    <glyph glyph-name="Egrave" unicode="&#xc8;" horiz-adv-x="595" 
d="M537 667l11 -127h-25q-14 33 -32 53q-44 47 -121 47h-36q-35 0 -50.5 -13.5t-15.5 -44.5v-196h70q49 0 74 17t30 55h23v-179h-23q-1 40 -25.5 57.5t-78.5 17.5h-70v-263q0 -41 18 -51q21 -12 72 -12h34q81 0 129 49q24 24 41 73l24 -10l-38 -140h-515v15q40 19 40 66v505
q0 47 -40 66v15h504zM164 847h142l61 -142z" />
    <glyph glyph-name="Eacute" unicode="&#xc9;" horiz-adv-x="595" 
d="M537 667l11 -127h-25q-14 33 -32 53q-44 47 -121 47h-36q-35 0 -50.5 -13.5t-15.5 -44.5v-196h70q49 0 74 17t30 55h23v-179h-23q-1 40 -25.5 57.5t-78.5 17.5h-70v-263q0 -41 18 -51q21 -12 72 -12h34q81 0 129 49q24 24 41 73l24 -10l-38 -140h-515v15q40 19 40 66v505
q0 47 -40 66v15h504zM459 847l-204 -142l61 142h143z" />
    <glyph glyph-name="Ecircumflex" unicode="&#xca;" horiz-adv-x="595" 
d="M537 667l11 -127h-25q-14 33 -32 53q-44 47 -121 47h-36q-35 0 -50.5 -13.5t-15.5 -44.5v-196h70q49 0 74 17t30 55h23v-179h-23q-1 40 -25.5 57.5t-78.5 17.5h-70v-263q0 -41 18 -51q21 -12 72 -12h34q81 0 129 49q24 24 41 73l24 -10l-38 -140h-515v15q40 19 40 66v505
q0 47 -40 66v15h504zM367 846l76 -143l-129 85l-124 -85l74 143h103z" />
    <glyph glyph-name="Edieresis" unicode="&#xcb;" horiz-adv-x="595" 
d="M537 667l11 -127h-25q-14 33 -32 53q-44 47 -121 47h-36q-35 0 -50.5 -13.5t-15.5 -44.5v-196h70q49 0 74 17t30 55h23v-179h-23q-1 40 -25.5 57.5t-78.5 17.5h-70v-263q0 -41 18 -51q21 -12 72 -12h34q81 0 129 49q24 24 41 73l24 -10l-38 -140h-515v15q40 19 40 66v505
q0 47 -40 66v15h504zM185 856q36 0 58.5 -19t22.5 -48t-24 -48.5t-61 -19.5q-34 0 -56 19t-22 48t23.5 48.5t58.5 19.5zM412 856q35 0 57.5 -19t22.5 -48t-24 -48.5t-60 -19.5q-34 0 -56 19t-22 48t23.5 48.5t58.5 19.5z" />
    <glyph glyph-name="Igrave" unicode="&#xcc;" horiz-adv-x="353" 
d="M275 586v-505q0 -47 40 -66v-15h-276v15q40 19 40 66v505q0 48 -40 66v15h276v-15q-40 -18 -40 -66zM52 847h142l61 -142z" />
    <glyph glyph-name="Iacute" unicode="&#xcd;" horiz-adv-x="353" 
d="M275 586v-505q0 -47 40 -66v-15h-276v15q40 19 40 66v505q0 48 -40 66v15h276v-15q-40 -18 -40 -66zM346 847l-203 -142l61 142h142z" />
    <glyph glyph-name="Icircumflex" unicode="&#xce;" horiz-adv-x="353" 
d="M275 586v-505q0 -47 40 -66v-15h-276v15q40 19 40 66v505q0 48 -40 66v15h276v-15q-40 -18 -40 -66zM228 846l76 -143l-129 85l-124 -85l73 143h104z" />
    <glyph glyph-name="Idieresis" unicode="&#xcf;" horiz-adv-x="353" 
d="M275 586v-505q0 -47 40 -66v-15h-276v15q40 19 40 66v505q0 48 -40 66v15h276v-15q-40 -18 -40 -66zM76 856q31 0 51.5 -19t20.5 -48t-22 -48.5t-54 -19.5q-31 0 -50.5 19t-19.5 48t21 48.5t53 19.5zM280 856q31 0 51.5 -19t20.5 -48t-22 -48.5t-54 -19.5
q-31 0 -50.5 18.5t-19.5 47.5q0 30 21 49.5t53 19.5z" />
    <glyph glyph-name="Eth" unicode="&#xd0;" horiz-adv-x="744" 
d="M78 371v215q0 48 -40 66v15h97q35 0 86 4q72 5 117 5q175 0 279 -97t104 -259q0 -151 -87.5 -235.5t-243.5 -84.5h-352v15q40 19 40 66v240h-65v50h65zM264 371h93v-50h-93v-240q0 -51 76 -51q90 0 137 76t47 222q0 182 -76 266q-49 52 -120 52q-64 0 -64 -62v-213z" />
    <glyph glyph-name="Ntilde" unicode="&#xd1;" horiz-adv-x="721" 
d="M639 0h-178l-332 513v-429q0 -32 12 -46.5t45 -22.5v-15h-161v15q33 8 45 22.5t12 46.5v499q0 32 -12 46.5t-45 22.5v15h233l333 -511v427q0 32 -12 46.5t-45 22.5v15h162v-15q-33 -8 -45 -22.5t-12 -46.5v-583zM247 722l-21 3q11 56 28.5 79.5t49.5 23.5q18 0 75 -19
q36 -13 62 -13q33 0 56 38l19 -3q-9 -44 -23 -66q-23 -33 -65 -33q-24 0 -62 10q-56 16 -74 16q-30 0 -45 -36z" />
    <glyph glyph-name="Ograve" unicode="&#xd2;" horiz-adv-x="756" 
d="M378 684q79 0 150.5 -31.5t120.5 -87.5q83 -94 83 -232q0 -151 -101 -250.5t-254 -99.5q-119 0 -215 68q-67 46 -102.5 121t-35.5 169q0 145 102.5 244t251.5 99zM375 654q-68 0 -111 -87.5t-43 -226.5q0 -155 42 -241t118 -86q71 0 112.5 86.5t41.5 232.5q0 150 -43 236
t-117 86zM245 847h142l61 -142z" />
    <glyph glyph-name="Oacute" unicode="&#xd3;" horiz-adv-x="756" 
d="M378 684q79 0 150.5 -31.5t120.5 -87.5q83 -94 83 -232q0 -151 -101 -250.5t-254 -99.5q-119 0 -215 68q-67 46 -102.5 121t-35.5 169q0 145 102.5 244t251.5 99zM375 654q-68 0 -111 -87.5t-43 -226.5q0 -155 42 -241t118 -86q71 0 112.5 86.5t41.5 232.5q0 150 -43 236
t-117 86zM529 847l-204 -142l61 142h143z" />
    <glyph glyph-name="Ocircumflex" unicode="&#xd4;" horiz-adv-x="756" 
d="M378 684q79 0 150.5 -31.5t120.5 -87.5q83 -94 83 -232q0 -151 -101 -250.5t-254 -99.5q-119 0 -215 68q-67 46 -102.5 121t-35.5 169q0 145 102.5 244t251.5 99zM375 654q-68 0 -111 -87.5t-43 -226.5q0 -155 42 -241t118 -86q71 0 112.5 86.5t41.5 232.5q0 150 -43 236
t-117 86zM429 846l76 -143l-129 85l-124 -85l73 143h104z" />
    <glyph glyph-name="Otilde" unicode="&#xd5;" horiz-adv-x="756" 
d="M378 684q79 0 150.5 -31.5t120.5 -87.5q83 -94 83 -232q0 -151 -101 -250.5t-254 -99.5q-119 0 -215 68q-67 46 -102.5 121t-35.5 169q0 145 102.5 244t251.5 99zM375 654q-68 0 -111 -87.5t-43 -226.5q0 -155 42 -241t118 -86q71 0 112.5 86.5t41.5 232.5q0 150 -43 236
t-117 86zM254 722l-21 3q11 56 28.5 79.5t49.5 23.5q18 0 75 -19q36 -13 62 -13q34 0 55 38l20 -3q-9 -45 -24 -66q-21 -33 -64 -33q-24 0 -62 10q-56 16 -74 16q-30 0 -45 -36z" />
    <glyph glyph-name="Odieresis" unicode="&#xd6;" horiz-adv-x="756" 
d="M378 684q79 0 150.5 -31.5t120.5 -87.5q83 -94 83 -232q0 -151 -101 -250.5t-254 -99.5q-119 0 -215 68q-67 46 -102.5 121t-35.5 169q0 145 102.5 244t251.5 99zM375 654q-68 0 -111 -87.5t-43 -226.5q0 -155 42 -241t118 -86q71 0 112.5 86.5t41.5 232.5q0 150 -43 236
t-117 86zM266 856q35 0 57.5 -19t22.5 -48t-24 -48.5t-60 -19.5q-34 0 -56 19t-22 48t23.5 48.5t58.5 19.5zM492 856q35 0 58 -19t23 -48t-24 -48.5t-61 -19.5q-34 0 -56 19t-22 48t23.5 48.5t58.5 19.5z" />
    <glyph glyph-name="multiply" unicode="&#xd7;" 
d="M109 585l140 -142l142 144l72 -71l-144 -143l142 -141l-69 -69l-141 143l-142 -145l-72 72l144 143l-141 140z" />
    <glyph glyph-name="Oslash" unicode="&#xd8;" horiz-adv-x="758" 
d="M704 687l-78 -96q107 -101 107 -260q0 -136 -83 -230q-48 -54 -121.5 -86t-149.5 -32q-104 0 -204 58l-54 -65h-55l73 91q-114 105 -114 267q0 149 101 249t252 100q113 0 212 -63l54 67h60zM238 186l272 337q-22 67 -54 98.5t-79 31.5q-71 0 -113 -87t-42 -233
q0 -78 16 -147zM522 466l-271 -333q41 -121 130 -121q69 0 112 85t43 221q0 69 -14 148z" />
    <glyph glyph-name="Ugrave" unicode="&#xd9;" horiz-adv-x="700" 
d="M264 586v-389q0 -82 18 -117q35 -62 132 -62q86 0 132 51t46 145v369q0 32 -12 46.5t-45 22.5v15h161v-15q-33 -8 -45 -22.5t-12 -46.5v-354q0 -119 -51 -176q-63 -70 -196 -70q-144 0 -236 50q-88 50 -88 172v381q0 48 -40 66v15h276v-15q-40 -18 -40 -66zM254 847h142
l61 -142z" />
    <glyph glyph-name="Uacute" unicode="&#xda;" horiz-adv-x="700" 
d="M264 586v-389q0 -82 18 -117q35 -62 132 -62q86 0 132 51t46 145v369q0 32 -12 46.5t-45 22.5v15h161v-15q-33 -8 -45 -22.5t-12 -46.5v-354q0 -119 -51 -176q-63 -70 -196 -70q-144 0 -236 50q-88 50 -88 172v381q0 48 -40 66v15h276v-15q-40 -18 -40 -66zM559 847
l-203 -142l61 142h142z" />
    <glyph glyph-name="Ucircumflex" unicode="&#xdb;" horiz-adv-x="700" 
d="M264 586v-389q0 -82 18 -117q35 -62 132 -62q86 0 132 51t46 145v369q0 32 -12 46.5t-45 22.5v15h161v-15q-33 -8 -45 -22.5t-12 -46.5v-354q0 -119 -51 -176q-63 -70 -196 -70q-144 0 -236 50q-88 50 -88 172v381q0 48 -40 66v15h276v-15q-40 -18 -40 -66zM446 846
l76 -143l-128 85l-124 -85l73 143h103z" />
    <glyph glyph-name="Udieresis" unicode="&#xdc;" horiz-adv-x="700" 
d="M264 586v-389q0 -82 18 -117q35 -62 132 -62q86 0 132 51t46 145v369q0 32 -12 46.5t-45 22.5v15h161v-15q-33 -8 -45 -22.5t-12 -46.5v-354q0 -119 -51 -176q-63 -70 -196 -70q-144 0 -236 50q-88 50 -88 172v381q0 48 -40 66v15h276v-15q-40 -18 -40 -66zM277 856
q35 0 57.5 -19t22.5 -48t-24 -48.5t-60 -19.5q-34 0 -56 19t-22 48t23.5 48.5t58.5 19.5zM503 856q35 0 58 -19t23 -48t-24 -48.5t-61 -19.5q-34 0 -56 19t-22 48t23.5 48.5t58.5 19.5z" />
    <glyph glyph-name="Yacute" unicode="&#xdd;" horiz-adv-x="607" 
d="M404 273v-192q0 -47 40 -66v-15h-275v15q40 19 40 66v192l-170 314q-29 53 -65 66v14h308v-14q-39 -12 -39 -36q0 -16 8 -30l136 -252l135 252q8 14 8 30q0 14 -9 21.5t-32 14.5v14h148v-14q-38 -17 -64 -66zM521 847l-203 -142l61 142h142z" />
    <glyph glyph-name="Thorn" unicode="&#xde;" horiz-adv-x="642" 
d="M274 215v-134q0 -47 40 -66v-15h-276v15q40 19 40 66v505q0 48 -40 66v15h276v-15q-40 -18 -40 -66v-34q48 2 72 2q128 0 198.5 -44.5t70.5 -125.5q0 -170 -288 -170q-30 0 -53 1zM274 468v-227q83 1 113 15q56 27 56 117q0 70 -33 112t-88 42q-25 0 -36.5 -14t-11.5 -45
z" />
    <glyph glyph-name="germandbls" unicode="&#xdf;" horiz-adv-x="565" 
d="M260 10v120h23q1 -44 12 -68q20 -41 67 -41q31 0 51 18t20 47q0 23 -16.5 45.5t-58.5 55.5q-55 43 -74 69.5t-19 58.5q0 26 13.5 51.5t52.5 73.5q32 40 41 59t9 45q0 45 -26.5 77t-63.5 32q-64 0 -64 -88v-565h-203v13q27 18 27 54v397q0 220 235 220q85 0 136.5 -32
t51.5 -84q0 -51 -59 -93q-33 -24 -45 -37t-12 -28q0 -6 4 -14q5 -8 19.5 -20.5t98.5 -79.5q69 -55 69 -116q0 -55 -34.5 -105.5t-85.5 -70.5q-36 -14 -78 -14q-43 0 -91 20z" />
    <glyph glyph-name="agrave" unicode="&#xe0;" horiz-adv-x="507" 
d="M485 46l19 -20q-55 -36 -110 -36q-92 0 -113 69q-50 -42 -79 -55.5t-70 -13.5q-56 0 -92 29.5t-36 75.5q0 68 95 121q58 30 182 77v106q0 40 -32 40q-17 0 -26.5 -10.5t-14.5 -35.5q-17 -79 -80 -79q-29 0 -49 16.5t-20 40.5q0 44 59.5 71.5t154.5 27.5q183 0 183 -117
v-296q0 -20 13 -20q7 0 16 9zM281 91v166q-54 -23 -74 -44q-30 -32 -30 -80q0 -29 13 -47.5t35 -18.5q23 0 56 24zM310 668l42 -145l-202 145h160z" />
    <glyph glyph-name="aacute" unicode="&#xe1;" horiz-adv-x="507" 
d="M485 46l19 -20q-55 -36 -110 -36q-92 0 -113 69q-50 -42 -79 -55.5t-70 -13.5q-56 0 -92 29.5t-36 75.5q0 68 95 121q58 30 182 77v106q0 40 -32 40q-17 0 -26.5 -10.5t-14.5 -35.5q-17 -79 -80 -79q-29 0 -49 16.5t-20 40.5q0 44 59.5 71.5t154.5 27.5q183 0 183 -117
v-296q0 -20 13 -20q7 0 16 9zM281 91v166q-54 -23 -74 -44q-30 -32 -30 -80q0 -29 13 -47.5t35 -18.5q23 0 56 24zM440 668l-199 -145l57 145h142z" />
    <glyph glyph-name="acircumflex" unicode="&#xe2;" horiz-adv-x="507" 
d="M485 46l19 -20q-55 -36 -110 -36q-92 0 -113 69q-50 -42 -79 -55.5t-70 -13.5q-56 0 -92 29.5t-36 75.5q0 68 95 121q58 30 182 77v106q0 40 -32 40q-17 0 -26.5 -10.5t-14.5 -35.5q-17 -79 -80 -79q-29 0 -49 16.5t-20 40.5q0 44 59.5 71.5t154.5 27.5q183 0 183 -117
v-296q0 -20 13 -20q7 0 16 9zM281 91v166q-54 -23 -74 -44q-30 -32 -30 -80q0 -29 13 -47.5t35 -18.5q23 0 56 24zM323 667l73 -145l-126 87l-120 -87l70 145h103z" />
    <glyph glyph-name="atilde" unicode="&#xe3;" horiz-adv-x="507" 
d="M485 46l19 -20q-55 -36 -110 -36q-92 0 -113 69q-50 -42 -79 -55.5t-70 -13.5q-56 0 -92 29.5t-36 75.5q0 68 95 121q58 30 182 77v106q0 40 -32 40q-17 0 -26.5 -10.5t-14.5 -35.5q-17 -79 -80 -79q-29 0 -49 16.5t-20 40.5q0 44 59.5 71.5t154.5 27.5q183 0 183 -117
v-296q0 -20 13 -20q7 0 16 9zM281 91v166q-54 -23 -74 -44q-30 -32 -30 -80q0 -29 13 -47.5t35 -18.5q23 0 56 24zM148 545l-20 2q10 56 28 79.5t50 23.5q18 0 74 -19q37 -13 62 -13q35 0 56 38l20 -3q-10 -45 -24 -66q-21 -33 -64 -33q-23 0 -63 10q-55 16 -73 16
q-31 0 -46 -35z" />
    <glyph glyph-name="adieresis" unicode="&#xe4;" horiz-adv-x="507" 
d="M485 46l19 -20q-55 -36 -110 -36q-92 0 -113 69q-50 -42 -79 -55.5t-70 -13.5q-56 0 -92 29.5t-36 75.5q0 68 95 121q58 30 182 77v106q0 40 -32 40q-17 0 -26.5 -10.5t-14.5 -35.5q-17 -79 -80 -79q-29 0 -49 16.5t-20 40.5q0 44 59.5 71.5t154.5 27.5q183 0 183 -117
v-296q0 -20 13 -20q7 0 16 9zM281 91v166q-54 -23 -74 -44q-30 -32 -30 -80q0 -29 13 -47.5t35 -18.5q23 0 56 24zM165 678q35 0 57.5 -19t22.5 -48t-24 -48.5t-60 -19.5q-34 0 -56 19t-22 48t23.5 48.5t58.5 19.5zM385 678q35 0 57.5 -19t22.5 -48t-24 -48.5t-60 -19.5
q-34 0 -56 19t-22 48t23.5 48.5t58.5 19.5z" />
    <glyph glyph-name="aring" unicode="&#xe5;" horiz-adv-x="507" 
d="M485 46l19 -20q-55 -36 -110 -36q-92 0 -113 69q-50 -42 -79 -55.5t-70 -13.5q-56 0 -92 29.5t-36 75.5q0 68 95 121q58 30 182 77v106q0 40 -32 40q-17 0 -26.5 -10.5t-14.5 -35.5q-17 -79 -80 -79q-29 0 -49 16.5t-20 40.5q0 44 59.5 71.5t154.5 27.5q183 0 183 -117
v-296q0 -20 13 -20q7 0 16 9zM281 91v166q-54 -23 -74 -44q-30 -32 -30 -80q0 -29 13 -47.5t35 -18.5q23 0 56 24zM278 707q37 0 64 -27t27 -65t-27 -65.5t-65 -27.5t-65 27.5t-27 65.5t27.5 65t65.5 27zM278 650q-15 0 -25.5 -10.5t-10.5 -24.5q0 -15 10.5 -25.5
t24.5 -10.5t24.5 10.5t10.5 25.5q0 14 -10 24.5t-24 10.5z" />
    <glyph glyph-name="ae" unicode="&#xe6;" horiz-adv-x="720" 
d="M682 121l23 -14q-49 -50 -78 -70q-70 -47 -140 -47q-59 0 -112 34q-27 17 -61 63q-97 -97 -190 -97q-53 0 -87 29t-34 75q0 39 26.5 68.5t85.5 57.5q39 19 164 67v111q0 41 -34 41q-17 0 -26.5 -10t-13.5 -34q-8 -38 -20 -53q-21 -24 -57 -24q-30 0 -50 16t-20 39
q0 40 56 68.5t133 28.5q90 0 133 -37q62 37 118 37q57 0 104.5 -28.5t71.5 -77.5q21 -41 22 -112v-17h-242q9 -70 32 -101q36 -49 102 -49q44 0 94 36zM450 274h67q23 0 33 13t10 42q0 109 -53 109q-57 0 -57 -134v-30zM279 90v162q-53 -26 -68 -38q-36 -29 -36 -81
q0 -30 14 -48.5t37 -18.5q21 0 53 24z" />
    <glyph glyph-name="ccedilla" unicode="&#xe7;" horiz-adv-x="431" 
d="M237 -10l-6 -39q95 -3 95 -70q0 -34 -28 -55.5t-71 -21.5q-35 0 -77 24l11 10q18 -6 32 -6q25 0 42 15.5t17 38.5q0 45 -54 45q-10 0 -16 -1l10 62q-75 12 -124 76t-49 150q0 108 64.5 180t161.5 72q67 0 114.5 -32.5t47.5 -77.5q0 -25 -17.5 -41t-46.5 -16q-37 0 -54 29
q-9 16 -13 78q-4 28 -24 28q-27 0 -46 -48.5t-19 -118.5q0 -87 35.5 -139t94.5 -52q48 0 88 40l22 -13q-70 -107 -190 -117z" />
    <glyph glyph-name="egrave" unicode="&#xe8;" horiz-adv-x="459" 
d="M424 121l20 -13q-59 -66 -107 -92.5t-108 -26.5q-93 0 -151.5 67.5t-58.5 175.5q0 116 74 181q63 57 145 57q53 0 100.5 -27t72.5 -71q26 -46 26 -122v-18h-242q7 -62 26 -90q17 -25 47 -39.5t64 -14.5q38 0 92 33zM191 271h63q27 0 36 12q12 17 12 57q0 47 -13.5 73
t-38.5 26q-32 0 -46 -40t-13 -128zM269 668l41 -145l-201 145h160z" />
    <glyph glyph-name="eacute" unicode="&#xe9;" horiz-adv-x="459" 
d="M424 121l20 -13q-59 -66 -107 -92.5t-108 -26.5q-93 0 -151.5 67.5t-58.5 175.5q0 116 74 181q63 57 145 57q53 0 100.5 -27t72.5 -71q26 -46 26 -122v-18h-242q7 -62 26 -90q17 -25 47 -39.5t64 -14.5q38 0 92 33zM191 271h63q27 0 36 12q12 17 12 57q0 47 -13.5 73
t-38.5 26q-32 0 -46 -40t-13 -128zM409 668l-198 -145l56 145h142z" />
    <glyph glyph-name="ecircumflex" unicode="&#xea;" horiz-adv-x="459" 
d="M424 121l20 -13q-59 -66 -107 -92.5t-108 -26.5q-93 0 -151.5 67.5t-58.5 175.5q0 116 74 181q63 57 145 57q53 0 100.5 -27t72.5 -71q26 -46 26 -122v-18h-242q7 -62 26 -90q17 -25 47 -39.5t64 -14.5q38 0 92 33zM191 271h63q27 0 36 12q12 17 12 57q0 47 -13.5 73
t-38.5 26q-32 0 -46 -40t-13 -128zM303 667l72 -145l-125 87l-121 -87l70 145h104z" />
    <glyph glyph-name="edieresis" unicode="&#xeb;" horiz-adv-x="459" 
d="M424 121l20 -13q-59 -66 -107 -92.5t-108 -26.5q-93 0 -151.5 67.5t-58.5 175.5q0 116 74 181q63 57 145 57q53 0 100.5 -27t72.5 -71q26 -46 26 -122v-18h-242q7 -62 26 -90q17 -25 47 -39.5t64 -14.5q38 0 92 33zM191 271h63q27 0 36 12q12 17 12 57q0 47 -13.5 73
t-38.5 26q-32 0 -46 -40t-13 -128zM140 678q36 0 58.5 -19t22.5 -48t-24 -48.5t-61 -19.5q-34 0 -56 19t-22 48t23.5 48.5t58.5 19.5zM360 678q35 0 57.5 -19t22.5 -48t-24 -48.5t-60 -19.5q-34 0 -56 19t-22 48t23.5 48.5t58.5 19.5z" />
    <glyph glyph-name="igrave" unicode="&#xec;" horiz-adv-x="289" 
d="M29 397v25q66 13 93.5 20.5t85.5 30.5h24v-406q0 -38 27 -54v-13h-230v13q27 16 27 54v286q0 21 -6 30.5t-21 13.5zM178 668l42 -145l-202 145h160z" />
    <glyph glyph-name="iacute" unicode="&#xed;" horiz-adv-x="289" 
d="M28 397v25q66 13 93.5 20.5t85.5 30.5h24v-406q0 -38 27 -54v-13h-230v13q27 16 27 54v286q0 21 -6 30.5t-21 13.5zM320 668l-199 -145l57 145h142z" />
    <glyph glyph-name="icircumflex" unicode="&#xee;" horiz-adv-x="289" 
d="M28 397v25q66 13 93.5 20.5t85.5 30.5h24v-406q0 -38 27 -54v-13h-230v13q27 16 27 54v286q0 21 -6 30.5t-21 13.5zM207 667l73 -145l-126 87l-120 -87l70 145h103z" />
    <glyph glyph-name="idieresis" unicode="&#xef;" horiz-adv-x="289" 
d="M28 397v25q66 13 93.5 20.5t86.5 30.5h24v-406q0 -38 27 -54v-13h-230v13q27 16 27 54v286q0 21 -6 30.5t-22 13.5zM54 678q31 0 51.5 -19t20.5 -48t-22 -48.5t-54 -19.5q-31 0 -50.5 19t-19.5 48t21 48.5t53 19.5zM235 678q31 0 51.5 -19t20.5 -48t-22 -48.5t-54 -19.5
q-31 0 -50.5 18.5t-19.5 47.5q0 30 21 49.5t53 19.5z" />
    <glyph glyph-name="eth" unicode="&#xf0;" horiz-adv-x="541" 
d="M270 440q-75 0 -75 -210q0 -211 75 -211t75 207q0 214 -75 214zM179 515l-26 27l83 67q-17 19 -49 44.5t-50 33.5l10 19q65 -17 136 -60l84 69l25 -27l-77 -64q92 -64 149 -172.5t57 -220.5q0 -127 -94 -195q-62 -46 -157 -46q-97 0 -160 49q-91 70 -91 192q0 110 69 175
t184 65q37 0 56 -7q-35 76 -67 118z" />
    <glyph glyph-name="ntilde" unicode="&#xf1;" horiz-adv-x="547" 
d="M227 473v-82q56 39 76 50q50 29 97 29q95 0 95 -90v-313q0 -36 27 -54v-13h-228v13q27 16 27 54v272q0 26 -7 37t-23 11q-25 0 -64 -28v-292q0 -38 27 -54v-13h-230v13q27 16 27 54v287q0 36 -26 43v25q65 13 92.5 20.5t85.5 30.5h24zM157 545l-20 2q10 56 28 79.5
t50 23.5q18 0 74 -19q37 -13 62 -13q35 0 56 38l20 -3q-10 -45 -24 -66q-21 -33 -64 -33q-23 0 -63 10q-55 16 -73 16q-31 0 -46 -35z" />
    <glyph glyph-name="ograve" unicode="&#xf2;" horiz-adv-x="541" 
d="M270 470q84 0 151 -42q100 -62 100 -198q0 -139 -100 -199q-69 -41 -151 -41t-151 41q-100 59 -100 202q0 63 26.5 114.5t73.5 80.5q67 42 151 42zM270 440q-75 0 -75 -210q0 -211 75 -211t75 207q0 214 -75 214zM295 668l42 -145l-202 145h160z" />
    <glyph glyph-name="oacute" unicode="&#xf3;" horiz-adv-x="541" 
d="M270 470q84 0 151 -42q100 -62 100 -198q0 -139 -100 -199q-69 -41 -151 -41t-151 41q-100 59 -100 202q0 63 26.5 114.5t73.5 80.5q67 42 151 42zM270 440q-75 0 -75 -210q0 -211 75 -211t75 207q0 214 -75 214zM440 668l-199 -145l56 145h143z" />
    <glyph glyph-name="ocircumflex" unicode="&#xf4;" horiz-adv-x="541" 
d="M270 470q84 0 151 -42q100 -62 100 -198q0 -139 -100 -199q-69 -41 -151 -41t-151 41q-100 59 -100 202q0 63 26.5 114.5t73.5 80.5q67 42 151 42zM270 440q-75 0 -75 -210q0 -211 75 -211t75 207q0 214 -75 214zM327 667l72 -145l-125 87l-120 -87l70 145h103z" />
    <glyph glyph-name="otilde" unicode="&#xf5;" horiz-adv-x="541" 
d="M270 470q84 0 151 -42q100 -62 100 -198q0 -139 -100 -199q-69 -41 -151 -41t-151 41q-100 59 -100 202q0 63 26.5 114.5t73.5 80.5q67 42 151 42zM270 440q-75 0 -75 -210q0 -211 75 -211t75 207q0 214 -75 214zM146 545l-21 2q11 56 28.5 79.5t49.5 23.5q19 0 75 -19
q36 -13 62 -13q34 0 55 38l20 -3q-9 -45 -24 -66q-21 -33 -64 -33q-24 0 -62 10q-56 16 -74 16q-30 0 -45 -35z" />
    <glyph glyph-name="odieresis" unicode="&#xf6;" horiz-adv-x="541" 
d="M270 470q84 0 151 -42q100 -62 100 -198q0 -139 -100 -199q-69 -41 -151 -41t-151 41q-100 59 -100 202q0 63 26.5 114.5t73.5 80.5q67 42 151 42zM270 440q-75 0 -75 -210q0 -211 75 -211t75 207q0 214 -75 214zM164 678q36 0 58.5 -19t22.5 -48t-24 -48.5t-61 -19.5
q-34 0 -56 19t-22 48t23.5 48.5t58.5 19.5zM384 678q35 0 58 -19t23 -48t-24 -48.5t-61 -19.5q-34 0 -56 19t-22 48t23.5 48.5t58.5 19.5z" />
    <glyph glyph-name="divide" unicode="&#xf7;" 
d="M-2 423h503v-98h-503v98zM250 607q28 0 49 -20.5t21 -49.5t-20.5 -50t-49.5 -21t-50 21t-21 50t21 49.5t50 20.5zM250 281q28 0 49 -20.5t21 -49.5t-20.5 -50t-49.5 -21t-50 20.5t-21 49.5q0 30 21 50.5t50 20.5z" />
    <glyph glyph-name="oslash" unicode="&#xf8;" horiz-adv-x="555" 
d="M555 493l-91 -94q65 -68 65 -173q0 -64 -26.5 -115t-73.5 -80q-71 -41 -152 -41q-82 0 -158 44l-65 -67h-57l91 94q-61 59 -61 167q0 135 100 200q65 42 151 42q88 0 154 -45l64 68h59zM207 181l136 154q-7 55 -22.5 79.5t-42.5 24.5q-32 0 -48 -34q-27 -56 -27 -152
q0 -13 4 -72zM348 282l-136 -154q6 -52 19 -78q15 -31 46 -31q32 0 49 34q26 52 26 145q0 13 -4 84z" />
    <glyph glyph-name="ugrave" unicode="&#xf9;" horiz-adv-x="546" 
d="M318 0v68q-59 -44 -97 -61t-77 -17q-44 0 -72 26q-21 21 -21 70v267q0 21 -6 30.5t-21 13.5v25q65 13 92.5 20.5t86.5 30.5h24v-350q0 -49 29 -49q28 0 62 33v246q0 37 -26 44v25q65 13 92.5 20.5t85.5 30.5h24v-406q0 -38 27 -54v-13h-203zM304 668l42 -145l-202 145
h160z" />
    <glyph glyph-name="uacute" unicode="&#xfa;" horiz-adv-x="546" 
d="M318 0v68q-59 -44 -97 -61t-77 -17q-44 0 -72 26q-21 21 -21 70v267q0 21 -6 30.5t-21 13.5v25q65 13 92.5 20.5t86.5 30.5h24v-350q0 -49 29 -49q28 0 62 33v246q0 37 -26 44v25q65 13 92.5 20.5t85.5 30.5h24v-406q0 -38 27 -54v-13h-203zM468 668l-199 -145l56 145
h143z" />
    <glyph glyph-name="ucircumflex" unicode="&#xfb;" horiz-adv-x="546" 
d="M318 0v68q-59 -44 -97 -61t-77 -17q-44 0 -72 26q-21 21 -21 70v267q0 21 -6 30.5t-21 13.5v25q65 13 92.5 20.5t86.5 30.5h24v-350q0 -49 29 -49q28 0 62 33v246q0 37 -26 44v25q65 13 92.5 20.5t85.5 30.5h24v-406q0 -38 27 -54v-13h-203zM340 667l73 -145l-125 87
l-121 -87l70 145h103z" />
    <glyph glyph-name="udieresis" unicode="&#xfc;" horiz-adv-x="546" 
d="M318 0v68q-59 -44 -97 -61t-77 -17q-44 0 -72 26q-21 21 -21 70v267q0 21 -6 30.5t-21 13.5v25q65 13 92.5 20.5t86.5 30.5h24v-350q0 -49 29 -49q28 0 62 33v246q0 37 -26 44v25q65 13 92.5 20.5t85.5 30.5h24v-406q0 -38 27 -54v-13h-203zM184 678q35 0 57.5 -19
t22.5 -48t-24 -48.5t-60 -19.5q-34 0 -56 19t-22 48t23.5 48.5t58.5 19.5zM404 678q35 0 57.5 -19t22.5 -48t-24 -48.5t-60 -19.5q-34 0 -56 19t-22 48t23.5 48.5t58.5 19.5z" />
    <glyph glyph-name="yacute" unicode="&#xfd;" horiz-adv-x="420" 
d="M202 0l-175 387q-18 39 -57 54v13h270v-13q-31 -13 -31 -33q0 -7 4 -21l75 -175l70 174q4 8 4 19q0 22 -45 36v13h146v-13q-27 -11 -41 -22.5t-23 -31.5l-208 -515q-21 -52 -47 -75t-64 -23q-36 0 -60 21t-24 51q0 23 17 39.5t42 16.5q18 0 28.5 -7t20.5 -26
q10 -17 20 -17q17 0 29 31zM422 668l-198 -145l56 145h142z" />
    <glyph glyph-name="thorn" unicode="&#xfe;" horiz-adv-x="544" 
d="M225 27v-173q0 -38 27 -54v-13h-230v13q27 16 27 54v707q0 21 -6 30.5t-21 13.5v25q65 13 92.5 20.5t86.5 30.5h24v-272q39 35 67.5 48t64.5 13q75 0 121 -63t46 -166q0 -112 -54.5 -182t-141.5 -70q-50 0 -103 38zM225 373v-266q0 -31 14 -50t37 -19q34 0 52 49t18 138
q0 81 -19 126t-53 45q-18 0 -49 -23z" />
    <glyph glyph-name="ydieresis" unicode="&#xff;" horiz-adv-x="420" 
d="M202 0l-175 387q-18 39 -57 54v13h270v-13q-31 -13 -31 -33q0 -7 4 -21l75 -175l70 174q4 8 4 19q0 22 -45 36v13h146v-13q-27 -11 -41 -22.5t-23 -31.5l-208 -515q-21 -52 -47 -75t-64 -23q-36 0 -60 21t-24 51q0 23 17 39.5t42 16.5q18 0 28.5 -7t20.5 -26
q10 -17 20 -17q17 0 29 31zM129 678q35 0 57.5 -19t22.5 -48t-24 -48.5t-60 -19.5q-34 0 -56 19t-22 48t23.5 48.5t58.5 19.5zM349 678q35 0 57.5 -19t22.5 -48t-24 -48.5t-60 -19.5q-34 0 -56 19t-22 48t23.5 48.5t58.5 19.5z" />
    <glyph glyph-name="Amacron" unicode="&#x100;" horiz-adv-x="605" 
d="M123 212l-42 -132q-4 -11 -4 -20q0 -32 62 -47v-13h-183v13q31 9 47.5 23.5t28.5 43.5l193 593h153l191 -593q17 -52 56 -67v-13h-277v13q31 12 31 40q0 10 -5 27l-42 132h-209zM141 257h177l-90 278zM124 745v65h356v-65h-356z" />
    <glyph glyph-name="amacron" unicode="&#x101;" horiz-adv-x="507" 
d="M485 46l19 -20q-55 -36 -110 -36q-92 0 -113 69q-50 -42 -79 -55.5t-70 -13.5q-56 0 -92 29.5t-36 75.5q0 68 95 121q58 30 182 77v106q0 40 -32 40q-17 0 -26.5 -10.5t-14.5 -35.5q-17 -79 -80 -79q-29 0 -49 16.5t-20 40.5q0 44 59.5 71.5t154.5 27.5q183 0 183 -117
v-296q0 -20 13 -20q7 0 16 9zM281 91v166q-54 -23 -74 -44q-30 -32 -30 -80q0 -29 13 -47.5t35 -18.5q23 0 56 24zM91 567v65h355v-65h-355z" />
    <glyph glyph-name="Abreve" unicode="&#x102;" horiz-adv-x="605" 
d="M123 212l-42 -132q-4 -11 -4 -20q0 -32 62 -47v-13h-183v13q31 9 47.5 23.5t28.5 43.5l193 593h153l191 -593q17 -52 56 -67v-13h-277v13q31 12 31 40q0 10 -5 27l-42 132h-209zM141 257h177l-90 278zM404 854h23q-1 -52 -17 -83q-15 -31 -44 -48.5t-64 -17.5t-64.5 17.5
t-43.5 48.5q-16 31 -17 83h23q8 -34 36 -55.5t66 -21.5t66 21.5t36 55.5z" />
    <glyph glyph-name="abreve" unicode="&#x103;" horiz-adv-x="507" 
d="M485 46l19 -20q-55 -36 -110 -36q-92 0 -113 69q-50 -42 -79 -55.5t-70 -13.5q-56 0 -92 29.5t-36 75.5q0 68 95 121q58 30 182 77v106q0 40 -32 40q-17 0 -26.5 -10.5t-14.5 -35.5q-17 -79 -80 -79q-29 0 -49 16.5t-20 40.5q0 44 59.5 71.5t154.5 27.5q183 0 183 -117
v-296q0 -20 13 -20q7 0 16 9zM281 91v166q-54 -23 -74 -44q-30 -32 -30 -80q0 -29 13 -47.5t35 -18.5q23 0 56 24zM373 675h23q-1 -53 -17 -84q-14 -31 -42.5 -49t-63.5 -18q-75 0 -107 67q-14 29 -17 84h24q7 -35 35 -56.5t65 -21.5t64.5 21.5t35.5 56.5z" />
    <glyph glyph-name="Aogonek" unicode="&#x104;" horiz-adv-x="605" 
d="M625 0h-64q-31 -35 -31 -78q0 -26 13.5 -42.5t35.5 -16.5q18 0 43 14l13 -21q-57 -40 -99 -40q-40 0 -67.5 25t-27.5 60q0 26 13.5 47t49.5 52h-156v13q31 12 31 40q0 10 -5 27l-42 132h-209l-42 -132q-4 -11 -4 -20q0 -32 62 -47v-13h-183v13q31 9 47.5 23.5t28.5 43.5
l193 593h153l191 -593q17 -52 56 -67v-13zM141 257h177l-90 278z" />
    <glyph glyph-name="aogonek" unicode="&#x105;" horiz-adv-x="507" 
d="M485 46l19 -20q-42 -27 -77 -33q-23 -31 -23 -69q0 -26 13 -42t33 -16q17 0 40 14l12 -20q-51 -40 -93 -40q-37 0 -62.5 24t-25.5 59q0 44 49 89q-74 10 -89 67q-50 -42 -79 -55.5t-70 -13.5q-56 0 -92 29.5t-36 75.5q0 68 95 121q58 30 182 77v106q0 40 -32 40
q-17 0 -26.5 -10.5t-14.5 -35.5q-17 -79 -80 -79q-29 0 -49 16.5t-20 40.5q0 44 59.5 71.5t154.5 27.5q183 0 183 -117v-296q0 -20 13 -20q7 0 16 9zM281 91v166q-54 -23 -74 -44q-30 -32 -30 -80q0 -29 13 -47.5t35 -18.5q23 0 56 24z" />
    <glyph glyph-name="Cacute" unicode="&#x106;" horiz-adv-x="593" 
d="M575 126l24 -18q-63 -67 -122.5 -96t-131.5 -29q-74 0 -142 34t-113 95q-66 88 -66 214q0 158 95.5 258t247.5 100q77 0 199 -44l-30 -141h-25q-13 64 -49 102q-46 49 -102 49q-68 0 -111.5 -71.5t-43.5 -183.5q0 -94 34 -185q60 -154 186 -154q41 0 75 16t75 54z
M508 847l-203 -142l61 142h142z" />
    <glyph glyph-name="cacute" unicode="&#x107;" horiz-adv-x="431" 
d="M405 120l22 -13q-38 -55 -74 -78q-61 -39 -129 -39q-86 0 -145.5 66t-59.5 163q0 107 64.5 179t161.5 72q67 0 114.5 -32.5t47.5 -78.5q0 -25 -18 -41t-46 -16q-37 0 -54 29q-9 18 -13 79q-4 28 -24 28q-27 0 -46 -48.5t-19 -118.5q0 -87 35.5 -139t94.5 -52q48 0 88 40z
M393 668l-199 -145l57 145h142z" />
    <glyph glyph-name="Ccaron" unicode="&#x10c;" horiz-adv-x="593" 
d="M575 126l24 -18q-63 -67 -122.5 -96t-131.5 -29q-74 0 -142 34t-113 95q-66 88 -66 214q0 158 95.5 258t247.5 100q77 0 199 -44l-30 -141h-25q-13 64 -49 102q-46 49 -102 49q-68 0 -111.5 -71.5t-43.5 -183.5q0 -94 34 -185q60 -154 186 -154q41 0 75 16t75 54z
M310 704l-76 143l129 -85l124 85l-74 -143h-103z" />
    <glyph glyph-name="ccaron" unicode="&#x10d;" horiz-adv-x="431" 
d="M405 120l22 -13q-38 -55 -74 -78q-61 -39 -129 -39q-86 0 -145.5 66t-59.5 163q0 107 64.5 179t161.5 72q67 0 114.5 -32.5t47.5 -78.5q0 -25 -18 -41t-46 -16q-37 0 -54 29q-9 18 -13 79q-4 28 -24 28q-27 0 -46 -48.5t-19 -118.5q0 -87 35.5 -139t94.5 -52q48 0 88 40z
M190 522l-72 146l125 -87l120 87l-70 -146h-103z" />
    <glyph glyph-name="Dcaron" unicode="&#x10e;" horiz-adv-x="738" 
d="M73 81v505q0 48 -40 66v15h97q35 0 86 4q72 5 116 5q175 0 279 -97t104 -259q0 -151 -87.5 -235.5t-243.5 -84.5h-351v15q40 19 40 66zM259 584v-503q0 -51 75 -51q90 0 137 76t47 222q0 182 -76 266q-21 23 -54 37.5t-65 14.5q-64 0 -64 -62zM292 704l-76 143l129 -85
l124 85l-74 -143h-103z" />
    <glyph glyph-name="dcaron" unicode="&#x10f;" horiz-adv-x="691" 
d="M318 0v52q-59 -62 -127 -62q-38 0 -73 18t-56 48q-43 59 -43 162q0 114 53 183t140 69q32 0 54 -7.5t52 -29.5v128q0 21 -6 30.5t-21 13.5v25q65 12 92 20t87 31h24v-614q0 -36 27 -54v-13h-203zM318 88v260q0 76 -51 76q-15 0 -26 -9q-43 -40 -43 -183q0 -169 73 -169
q18 0 47 25zM550 430l-12 26q64 56 64 82q0 14 -19 24q-23 13 -31 24.5t-8 32.5q0 29 20 47t52 18q33 0 53.5 -19.5t20.5 -51.5q0 -42 -40.5 -95t-99.5 -88z" />
    <glyph glyph-name="Dcroat" unicode="&#x110;" horiz-adv-x="744" 
d="M78 371v215q0 48 -40 66v15h97q35 0 86 4q72 5 117 5q175 0 279 -97t104 -259q0 -151 -87.5 -235.5t-243.5 -84.5h-352v15q40 19 40 66v240h-65v50h65zM264 371h93v-50h-93v-240q0 -51 76 -51q90 0 137 76t47 222q0 182 -76 266q-49 52 -120 52q-64 0 -64 -62v-213z" />
    <glyph glyph-name="dcroat" unicode="&#x111;" horiz-adv-x="549" 
d="M318 0v52q-59 -62 -127 -62q-37 0 -72.5 18t-56.5 48q-43 59 -43 162q0 114 53 183t141 69q32 0 53.5 -7.5t51.5 -29.5v72h-80v47h80v11q0 35 -27 42v25q65 12 92 20t87 31h24v-129h46v-47h-46v-438q0 -36 27 -54v-13h-203zM318 88v260q0 76 -51 76q-15 0 -26 -9
q-43 -41 -43 -183q0 -169 73 -169q18 0 47 25z" />
    <glyph glyph-name="Emacron" unicode="&#x112;" horiz-adv-x="595" 
d="M537 667l11 -127h-25q-14 33 -32 53q-44 47 -121 47h-36q-35 0 -50.5 -13.5t-15.5 -44.5v-196h70q49 0 74 17t30 55h23v-179h-23q-1 40 -25.5 57.5t-78.5 17.5h-70v-263q0 -41 18 -51q21 -12 72 -12h34q81 0 129 49q24 24 41 73l24 -10l-38 -140h-515v15q40 19 40 66v505
q0 47 -40 66v15h504zM120 745v65h355v-65h-355z" />
    <glyph glyph-name="emacron" unicode="&#x113;" horiz-adv-x="459" 
d="M424 121l20 -13q-59 -66 -107 -92.5t-108 -26.5q-93 0 -151.5 67.5t-58.5 175.5q0 116 74 181q63 57 145 57q53 0 100.5 -27t72.5 -71q26 -46 26 -122v-18h-242q7 -62 26 -90q17 -25 47 -39.5t64 -14.5q38 0 92 33zM191 271h63q27 0 36 12q12 17 12 57q0 47 -13.5 73
t-38.5 26q-32 0 -46 -40t-13 -128zM64 567v65h355v-65h-355z" />
    <glyph glyph-name="Edotaccent" unicode="&#x116;" horiz-adv-x="595" 
d="M537 667l11 -127h-25q-14 33 -32 53q-44 47 -121 47h-36q-35 0 -50.5 -13.5t-15.5 -44.5v-196h70q49 0 74 17t30 55h23v-179h-23q-1 40 -25.5 57.5t-78.5 17.5h-70v-263q0 -41 18 -51q21 -12 72 -12h34q81 0 129 49q24 24 41 73l24 -10l-38 -140h-515v15q40 19 40 66v505
q0 47 -40 66v15h504zM315 856q36 0 58.5 -19t22.5 -48t-24 -48.5t-61 -19.5q-34 0 -56 19t-22 48t23.5 48.5t58.5 19.5z" />
    <glyph glyph-name="edotaccent" unicode="&#x117;" horiz-adv-x="459" 
d="M424 121l20 -13q-59 -66 -107 -92.5t-108 -26.5q-93 0 -151.5 67.5t-58.5 175.5q0 116 74 181q63 57 145 57q53 0 100.5 -27t72.5 -71q26 -46 26 -122v-18h-242q7 -62 26 -90q17 -25 47 -39.5t64 -14.5q38 0 92 33zM191 271h63q27 0 36 12q12 17 12 57q0 47 -13.5 73
t-38.5 26q-32 0 -46 -40t-13 -128zM249 678q35 0 57.5 -19t22.5 -48t-24 -48.5t-60 -19.5q-34 0 -56 19t-22 48t23.5 48.5t58.5 19.5z" />
    <glyph glyph-name="Eogonek" unicode="&#x118;" horiz-adv-x="595" 
d="M548 0h-73q-31 -37 -31 -78q0 -26 13.5 -42.5t35.5 -16.5q18 0 43 14l13 -21q-57 -40 -100 -40q-39 0 -66.5 25t-27.5 60q0 26 13.5 47t49.5 52h-385v15q40 19 40 66v505q0 47 -40 66v15h504l11 -127h-25q-14 33 -32 53q-44 47 -121 47h-36q-35 0 -50.5 -13.5
t-15.5 -44.5v-196h70q49 0 74 17t30 55h23v-179h-23q-1 40 -25.5 57.5t-78.5 17.5h-70v-263q0 -41 18 -51q21 -12 72 -12h34q81 0 129 49q24 24 41 73l24 -10z" />
    <glyph glyph-name="eogonek" unicode="&#x119;" horiz-adv-x="459" 
d="M424 121l20 -13q-45 -48 -71.5 -69.5t-52.5 -31.5q-34 -41 -34 -82q0 -26 12.5 -42.5t32.5 -16.5q17 0 41 14l12 -20q-52 -40 -93 -40q-37 0 -62.5 24t-25.5 59q0 43 44 84l2 3q-9 -1 -20 -1q-94 0 -152 67.5t-58 175.5q0 116 74 181q63 57 145 57q53 0 100.5 -27
t72.5 -71q26 -46 26 -122v-18h-242q7 -62 26 -90q17 -25 47 -39.5t64 -14.5q38 0 92 33zM191 271h63q27 0 36 12q12 17 12 57q0 47 -13.5 73t-38.5 26q-32 0 -46 -40t-13 -128z" />
    <glyph glyph-name="Ecaron" unicode="&#x11a;" horiz-adv-x="595" 
d="M537 667l11 -127h-25q-14 33 -32 53q-44 47 -121 47h-36q-35 0 -50.5 -13.5t-15.5 -44.5v-196h70q49 0 74 17t30 55h23v-179h-23q-1 40 -25.5 57.5t-78.5 17.5h-70v-263q0 -41 18 -51q21 -12 72 -12h34q81 0 129 49q24 24 41 73l24 -10l-38 -140h-515v15q40 19 40 66v505
q0 47 -40 66v15h504zM260 704l-76 143l129 -85l124 85l-74 -143h-103z" />
    <glyph glyph-name="ecaron" unicode="&#x11b;" horiz-adv-x="459" 
d="M424 121l20 -13q-59 -66 -107 -92.5t-108 -26.5q-93 0 -151.5 67.5t-58.5 175.5q0 116 74 181q63 57 145 57q53 0 100.5 -27t72.5 -71q26 -46 26 -122v-18h-242q7 -62 26 -90q17 -25 47 -39.5t64 -14.5q38 0 92 33zM191 271h63q27 0 36 12q12 17 12 57q0 47 -13.5 73
t-38.5 26q-32 0 -46 -40t-13 -128zM193 522l-72 146l125 -87l121 87l-70 -146h-104z" />
    <glyph glyph-name="Gbreve" unicode="&#x11e;" horiz-adv-x="759" 
d="M733 70v-18q-118 -40 -186 -54.5t-144 -14.5q-169 0 -274 93.5t-105 244.5q0 153 112.5 258t276.5 105q91 0 259 -41l-30 -143h-27q-17 45 -32 67.5t-39 40.5q-59 45 -127 45q-79 0 -131 -66q-30 -36 -48 -110t-18 -160q0 -148 46.5 -225.5t135.5 -77.5q47 0 72.5 23.5
t25.5 67.5v196q0 47 -40 66v15h271v-15q-40 -19 -40 -66v-181q0 -40 42 -50zM508 854h24q-3 -54 -17 -83q-15 -31 -44 -48.5t-64 -17.5t-64.5 17.5t-44.5 48.5q-14 32 -17 83h24q7 -34 35.5 -55.5t66.5 -21.5t66 21.5t35 55.5z" />
    <glyph glyph-name="gbreve" unicode="&#x11f;" horiz-adv-x="482" 
d="M397 410q47 60 94 60q19 0 31 -13t12 -33q0 -21 -11.5 -34t-30.5 -13q-15 0 -33 10q-18 11 -24 11q-7 0 -18 -9q22 -40 22 -77q0 -71 -59 -117t-150 -46q-21 0 -38 2q-30 -14 -30 -33q0 -17 23 -24q12 -4 187 -32q127 -21 127 -122q0 -78 -74 -125.5t-195 -47.5
q-101 0 -166.5 31t-65.5 78q0 66 123 106q-41 11 -66 31.5t-25 45.5q0 27 29.5 50t94.5 47q-50 13 -81 38q-57 45 -57 115t61 115.5t155 45.5q52 0 88.5 -13.5t76.5 -46.5zM230 439q-27 0 -43 -35t-16 -96q0 -127 58 -127q57 0 57 135q0 123 -56 123zM166 -32
q-35 -22 -49 -39.5t-14 -39.5q0 -38 38 -62.5t97 -24.5q55 0 86.5 21.5t31.5 58.5q0 31 -20.5 45.5t-72.5 21.5q-54 8 -97 19zM337 675h23q-1 -53 -17 -84q-14 -31 -42.5 -49t-63.5 -18q-75 0 -107 67q-14 29 -17 84h24q7 -35 35 -56.5t65 -21.5t65 21.5t35 56.5z" />
    <glyph glyph-name="Gcommaaccent" unicode="&#x122;" horiz-adv-x="759" 
d="M733 70v-18q-118 -40 -186 -54.5t-144 -14.5q-169 0 -274 93.5t-105 244.5q0 153 112.5 258t276.5 105q91 0 259 -41l-30 -143h-27q-17 45 -32 67.5t-39 40.5q-59 45 -127 45q-79 0 -131 -66q-30 -36 -48 -110t-18 -160q0 -148 46.5 -225.5t135.5 -77.5q47 0 72.5 23.5
t25.5 67.5v196q0 47 -40 66v15h271v-15q-40 -19 -40 -66v-181q0 -40 42 -50zM313 -293l-12 26q66 50 66 78q0 13 -20 23q-23 11 -31.5 22.5t-8.5 31.5q0 28 21 45t54 17q34 0 55.5 -19t21.5 -49q0 -40 -42.5 -90.5t-103.5 -84.5z" />
    <glyph glyph-name="gcommaaccent" unicode="&#x123;" horiz-adv-x="482" 
d="M397 410q47 60 94 60q19 0 31 -13t12 -33q0 -21 -11.5 -34t-30.5 -13q-15 0 -33 10q-18 11 -24 11q-7 0 -18 -9q22 -40 22 -77q0 -71 -59 -117t-150 -46q-21 0 -38 2q-30 -14 -30 -33q0 -17 23 -24q12 -4 187 -32q127 -21 127 -122q0 -78 -74 -125.5t-195 -47.5
q-101 0 -166.5 31t-65.5 78q0 66 123 106q-41 11 -66 31.5t-25 45.5q0 27 29.5 50t94.5 47q-50 13 -81 38q-57 45 -57 115t61 115.5t155 45.5q52 0 88.5 -13.5t76.5 -46.5zM230 439q-27 0 -43 -35t-16 -96q0 -127 58 -127q57 0 57 135q0 123 -56 123zM166 -32
q-35 -22 -49 -39.5t-14 -39.5q0 -38 38 -62.5t97 -24.5q55 0 86.5 21.5t31.5 58.5q0 31 -20.5 45.5t-72.5 21.5q-54 8 -97 19zM309 735l12 -24q-64 -48 -64 -75q0 -13 19 -22q22 -11 30 -22t8 -30q0 -26 -20 -43t-52 -17q-33 0 -53.5 18t-20.5 47q0 39 40.5 87.5t100.5 80.5
z" />
    <glyph glyph-name="Imacron" unicode="&#x12a;" horiz-adv-x="353" 
d="M274 586v-505q0 -47 40 -66v-15h-276v15q40 19 40 66v505q0 48 -40 66v15h276v-15q-40 -18 -40 -66zM-1 745v65h355v-65h-355z" />
    <glyph glyph-name="imacron" unicode="&#x12b;" horiz-adv-x="289" 
d="M28 397v25q66 13 93.5 20.5t85.5 30.5h24v-406q0 -38 27 -54v-13h-230v13q27 16 27 54v286q0 21 -6 30.5t-21 13.5zM-19 567v65h319v-65h-319z" />
    <glyph glyph-name="Iogonek" unicode="&#x12e;" horiz-adv-x="353" 
d="M315 0h-71q-31 -37 -31 -78q0 -26 13.5 -42.5t35.5 -16.5q18 0 43 14l13 -21q-57 -40 -100 -40q-39 0 -66.5 25t-27.5 60q0 26 13.5 47t49.5 52h-148v15q40 19 40 66v505q0 48 -40 66v15h276v-15q-40 -18 -40 -66v-505q0 -47 40 -66v-15z" />
    <glyph glyph-name="iogonek" unicode="&#x12f;" horiz-adv-x="289" 
d="M258 0h-70q-29 -36 -29 -75q0 -26 13 -42.5t33 -16.5q17 0 40 14l12 -20q-51 -40 -93 -40q-37 0 -62.5 24t-25.5 59q0 26 11.5 45.5t46.5 51.5h-106v13q27 16 27 54v286q0 21 -6 30.5t-21 13.5v25q66 13 93.5 20.5t85.5 30.5h24v-406q0 -38 27 -54v-13zM136 677
q43 0 67.5 -17t24.5 -46t-25 -46t-69 -17t-68 17t-24 48q0 28 25 44.5t69 16.5z" />
    <glyph glyph-name="Idotaccent" unicode="&#x130;" horiz-adv-x="353" 
d="M275 586v-505q0 -47 40 -66v-15h-276v15q40 19 40 66v505q0 48 -40 66v15h276v-15q-40 -18 -40 -66zM178 856q35 0 57.5 -19t22.5 -48t-24 -48.5t-60 -19.5q-34 0 -56 19t-22 48t23.5 48.5t58.5 19.5z" />
    <glyph glyph-name="dotlessi" unicode="&#x131;" horiz-adv-x="289" 
d="M28 397v25q66 13 93.5 20.5t85.5 30.5h24v-406q0 -38 27 -54v-13h-230v13q27 16 27 54v286q0 21 -6 30.5t-21 13.5z" />
    <glyph glyph-name="Kcommaaccent" unicode="&#x136;" horiz-adv-x="688" 
d="M416 436l228 -357q31 -49 67 -67v-12h-297v12q34 12 34 34q0 14 -12 33l-131 223l-35 -45v-176q0 -47 40 -66v-15h-277v15q40 19 40 66v505q0 48 -40 66v15h277v-15q-40 -19 -40 -66v-256l209 257q15 17 15 33q0 12 -10 19t-37 15v13h183v-13q-50 -18 -91 -67zM278 -293
l-13 26q67 51 67 78q0 13 -20 23q-23 11 -31.5 22.5t-8.5 31.5q0 28 21 45t54 17q34 0 55.5 -19t21.5 -49q0 -40 -42.5 -90.5t-103.5 -84.5z" />
    <glyph glyph-name="kcommaaccent" unicode="&#x137;" horiz-adv-x="535" 
d="M368 332l144 -264q20 -36 47 -53v-15h-255v15q21 12 21 28q0 9 -7 25l-71 143l-20 -20v-124q0 -38 27 -54v-13h-230v13q27 18 27 54v494q0 21 -6 30.5t-21 13.5v25q65 13 92.5 20.5t86.5 30.5h24v-440l139 147q10 10 10 20q0 11 -11.5 18t-39.5 15v13h184v-13
q-49 -16 -86 -53zM203 -288l-12 25q64 48 64 74q0 13 -19 22q-22 11 -30.5 22t-8.5 30q0 27 20.5 43.5t52.5 16.5t53 -18.5t21 -46.5q0 -38 -40.5 -87t-100.5 -81z" />
    <glyph glyph-name="Lacute" unicode="&#x139;" horiz-adv-x="542" 
d="M529 150l26 -10l-33 -140h-490v15q40 19 40 66v505q0 48 -40 66v15h277v-15q-40 -18 -40 -66v-496q0 -36 16.5 -49.5t60.5 -13.5h22q66 0 115 47q23 23 46 76zM369 847l-204 -142l61 142h143z" />
    <glyph glyph-name="lacute" unicode="&#x13a;" horiz-adv-x="277" 
d="M24 605v25q65 13 92.5 20.5t85.5 30.5h24v-614q0 -38 27 -54v-13h-230v13q27 16 27 54v494q0 21 -5.5 30.5t-20.5 13.5zM287 847l-204 -142l61 142h143z" />
    <glyph glyph-name="Lcommaaccent" unicode="&#x13b;" horiz-adv-x="542" 
d="M529 150l26 -10l-33 -140h-490v15q40 19 40 66v505q0 48 -40 66v15h277v-15q-40 -18 -40 -66v-496q0 -36 16.5 -49.5t60.5 -13.5h22q66 0 115 47q23 23 46 76zM204 -293l-13 26q67 51 67 78q0 13 -20 23q-23 11 -31.5 22.5t-8.5 31.5q0 28 21 45t54 17q34 0 55.5 -19
t21.5 -49q0 -40 -42.5 -90.5t-103.5 -84.5z" />
    <glyph glyph-name="lcommaaccent" unicode="&#x13c;" horiz-adv-x="277" 
d="M24 605v25q65 13 92.5 20.5t85.5 30.5h24v-614q0 -38 27 -54v-13h-230v13q27 16 27 54v494q0 21 -5.5 30.5t-20.5 13.5zM74 -288l-12 25q64 48 64 74q0 13 -19 22q-23 11 -31 22t-8 30q0 27 20.5 43.5t52.5 16.5t53 -18.5t21 -46.5q0 -38 -40.5 -87t-100.5 -81z" />
    <glyph glyph-name="Lcaron" unicode="&#x13d;" horiz-adv-x="542" 
d="M529 150l26 -10l-33 -140h-490v15q40 19 40 66v505q0 48 -40 66v15h277v-15q-40 -18 -40 -66v-496q0 -36 16.5 -49.5t60.5 -13.5h22q66 0 115 47q23 23 46 76zM358 414l-14 28q74 57 74 87q0 15 -22 26q-26 13 -35.5 25.5t-9.5 34.5q0 31 23 50t60 19q38 0 62 -21t24 -54
q0 -45 -47 -101t-115 -94z" />
    <glyph glyph-name="lcaron" unicode="&#x13e;" horiz-adv-x="420" 
d="M24 605v25q65 13 92.5 20.5t85.5 30.5h24v-614q0 -38 27 -54v-13h-230v13q27 16 27 54v494q0 21 -5.5 30.5t-20.5 13.5zM279 430l-12 26q64 54 64 82q0 14 -19 24q-22 13 -30 24.5t-8 32.5q0 29 20 47t52 18q33 0 53.5 -19.5t20.5 -51.5q0 -42 -40.5 -95t-100.5 -88z" />
    <glyph glyph-name="Lslash" unicode="&#x141;" horiz-adv-x="547" 
d="M78 255l-60 -54v67l60 54v264q0 48 -40 66v15h277v-15q-40 -18 -40 -66v-120l84 77v-66l-84 -77v-310q0 -36 16.5 -49.5t60.5 -13.5h22q67 0 114 47q24 22 47 76l25 -10l-33 -140h-489v15q40 19 40 66v174z" />
    <glyph glyph-name="lslash" unicode="&#x142;" horiz-adv-x="279" 
d="M51 273l-52 -47v64l52 47v224q0 21 -5.5 30.5t-20.5 13.5v25q65 13 92.5 20.5t85.5 30.5h24v-210l52 47v-63l-52 -50v-338q0 -38 27 -54v-13h-230v13q27 16 27 54v206z" />
    <glyph glyph-name="Nacute" unicode="&#x143;" horiz-adv-x="721" 
d="M639 0h-178l-332 513v-429q0 -32 12 -46.5t45 -22.5v-15h-161v15q33 8 45 22.5t12 46.5v499q0 32 -12 46.5t-45 22.5v15h233l333 -511v427q0 32 -12 46.5t-45 22.5v15h162v-15q-33 -8 -45 -22.5t-12 -46.5v-583zM530 847l-203 -142l61 142h142z" />
    <glyph glyph-name="nacute" unicode="&#x144;" horiz-adv-x="547" 
d="M227 473v-82q56 39 76 50q50 29 97 29q95 0 95 -90v-313q0 -36 27 -54v-13h-228v13q27 16 27 54v272q0 26 -7 37t-23 11q-25 0 -64 -28v-292q0 -38 27 -54v-13h-230v13q27 16 27 54v287q0 36 -26 43v25q65 13 92.5 20.5t85.5 30.5h24zM443 668l-199 -145l56 145h143z" />
    <glyph glyph-name="Ncommaaccent" unicode="&#x145;" horiz-adv-x="721" 
d="M639 0h-178l-332 513v-429q0 -32 12 -46.5t45 -22.5v-15h-161v15q33 8 45 22.5t12 46.5v499q0 32 -12 46.5t-45 22.5v15h233l333 -511v427q0 32 -12 46.5t-45 22.5v15h162v-15q-33 -8 -45 -22.5t-12 -46.5v-583zM294 -293l-13 26q67 51 67 78q0 13 -20 23
q-23 11 -31.5 22.5t-8.5 31.5q0 28 21 45t54 17q34 0 55.5 -19t21.5 -49q0 -40 -42.5 -90.5t-103.5 -84.5z" />
    <glyph glyph-name="ncommaaccent" unicode="&#x146;" horiz-adv-x="547" 
d="M227 473v-82q56 39 76 50q50 29 97 29q95 0 95 -90v-313q0 -36 27 -54v-13h-228v13q27 16 27 54v272q0 26 -7 37t-23 11q-25 0 -64 -28v-292q0 -38 27 -54v-13h-230v13q27 16 27 54v287q0 36 -26 43v25q65 13 92.5 20.5t85.5 30.5h24zM209 -288l-12 25q64 48 64 74
q0 13 -19 22q-22 11 -30.5 22t-8.5 30q0 27 20.5 43.5t52.5 16.5t53 -18.5t21 -46.5q0 -38 -40.5 -87t-100.5 -81z" />
    <glyph glyph-name="Ncaron" unicode="&#x147;" horiz-adv-x="721" 
d="M639 0h-178l-332 513v-429q0 -32 12 -46.5t45 -22.5v-15h-161v15q33 8 45 22.5t12 46.5v499q0 32 -12 46.5t-45 22.5v15h233l333 -511v427q0 32 -12 46.5t-45 22.5v15h162v-15q-33 -8 -45 -22.5t-12 -46.5v-583zM319 704l-76 143l128 -85l125 85l-74 -143h-103z" />
    <glyph glyph-name="ncaron" unicode="&#x148;" horiz-adv-x="547" 
d="M227 473v-82q56 39 76 50q50 29 97 29q95 0 95 -90v-313q0 -36 27 -54v-13h-228v13q27 16 27 54v272q0 26 -7 37t-23 11q-25 0 -64 -28v-292q0 -38 27 -54v-13h-230v13q27 16 27 54v287q0 36 -26 43v25q65 13 92.5 20.5t85.5 30.5h24zM238 522l-73 146l125 -87l121 87
l-70 -146h-103z" />
    <glyph glyph-name="Omacron" unicode="&#x14c;" horiz-adv-x="756" 
d="M378 684q79 0 150.5 -31.5t120.5 -87.5q83 -94 83 -232q0 -151 -101 -250.5t-254 -99.5q-119 0 -215 68q-67 46 -102.5 121t-35.5 169q0 145 102.5 244t251.5 99zM375 654q-68 0 -111 -87.5t-43 -226.5q0 -155 42 -241t118 -86q71 0 112.5 86.5t41.5 232.5q0 150 -43 236
t-117 86zM201 745v65h355v-65h-355z" />
    <glyph glyph-name="omacron" unicode="&#x14d;" horiz-adv-x="541" 
d="M270 470q84 0 151 -42q100 -62 100 -198q0 -139 -100 -199q-69 -41 -151 -41t-151 41q-100 59 -100 202q0 63 26.5 114.5t73.5 80.5q67 42 151 42zM270 440q-75 0 -75 -210q0 -211 75 -211t75 207q0 214 -75 214zM93 567v65h355v-65h-355z" />
    <glyph glyph-name="Ohungarumlaut" unicode="&#x150;" horiz-adv-x="756" 
d="M378 684q79 0 150.5 -31.5t120.5 -87.5q83 -94 83 -232q0 -151 -101 -250.5t-254 -99.5q-119 0 -215 68q-67 46 -102.5 121t-35.5 169q0 145 102.5 244t251.5 99zM375 654q-68 0 -111 -87.5t-43 -226.5q0 -155 42 -241t118 -86q71 0 112.5 86.5t41.5 232.5q0 150 -43 236
t-117 86zM450 845l-183 -129l55 129h128zM619 845l-182 -129l54 129h128z" />
    <glyph glyph-name="ohungarumlaut" unicode="&#x151;" horiz-adv-x="541" 
d="M270 470q84 0 151 -42q100 -62 100 -198q0 -139 -100 -199q-69 -41 -151 -41t-151 41q-100 59 -100 202q0 63 26.5 114.5t73.5 80.5q67 42 151 42zM270 440q-75 0 -75 -210q0 -211 75 -211t75 207q0 214 -75 214zM342 667l-179 -131l51 131h128zM511 667l-179 -131
l51 131h128z" />
    <glyph glyph-name="OE" unicode="&#x152;" horiz-adv-x="1035" 
d="M997 0h-433q-25 0 -85 -9q-59 -8 -101 -8q-153 0 -253 100t-100 253q0 149 100 248.5t249 99.5q52 0 108 -9q59 -8 78 -8h423l14 -127h-27q-43 96 -148 96h-33q-38 0 -53.5 -11t-15.5 -37v-204h70q46 0 69 17.5t30 55.5h25v-179h-25q-5 41 -27.5 57.5t-72.5 16.5h-69
v-272q0 -27 22 -39t71 -12h28q62 0 97 21.5t67 79.5l24 -8zM517 281v103q0 125 -37 197t-101 72q-70 0 -107 -79q-43 -90 -43 -239q0 -160 46 -246q19 -35 48.5 -55.5t60.5 -20.5q28 0 53 16t38 43q42 79 42 209z" />
    <glyph glyph-name="oe" unicode="&#x153;" horiz-adv-x="784" 
d="M749 122l21 -14q-46 -51 -86 -77q-68 -41 -128 -41q-78 0 -134 53q-77 -53 -161 -53q-107 0 -174.5 66t-67.5 169q0 107 70.5 176t179.5 69q100 0 158 -51q59 52 135 52q62 0 111.5 -31t70.5 -83q18 -43 19 -120h-243q4 -49 15 -76.5t35 -46.5q36 -28 83 -28q48 0 96 36z
M516 275h68q41 0 41 58q0 107 -51 107q-31 0 -45 -33t-14 -108q0 -13 1 -24zM269 441q-38 0 -55.5 -50t-17.5 -159q0 -111 17.5 -161t56.5 -50q74 0 74 215q0 98 -19.5 151.5t-55.5 53.5z" />
    <glyph glyph-name="Racute" unicode="&#x154;" horiz-adv-x="678" 
d="M681 -47v-24q-134 34 -234 125q-55 53 -81.5 102.5t-54.5 151.5q-9 -1 -18 -1q-12 0 -24 2v-228q0 -47 40 -66v-15h-276v15q40 19 40 66v505q0 47 -40 66v15h81q35 0 94 4q85 5 148 5q144 0 218.5 -46.5t74.5 -137.5q0 -77 -56 -125q-30 -26 -101 -49q41 -146 93 -246
t96 -119zM269 575v-232q28 -2 38 -2q71 0 109 38t38 109q0 70 -42 116q-38 41 -82 41q-61 0 -61 -70zM477 847l-203 -142l61 142h142z" />
    <glyph glyph-name="racute" unicode="&#x155;" horiz-adv-x="380" 
d="M228 358v-291q0 -36 27 -54v-13h-230v13q27 16 27 54v286q0 21 -6 30.5t-21 13.5v25q65 13 92.5 20.5t86.5 30.5h24v-77q46 74 105 74q29 0 48.5 -17.5t19.5 -44.5t-18.5 -45.5t-45.5 -18.5q-14 0 -22 3.5t-29 20.5q-13 10 -24 10q-20 0 -34 -20zM362 668l-199 -145
l56 145h143z" />
    <glyph glyph-name="Rcommaaccent" unicode="&#x156;" horiz-adv-x="678" 
d="M681 -47v-24q-134 34 -234 125q-55 53 -81.5 102.5t-54.5 151.5q-9 -1 -18 -1q-12 0 -24 2v-228q0 -47 40 -66v-15h-276v15q40 19 40 66v505q0 47 -40 66v15h81q35 0 94 4q85 5 148 5q144 0 218.5 -46.5t74.5 -137.5q0 -77 -56 -125q-30 -26 -101 -49q41 -146 93 -246
t96 -119zM269 575v-232q28 -2 38 -2q71 0 109 38t38 109q0 70 -42 116q-38 41 -82 41q-61 0 -61 -70zM273 -293l-13 26q67 51 67 78q0 13 -20 23q-23 11 -31.5 22.5t-8.5 31.5q0 28 21 45t54 17q34 0 55.5 -19t21.5 -49q0 -40 -42.5 -90.5t-103.5 -84.5z" />
    <glyph glyph-name="rcommaaccent" unicode="&#x157;" horiz-adv-x="380" 
d="M228 358v-291q0 -36 27 -54v-13h-230v13q27 16 27 54v286q0 21 -6 30.5t-21 13.5v25q65 13 92.5 20.5t86.5 30.5h24v-77q46 74 105 74q29 0 48.5 -17.5t19.5 -44.5t-18.5 -45.5t-45.5 -18.5q-14 0 -22 3.5t-29 20.5q-13 10 -24 10q-20 0 -34 -20zM76 -288l-13 25
q64 49 64 74q0 13 -19 22q-22 11 -30 22t-8 30q0 27 20 43.5t52 16.5q33 0 53.5 -18t20.5 -47q0 -38 -40.5 -86.5t-99.5 -81.5z" />
    <glyph glyph-name="Rcaron" unicode="&#x158;" horiz-adv-x="678" 
d="M681 -47v-24q-134 34 -234 125q-55 53 -81.5 102.5t-54.5 151.5q-9 -1 -18 -1q-12 0 -24 2v-228q0 -47 40 -66v-15h-276v15q40 19 40 66v505q0 47 -40 66v15h81q35 0 94 4q85 5 148 5q144 0 218.5 -46.5t74.5 -137.5q0 -77 -56 -125q-30 -26 -101 -49q41 -146 93 -246
t96 -119zM269 575v-232q28 -2 38 -2q71 0 109 38t38 109q0 70 -42 116q-38 41 -82 41q-61 0 -61 -70zM270 704l-76 143l129 -85l124 85l-74 -143h-103z" />
    <glyph glyph-name="rcaron" unicode="&#x159;" horiz-adv-x="380" 
d="M228 358v-291q0 -36 27 -54v-13h-230v13q27 16 27 54v286q0 21 -6 30.5t-21 13.5v25q65 13 92.5 20.5t86.5 30.5h24v-77q46 74 105 74q29 0 48.5 -17.5t19.5 -44.5t-18.5 -45.5t-45.5 -18.5q-14 0 -22 3.5t-29 20.5q-13 10 -24 10q-20 0 -34 -20zM148 522l-72 146
l125 -87l120 87l-70 -146h-103z" />
    <glyph glyph-name="Sacute" unicode="&#x15a;" horiz-adv-x="575" 
d="M489 486h-28q-8 67 -40 107q-48 58 -121 58q-50 0 -82 -28.5t-32 -72.5q0 -49 36 -80.5t136 -71.5q120 -48 160 -88t40 -113q0 -94 -73 -154t-187 -60q-130 0 -280 77l31 150l29 -4v-10q0 -64 33 -109q23 -31 65 -50t88 -19q51 0 83.5 28.5t32.5 73.5t-36.5 79.5
t-121.5 71.5q-97 41 -131 70q-62 53 -62 142q0 93 67.5 147t183.5 54q58 0 103 -11t133 -47zM436 847l-203 -142l61 142h142z" />
    <glyph glyph-name="sacute" unicode="&#x15b;" horiz-adv-x="421" 
d="M349 320l-23 8q2 16 2 19q0 38 -29 65t-69 27q-27 0 -44 -14.5t-17 -38.5q0 -43 81 -86q65 -34 88 -48.5t39 -31.5q34 -37 34 -80q0 -64 -56.5 -107t-142.5 -43q-48 0 -90 13.5t-111 50.5l30 106l22 -7v-13q0 -47 32.5 -80.5t78.5 -33.5q29 0 48.5 16t19.5 41
q0 27 -26 48q-13 10 -85 49q-107 58 -107 144q0 76 72 117q56 29 120 29q65 0 163 -44zM367 668l-198 -145l56 145h142z" />
    <glyph glyph-name="Scedilla" unicode="&#x15e;" horiz-adv-x="575" 
d="M287 -17l-6 -43q49 -1 73 -24q22 -20 22 -52q0 -36 -27.5 -59t-70.5 -23q-37 0 -78 27l11 11q19 -9 32 -9q25 0 42 17t17 42q0 48 -54 48h-16l11 69q-110 13 -225 73l31 150l29 -4v-10q0 -64 33 -109q23 -31 65 -50t88 -19q51 0 83.5 28.5t32.5 73.5t-36.5 79.5
t-121.5 71.5q-97 41 -131 70q-62 53 -62 142q0 93 67.5 147t183.5 54q58 0 103 -11t133 -47l-27 -140h-28q-8 67 -40 107q-48 58 -121 58q-50 0 -82 -28.5t-32 -72.5q0 -49 36 -80.5t136 -71.5q120 -48 160 -88t40 -113q0 -94 -73 -154t-186 -60h-12z" />
    <glyph glyph-name="Scedilla" unicode="&#xf6c1;" horiz-adv-x="575" 
d="M287 -17l-6 -43q49 -1 73 -24q22 -20 22 -52q0 -36 -27.5 -59t-70.5 -23q-37 0 -78 27l11 11q19 -9 32 -9q25 0 42 17t17 42q0 48 -54 48h-16l11 69q-110 13 -225 73l31 150l29 -4v-10q0 -64 33 -109q23 -31 65 -50t88 -19q51 0 83.5 28.5t32.5 73.5t-36.5 79.5
t-121.5 71.5q-97 41 -131 70q-62 53 -62 142q0 93 67.5 147t183.5 54q58 0 103 -11t133 -47l-27 -140h-28q-8 67 -40 107q-48 58 -121 58q-50 0 -82 -28.5t-32 -72.5q0 -49 36 -80.5t136 -71.5q120 -48 160 -88t40 -113q0 -94 -73 -154t-186 -60h-12z" />
    <glyph glyph-name="scedilla" unicode="&#x15f;" horiz-adv-x="421" 
d="M210 -10l-6 -39q95 -3 95 -70q0 -34 -28 -55.5t-71 -21.5q-35 0 -77 24l11 10q18 -6 32 -6q25 0 42 15.5t17 38.5q0 45 -54 45q-10 0 -16 -1l10 64q-35 5 -66 17.5t-88 43.5l30 106l22 -8v-13q0 -47 32.5 -80.5t78.5 -33.5q29 0 48.5 16t19.5 41q0 27 -26 48
q-13 10 -85 49q-107 58 -107 144q0 76 72 117q56 29 120 29q65 0 163 -44l-30 -106l-23 8q2 16 2 19q0 38 -29 65t-69 27q-27 0 -44 -14.5t-17 -38.5q0 -43 81 -86q64 -33 87.5 -48t39.5 -32q34 -37 34 -80q0 -65 -57 -107.5t-144 -42.5z" />
    <glyph glyph-name="scedilla" unicode="&#xf6c2;" horiz-adv-x="421" 
d="M210 -10l-6 -39q95 -3 95 -70q0 -34 -28 -55.5t-71 -21.5q-35 0 -77 24l11 10q18 -6 32 -6q25 0 42 15.5t17 38.5q0 45 -54 45q-10 0 -16 -1l10 64q-35 5 -66 17.5t-88 43.5l30 106l22 -8v-13q0 -47 32.5 -80.5t78.5 -33.5q29 0 48.5 16t19.5 41q0 27 -26 48
q-13 10 -85 49q-107 58 -107 144q0 76 72 117q56 29 120 29q65 0 163 -44l-30 -106l-23 8q2 16 2 19q0 38 -29 65t-69 27q-27 0 -44 -14.5t-17 -38.5q0 -43 81 -86q64 -33 87.5 -48t39.5 -32q34 -37 34 -80q0 -65 -57 -107.5t-144 -42.5z" />
    <glyph glyph-name="Scaron" unicode="&#x160;" horiz-adv-x="575" 
d="M489 486h-28q-8 67 -40 107q-48 58 -121 58q-50 0 -82 -28.5t-32 -72.5q0 -49 36 -80.5t136 -71.5q120 -48 160 -88t40 -113q0 -94 -73 -154t-187 -60q-130 0 -280 77l31 150l29 -4v-10q0 -64 33 -109q23 -31 65 -50t88 -19q51 0 83.5 28.5t32.5 73.5t-36.5 79.5
t-121.5 71.5q-97 41 -131 70q-62 53 -62 142q0 93 67.5 147t183.5 54q58 0 103 -11t133 -47zM238 704l-76 143l128 -85l124 85l-73 -143h-103z" />
    <glyph glyph-name="scaron" unicode="&#x161;" horiz-adv-x="421" 
d="M349 320l-23 8q2 16 2 19q0 38 -29 65t-69 27q-27 0 -44 -14.5t-17 -38.5q0 -43 81 -86q65 -34 88 -48.5t39 -31.5q34 -37 34 -80q0 -64 -56.5 -107t-142.5 -43q-48 0 -90 13.5t-111 50.5l30 106l22 -7v-13q0 -47 32.5 -80.5t78.5 -33.5q29 0 48.5 16t19.5 41
q0 27 -26 48q-13 10 -85 49q-107 58 -107 144q0 76 72 117q56 29 120 29q65 0 163 -44zM164 522l-72 146l125 -87l120 87l-70 -146h-103z" />
    <glyph glyph-name="Tcommaaccent" unicode="&#x162;" horiz-adv-x="649" 
d="M664 520l-28 -6q-62 108 -153 108q-31 0 -45 -14.5t-14 -46.5v-480q0 -47 40 -66v-15h-275v15q40 19 40 66v486q0 55 -60 55q-101 0 -158 -108l-26 6l37 147h605zM258 -293l-12 26q66 50 66 78q0 13 -20 23q-23 11 -31.5 22.5t-8.5 31.5q0 28 21 45t54 17q34 0 55.5 -19
t21.5 -49q0 -40 -42.5 -90.5t-103.5 -84.5z" />
    <glyph glyph-name="Tcommaaccent" unicode="&#x21a;" horiz-adv-x="649" 
d="M664 520l-28 -6q-62 108 -153 108q-31 0 -45 -14.5t-14 -46.5v-480q0 -47 40 -66v-15h-275v15q40 19 40 66v486q0 55 -60 55q-101 0 -158 -108l-26 6l37 147h605zM258 -293l-12 26q66 50 66 78q0 13 -20 23q-23 11 -31.5 22.5t-8.5 31.5q0 28 21 45t54 17q34 0 55.5 -19
t21.5 -49q0 -40 -42.5 -90.5t-103.5 -84.5z" />
    <glyph glyph-name="tcommaaccent" unicode="&#x163;" horiz-adv-x="308" 
d="M304 418h-74v-342q0 -34 20 -34q17 0 33 20l23 -17q-32 -30 -61.5 -42.5t-70.5 -12.5q-55 0 -91 24q-29 17 -29 65v339h-55v36q71 27 118.5 67t85.5 104h27v-171h74v-36zM90 -288l-12 25q64 48 64 74q0 13 -19 22q-23 11 -31 22t-8 30q0 27 20.5 43.5t52.5 16.5t53 -18.5
t21 -46.5q0 -38 -40.5 -87t-100.5 -81z" />
    <glyph glyph-name="tcommaaccent" unicode="&#x21b;" horiz-adv-x="308" 
d="M304 418h-74v-342q0 -34 20 -34q17 0 33 20l23 -17q-32 -30 -61.5 -42.5t-70.5 -12.5q-55 0 -91 24q-29 17 -29 65v339h-55v36q71 27 118.5 67t85.5 104h27v-171h74v-36zM90 -288l-12 25q64 48 64 74q0 13 -19 22q-23 11 -31 22t-8 30q0 27 20.5 43.5t52.5 16.5t53 -18.5
t21 -46.5q0 -38 -40.5 -87t-100.5 -81z" />
    <glyph glyph-name="Tcaron" unicode="&#x164;" horiz-adv-x="649" 
d="M664 520l-28 -6q-62 108 -153 108q-31 0 -45 -14.5t-14 -46.5v-480q0 -47 40 -66v-15h-275v15q40 19 40 66v486q0 55 -60 55q-101 0 -158 -108l-26 6l37 147h605zM275 704l-76 143l128 -85l124 85l-73 -143h-103z" />
    <glyph glyph-name="tcaron" unicode="&#x165;" horiz-adv-x="422" 
d="M304 418h-74v-342q0 -34 20 -34q17 0 33 20l23 -17q-32 -30 -61.5 -42.5t-70.5 -12.5q-55 0 -91 24q-29 17 -29 65v339h-55v36q71 27 118.5 67t85.5 104h27v-171h74v-36zM289 517l-12 26q64 54 64 82q0 15 -19 24q-23 12 -31 24t-8 33q0 29 20 47t52 18q33 0 53.5 -19.5
t20.5 -51.5q0 -42 -40.5 -95t-99.5 -88z" />
    <glyph glyph-name="Umacron" unicode="&#x16a;" horiz-adv-x="700" 
d="M264 586v-389q0 -82 18 -117q35 -62 132 -62q86 0 132 51t46 145v369q0 32 -12 46.5t-45 22.5v15h161v-15q-33 -8 -45 -22.5t-12 -46.5v-354q0 -119 -51 -176q-63 -70 -196 -70q-144 0 -236 50q-88 50 -88 172v381q0 48 -40 66v15h276v-15q-40 -18 -40 -66zM195 745v65
h355v-65h-355z" />
    <glyph glyph-name="umacron" unicode="&#x16b;" horiz-adv-x="546" 
d="M318 0v68q-59 -44 -97 -61t-77 -17q-44 0 -72 26q-21 21 -21 70v267q0 21 -6 30.5t-21 13.5v25q65 13 92.5 20.5t86.5 30.5h24v-350q0 -49 29 -49q28 0 62 33v246q0 37 -26 44v25q65 13 92.5 20.5t85.5 30.5h24v-406q0 -38 27 -54v-13h-203zM106 567v65h355v-65h-355z
" />
    <glyph glyph-name="Uring" unicode="&#x16e;" horiz-adv-x="700" 
d="M264 586v-389q0 -82 18 -117q35 -62 132 -62q86 0 132 51t46 145v369q0 32 -12 46.5t-45 22.5v15h161v-15q-33 -8 -45 -22.5t-12 -46.5v-354q0 -119 -51 -176q-63 -70 -196 -70q-144 0 -236 50q-88 50 -88 172v381q0 48 -40 66v15h276v-15q-40 -18 -40 -66zM404 885
q37 0 64 -27t27 -65t-27 -65t-65 -27t-65 27t-27 66q0 37 27.5 64t65.5 27zM404 828q-15 0 -25.5 -10.5t-10.5 -24.5t10.5 -24.5t24.5 -10.5t24.5 10.5t10.5 24.5t-10 24.5t-24 10.5z" />
    <glyph glyph-name="uring" unicode="&#x16f;" horiz-adv-x="546" 
d="M318 0v68q-59 -44 -97 -61t-77 -17q-44 0 -72 26q-21 21 -21 70v267q0 21 -6 30.5t-21 13.5v25q65 13 92.5 20.5t86.5 30.5h24v-350q0 -49 29 -49q28 0 62 33v246q0 37 -26 44v25q65 13 92.5 20.5t85.5 30.5h24v-406q0 -38 27 -54v-13h-203zM293 707q37 0 64 -27t27 -65
t-27 -65.5t-65 -27.5t-65 27.5t-27 65.5t27.5 65t65.5 27zM293 650q-15 0 -25.5 -10.5t-10.5 -24.5q0 -15 10.5 -25.5t24.5 -10.5t24.5 10.5t10.5 25.5q0 14 -10 24.5t-24 10.5z" />
    <glyph glyph-name="Uhungarumlaut" unicode="&#x170;" horiz-adv-x="700" 
d="M264 586v-389q0 -82 18 -117q35 -62 132 -62q86 0 132 51t46 145v369q0 32 -12 46.5t-45 22.5v15h161v-15q-33 -8 -45 -22.5t-12 -46.5v-354q0 -119 -51 -176q-63 -70 -196 -70q-144 0 -236 50q-88 50 -88 172v381q0 48 -40 66v15h276v-15q-40 -18 -40 -66zM476 845
l-182 -129l54 129h128zM645 845l-182 -129l54 129h128z" />
    <glyph glyph-name="uhungarumlaut" unicode="&#x171;" horiz-adv-x="546" 
d="M318 0v68q-59 -44 -97 -61t-77 -17q-44 0 -72 26q-21 21 -21 70v267q0 21 -6 30.5t-21 13.5v25q65 13 92.5 20.5t86.5 30.5h24v-350q0 -49 29 -49q28 0 62 33v246q0 37 -26 44v25q65 13 92.5 20.5t85.5 30.5h24v-406q0 -38 27 -54v-13h-203zM357 667l-179 -131l51 131
h128zM526 667l-178 -131l50 131h128z" />
    <glyph glyph-name="Uogonek" unicode="&#x172;" horiz-adv-x="700" 
d="M639 583v-354q0 -90 -28 -143.5t-90 -80.5q-34 -39 -34 -83q0 -26 13.5 -42.5t34.5 -16.5q19 0 43 14l13 -21q-55 -40 -99 -40q-39 0 -66.5 25t-27.5 60q0 43 46 85q-33 -3 -58 -3q-80 0 -151 19.5t-108 50.5q-59 52 -59 152v381q0 48 -40 66v15h276v-15q-40 -18 -40 -66
v-389q0 -82 18 -117q35 -62 132 -62q86 0 132 51t46 145v369q0 32 -12 46.5t-45 22.5v15h161v-15q-33 -8 -45 -22.5t-12 -46.5z" />
    <glyph glyph-name="uogonek" unicode="&#x173;" horiz-adv-x="546" 
d="M522 0h-66q-28 -37 -28 -75q0 -26 12.5 -42.5t32.5 -16.5q17 0 41 14l12 -20q-52 -40 -94 -40q-37 0 -62.5 24t-25.5 59q0 26 11.5 45.5t46.5 51.5h-84v68q-59 -44 -97 -61t-77 -17q-44 0 -72 26q-21 21 -21 70v267q0 21 -6 30.5t-21 13.5v25q65 13 92.5 20.5t86.5 30.5
h24v-350q0 -49 29 -49q28 0 62 33v246q0 37 -26 44v25q65 13 92.5 20.5t85.5 30.5h24v-406q0 -38 28 -54v-13z" />
    <glyph glyph-name="Ydieresis" unicode="&#x178;" horiz-adv-x="607" 
d="M404 273v-192q0 -47 40 -66v-15h-275v15q40 19 40 66v192l-170 314q-29 53 -65 66v14h308v-14q-39 -12 -39 -36q0 -16 8 -30l136 -252l135 252q8 14 8 30q0 14 -9 21.5t-32 14.5v14h148v-14q-38 -17 -64 -66zM223 856q35 0 57.5 -19t22.5 -48t-24 -48.5t-60 -19.5
q-34 0 -56 19t-22 48t23.5 48.5t58.5 19.5zM449 856q35 0 58 -19t23 -48t-24 -48.5t-61 -19.5q-34 0 -56 19t-22 48t23.5 48.5t58.5 19.5z" />
    <glyph glyph-name="Zacute" unicode="&#x179;" horiz-adv-x="599" 
d="M553 0h-547v46l344 575h-61q-145 0 -210 -108l-27 5l38 149h497l-369 -619h123q80 0 128 23.5t91 84.5l24 -10zM506 847l-203 -142l61 142h142z" />
    <glyph glyph-name="zacute" unicode="&#x17a;" horiz-adv-x="461" 
d="M413 0h-418l254 424h-50q-61 0 -95.5 -22t-49.5 -72l-26 8l28 116h404v-17l-246 -408h54q58 0 102 27q34 22 56 75l24 -9zM427 668l-198 -145l56 145h142z" />
    <glyph glyph-name="Zdotaccent" unicode="&#x17b;" horiz-adv-x="599" 
d="M553 0h-547v46l344 575h-61q-145 0 -210 -108l-27 5l38 149h497l-369 -619h123q80 0 128 23.5t91 84.5l24 -10zM332 856q35 0 57.5 -19t22.5 -48t-24 -48.5t-60 -19.5q-34 0 -56 19t-22 48t23.5 48.5t58.5 19.5z" />
    <glyph glyph-name="zdotaccent" unicode="&#x17c;" horiz-adv-x="461" 
d="M413 0h-418l254 424h-50q-61 0 -95.5 -22t-49.5 -72l-26 8l28 116h404v-17l-246 -408h54q58 0 102 27q34 22 56 75l24 -9zM265 678q35 0 57.5 -19t22.5 -48t-24 -48.5t-60 -19.5q-34 0 -56 19t-22 48t23.5 48.5t58.5 19.5z" />
    <glyph glyph-name="Zcaron" unicode="&#x17d;" horiz-adv-x="599" 
d="M553 0h-547v46l344 575h-61q-145 0 -210 -108l-27 5l38 149h497l-369 -619h123q80 0 128 23.5t91 84.5l24 -10zM283 704l-76 143l129 -85l124 85l-74 -143h-103z" />
    <glyph glyph-name="zcaron" unicode="&#x17e;" horiz-adv-x="461" 
d="M413 0h-418l254 424h-50q-61 0 -95.5 -22t-49.5 -72l-26 8l28 116h404v-17l-246 -408h54q58 0 102 27q34 22 56 75l24 -9zM205 522l-72 146l125 -87l121 87l-71 -146h-103z" />
    <glyph glyph-name="florin" unicode="&#x192;" horiz-adv-x="617" 
d="M489 416h-83l-76 -483h-176l76 483h-48l6 38h48l13 82q8 46 18 69t30 39q49 40 126 40q50 0 78 -15t28 -42q0 -23 -17.5 -39t-42.5 -16t-38.5 13t-18.5 43q-4 23 -18 23q-11 0 -18.5 -10.5t-7.5 -25.5q0 -17 7 -29t36 -44q10 -10 10 -27q0 -6 -3 -23l-6 -38h83z" />
    <glyph glyph-name="Scommaaccent" unicode="&#x218;" horiz-adv-x="575" 
d="M489 486h-28q-8 67 -40 107q-48 58 -121 58q-50 0 -82 -28.5t-32 -72.5q0 -49 36 -80.5t136 -71.5q120 -48 160 -88t40 -113q0 -94 -73 -154t-187 -60q-130 0 -280 77l31 150l29 -4v-10q0 -64 33 -109q23 -31 65 -50t88 -19q51 0 83.5 28.5t32.5 73.5t-36.5 79.5
t-121.5 71.5q-97 41 -131 70q-62 53 -62 142q0 93 67.5 147t183.5 54q58 0 103 -11t133 -47zM221 -293l-12 26q66 50 66 78q0 13 -20 23q-23 11 -31.5 22.5t-8.5 31.5q0 28 21 45t54 17q34 0 55.5 -19t21.5 -49q0 -40 -42.5 -90.5t-103.5 -84.5z" />
    <glyph glyph-name="scommaaccent" unicode="&#x219;" horiz-adv-x="421" 
d="M349 320l-23 8q2 16 2 19q0 38 -29 65t-69 27q-27 0 -44 -14.5t-17 -38.5q0 -43 81 -86q65 -34 88 -48.5t39 -31.5q34 -37 34 -80q0 -64 -56.5 -107t-142.5 -43q-48 0 -90 13.5t-111 50.5l30 106l22 -7v-13q0 -47 32.5 -80.5t78.5 -33.5q29 0 48.5 16t19.5 41
q0 27 -26 48q-13 10 -85 49q-107 58 -107 144q0 76 72 117q56 29 120 29q65 0 163 -44zM146 -288l-12 25q64 50 64 74q0 13 -19 22q-23 11 -31 22t-8 30q0 27 20 43.5t52 16.5q33 0 53.5 -18t20.5 -47q0 -38 -40.5 -86.5t-99.5 -81.5z" />
    <glyph glyph-name="circumflex" unicode="&#x2c6;" 
d="M300 667l73 -145l-125 87l-121 -87l70 145h103z" />
    <glyph glyph-name="caron" unicode="&#x2c7;" 
d="M199 522l-72 146l125 -87l121 87l-70 -146h-104z" />
    <glyph glyph-name="breve" unicode="&#x2d8;" 
d="M351 675h23q-3 -55 -17 -84q-14 -31 -43 -49t-64 -18t-63.5 18t-42.5 49q-14 29 -17 84h23q8 -35 35.5 -56.5t65.5 -21.5q37 0 64.5 21.5t35.5 56.5z" />
    <glyph glyph-name="dotaccent" unicode="&#x2d9;" 
d="M251 678q35 0 57.5 -19t22.5 -48t-24 -48.5t-60 -19.5q-34 0 -56 19t-22 48t23.5 48.5t58.5 19.5z" />
    <glyph glyph-name="ring" unicode="&#x2da;" 
d="M251 707q37 0 64 -27t27 -65t-27 -65.5t-65 -27.5t-65 27.5t-27 65.5t27.5 65t65.5 27zM251 650q-15 0 -25.5 -10.5t-10.5 -24.5q0 -15 10.5 -25.5t24.5 -10.5t24.5 10.5t10.5 25.5q0 14 -10 24.5t-24 10.5z" />
    <glyph glyph-name="ogonek" unicode="&#x2db;" 
d="M307 15l48 -1q-40 -45 -40 -89q0 -26 13 -42.5t33 -16.5q16 0 40 14l12 -20q-52 -40 -93 -40q-37 0 -62.5 24t-25.5 59q0 29 15 51.5t60 60.5z" />
    <glyph glyph-name="tilde" unicode="&#x2dc;" 
d="M126 545l-21 2q11 56 28.5 79.5t49.5 23.5q18 0 75 -19q36 -13 61 -13q35 0 56 38l20 -3q-9 -45 -24 -66q-21 -33 -64 -33q-24 0 -62 10q-56 16 -74 16q-30 0 -45 -35z" />
    <glyph glyph-name="hungarumlaut" unicode="&#x2dd;" 
d="M322 667l-179 -131l51 131h128zM491 667l-179 -131l51 131h128z" />
    <glyph glyph-name="Delta" unicode="&#x394;" horiz-adv-x="667" 
d="M390 676l305 -676h-724l302 676h117zM267 502l-148 -340q-10 -22 -10 -33q0 -12 10.5 -16t43.5 -4h268z" />
    <glyph glyph-name="Delta" unicode="&#x2206;" horiz-adv-x="667" 
d="M390 676l305 -676h-724l302 676h117zM267 502l-148 -340q-10 -22 -10 -33q0 -12 10.5 -16t43.5 -4h268z" />
    <glyph glyph-name="endash" unicode="&#x2013;" horiz-adv-x="541" 
d="M26 219v82h489v-82h-489z" />
    <glyph glyph-name="emdash" unicode="&#x2014;" horiz-adv-x="731" 
d="M0 219v82h731v-82h-731z" />
    <glyph glyph-name="quoteleft" unicode="&#x2018;" horiz-adv-x="300" 
d="M224 690l14 -28q-74 -57 -74 -87q0 -14 22 -26q26 -13 35.5 -25t9.5 -34q0 -31 -23 -50.5t-60 -19.5q-38 0 -62 21t-24 55q0 44 47 100t115 94z" />
    <glyph glyph-name="quoteright" unicode="&#x2019;" horiz-adv-x="304" 
d="M78 414l-14 28q74 57 74 87q0 15 -22 26q-26 13 -35.5 25.5t-9.5 34.5q0 31 23 50t60 19q38 0 62 -21t24 -54q0 -45 -47 -101t-115 -94z" />
    <glyph glyph-name="quotesinglbase" unicode="&#x201a;" horiz-adv-x="287" 
d="M62 -160l-16 32q82 63 82 96q0 17 -25 28q-29 15 -39 29t-10 38q0 34 26 55.5t67 21.5q42 0 68.5 -23.5t26.5 -60.5q0 -49 -51.5 -111t-128.5 -105z" />
    <glyph glyph-name="quotedblleft" unicode="&#x201c;" horiz-adv-x="506" 
d="M431 690l14 -28q-74 -58 -74 -87q0 -14 22 -26q26 -13 35.5 -25.5t9.5 -34.5q0 -31 -23 -50t-60 -19q-38 0 -62 21t-24 55q0 44 47 100t115 94zM224 690l14 -28q-74 -56 -74 -87q0 -14 22 -26q26 -13 35.5 -25.5t9.5 -34.5q0 -31 -23 -50t-60 -19q-38 0 -62 21t-24 54
q0 45 47 101t115 94z" />
    <glyph glyph-name="quotedblright" unicode="&#x201d;" horiz-adv-x="511" 
d="M78 414l-14 28q74 57 74 87q0 15 -22 26q-26 13 -35.5 25.5t-9.5 34.5q0 31 23 50t60 19q38 0 62 -21t24 -54q0 -45 -47 -101t-115 -94zM285 414l-14 28q74 58 74 87q0 15 -22 26q-26 13 -35.5 25.5t-9.5 34.5q0 31 23 50t60 19q38 0 62 -21t24 -54q0 -45 -47 -101
t-115 -94z" />
    <glyph glyph-name="quotedblbase" unicode="&#x201e;" horiz-adv-x="511" 
d="M78 -144l-14 29q74 55 74 86q0 15 -22 26q-26 13 -35.5 25.5t-9.5 34.5q0 31 23 50t60 19q38 0 62 -21t24 -54q0 -45 -46.5 -101.5t-115.5 -93.5zM285 -144l-14 29q74 56 74 86q0 15 -22 26q-26 13 -35.5 25.5t-9.5 34.5q0 31 23 50t60 19q38 0 62 -21t24 -54
q0 -45 -47 -101t-115 -94z" />
    <glyph glyph-name="dagger" unicode="&#x2020;" horiz-adv-x="457" 
d="M255 -214h-53q-2 237 -14.5 341.5t-46.5 162.5q65 67 68 116q-33 -3 -64 -17q-37 -18 -59 -18q-28 0 -46 17.5t-18 45.5q0 27 17 44.5t44 17.5q24 0 61 -20q40 -24 65 -26q-1 33 -24 88q-22 52 -22 79q0 28 19.5 47.5t46.5 19.5q28 0 47 -19.5t19 -48.5q0 -23 -23 -77
q-20 -44 -23 -88q26 4 72 29q32 16 55 16q27 0 43 -17t16 -46t-17.5 -45.5t-47.5 -16.5q-22 0 -56 17q-35 16 -64 18q9 -60 66 -115q-38 -79 -46 -157q-15 -128 -15 -322v-26z" />
    <glyph glyph-name="daggerdbl" unicode="&#x2021;" 
d="M241 430l-1 1q-1 0 -1 4q-2 29 -11 49t-40 64q-16 27 -16 51q0 34 23 58t55 24t55 -24t23 -57q0 -18 -6 -32t-31 -51q-17 -25 -21.5 -38t-9.5 -51q0 -2 3 -2l6 2q3 2 13 3q18 3 32 10.5t46 31.5q17 13 33 13q27 0 47.5 -21t20.5 -48q0 -28 -20.5 -50t-46.5 -22
q-17 0 -37 16q-35 27 -46.5 32.5t-46.5 12.5q-6 0 -6 -11q0 -1 2 -7l18 -60q20 -64 40 -97q-27 -47 -39 -97q-18 -66 -18 -70q0 -9 7 -9q2 0 25 6q22 7 64 40q20 15 37 15q27 0 46.5 -21t19.5 -50q0 -28 -19.5 -48.5t-45.5 -20.5q-15 0 -23.5 4t-34.5 25q-7 5 -56 26
q-4 2 -12 4q-3 0 -4 1h-1q-3 0 -3 -3q0 -40 30 -86q24 -35 30 -49t6 -35q0 -34 -22.5 -57.5t-54.5 -23.5t-54.5 23.5t-22.5 57.5q0 21 6 35.5t30 48.5q31 43 31 86q0 3 -3 3h-1q-2 -1 -4 -1q-53 -18 -89 -46q-18 -13 -37 -13q-27 0 -46.5 20.5t-19.5 48.5q0 29 19.5 50.5
t46.5 21.5q17 0 37 -15q42 -34 64 -41q22 -6 24 -6q8 0 8 9q0 10 -17 70q-18 59 -40 97q26 45 39 97q13 49 17 59q3 7 3 12q0 3 -2 6t-4 2q-34 -7 -46 -13t-47 -33q-19 -16 -36 -16q-26 0 -46.5 22t-20.5 50q0 27 20.5 48t46.5 21q12 0 20 -4t36 -25q32 -22 56 -25
q3 -1 6 -1.5t4.5 -1t2.5 -0.5q4 -2 6 -2q1 0 2 1l1 1z" />
    <glyph glyph-name="bullet" unicode="&#x2022;" horiz-adv-x="667" 
d="M337 477q55 0 95.5 -41t40.5 -97q0 -58 -40.5 -98.5t-97.5 -40.5t-98 40.5t-41 97.5q0 58 41 98.5t100 40.5z" />
    <glyph glyph-name="ellipsis" unicode="&#x2026;" horiz-adv-x="861" 
d="M144 140q41 0 66.5 -21t25.5 -55q0 -33 -27.5 -55t-68.5 -22q-39 0 -64 21t-25 54q0 34 26.5 56t66.5 22zM431 140q40 0 65.5 -21.5t25.5 -54.5t-27 -55t-68 -22q-39 0 -64 21t-25 54q0 34 26.5 56t66.5 22zM718 140q40 0 65.5 -21.5t25.5 -54.5t-27 -55t-68 -22
q-39 0 -64 21t-25 54q0 34 26.5 56t66.5 22z" />
    <glyph glyph-name="perthousand" unicode="&#x2030;" horiz-adv-x="1123" 
d="M74 0l527 667h73l-526 -667h-74zM194 684q77 0 123.5 -47.5t46.5 -127.5q0 -79 -46 -127.5t-122 -48.5q-82 0 -128.5 48t-46.5 132q0 76 48 123.5t125 47.5zM192 654q-26 0 -35 -29.5t-9 -115.5q0 -85 9.5 -115.5t35.5 -30.5q25 0 34.5 29.5t9.5 107.5q0 90 -9.5 122
t-35.5 32zM558 334q77 0 123.5 -47.5t46.5 -127.5q0 -79 -46 -127.5t-122 -48.5q-82 0 -128.5 48t-46.5 132q0 76 48 123.5t125 47.5zM556 304q-26 0 -35 -29.5t-9 -115.5q0 -85 9.5 -115.5t35.5 -30.5q25 0 34.5 29.5t9.5 107.5q0 90 -9.5 122t-35.5 32zM932 334
q77 0 123.5 -47.5t46.5 -127.5q0 -79 -46 -127.5t-122 -48.5q-82 0 -128.5 48t-46.5 132q0 76 48 123.5t125 47.5zM930 304q-26 0 -35 -29.5t-9 -115.5q0 -85 9.5 -115.5t35.5 -30.5q25 0 34.5 29.5t9.5 107.5q0 90 -9.5 122t-35.5 32z" />
    <glyph glyph-name="guilsinglleft" unicode="&#x2039;" horiz-adv-x="245" 
d="M207 63l-169 190l169 187v-30l-72 -157l72 -165v-25z" />
    <glyph glyph-name="guilsinglright" unicode="&#x203a;" horiz-adv-x="245" 
d="M38 63v25l72 165l-72 157v30l169 -187z" />
    <glyph glyph-name="fraction" unicode="&#x2044;" horiz-adv-x="144" 
d="M-20 0h-78l262 667h77z" />
    <glyph glyph-name="fraction" unicode="&#x2215;" horiz-adv-x="144" 
d="M-20 0h-78l262 667h77z" />
    <glyph glyph-name="Euro" unicode="&#x20ac;" horiz-adv-x="617" 
d="M267 402h261l-13 -47h-247q3 -37 8 -61h221l-13 -47h-197q52 -191 182 -191q46 0 99 33v-44q-47 -34 -86.5 -48t-89.5 -14q-112 0 -197 74t-106 190h-70l13 47h51q-1 14 -1 34q0 16 1 27h-64l13 47h56q24 132 110 207t213 75q76 0 192 -44l-35 -142h-25q-9 62 -44 102
q-44 50 -93 50q-41 0 -74.5 -35t-50.5 -97q-13 -44 -14 -116z" />
    <glyph glyph-name="trademark" unicode="&#x2122;" horiz-adv-x="958" 
d="M425 575l-24 -5q-38 64 -94 64q-17 0 -24.5 -7.5t-7.5 -25.5v-283q0 -26 25 -37v-14h-179v14q25 11 25 37v287q0 29 -34 29q-60 0 -95 -64l-23 5l24 92h382zM671 267h-48l-94 297l-36 -245q-1 -3 -1 -7q-1 -14 7 -20t33 -13v-12h-119v12q21 6 30.5 14t11.5 24l46 300v5
q-1 14 -7.5 20.5t-24.5 10.5v14h153l67 -207l61 207h149v-14q-28 -9 -28 -30v-6l45 -300q5 -29 32 -38v-12h-178v12q23 8 23 30q0 4 -1 7l-34 247z" />
    <glyph glyph-name="summation" unicode="&#x2211;" horiz-adv-x="667" 
d="M24 667h587v-190h-23q-8 71 -46 110t-99 39h-194l181 -315l-258 -434h257q53 0 86 13t63 45q36 38 52 108h22l-33 -276h-595l266 446z" />
    <glyph glyph-name="minus" unicode="&#x2212;" 
d="M-2 423h503v-98h-503v98z" />
    <glyph glyph-name="radical" unicode="&#x221a;" horiz-adv-x="667" 
d="M650 823v-45h-103l-185 -778h-176l-83 342h-86v45h228l79 -337l181 773h145z" />
    <glyph glyph-name="lessequal" unicode="&#x2264;" 
d="M463 655v-81l-207 -127l207 -143v-217l-427 296v10zM36 72h427v-72h-427v72z" />
    <glyph glyph-name="greaterequal" unicode="&#x2265;" 
d="M36 72h427v-72h-427v72zM36 87v81l207 127l-207 143v217l427 -302v-10z" />
    <glyph glyph-name="lozenge" unicode="&#x25ca;" horiz-adv-x="667" 
d="M334 693l259 -359l-259 -360l-260 360zM334 604l-197 -270l197 -271l197 271z" />
    <glyph glyph-name="middot" unicode="&#xe000;" horiz-adv-x="278" 
d="M140 412q39 0 67 -28t28 -67q0 -40 -28 -68t-67 -28q-40 0 -68 28.5t-28 68.5q0 38 28 66t68 28z" />
    <glyph glyph-name="commaaccent" unicode="&#xf6c3;" 
d="M186 -288l-12 25q64 50 64 74q0 13 -19 22q-23 11 -31 22t-8 30q0 27 20 43.5t52 16.5q33 0 53.5 -18t20.5 -47q0 -38 -40.5 -86.5t-99.5 -81.5z" />
    </font>
</defs>
</svg>
