<?xml version="1.0" standalone="no"?>
<!DOCTYPE svg PUBLIC "-//W3C//DTD SVG 1.1//EN" "http://www.w3.org/Graphics/SVG/1.1/DTD/svg11.dtd" >
<svg>
<metadata>
Created by FontForge 20090622 at Thu Nov 26 13:50:03 2015
 By deploy user
Copyright 1990-2003 Bitstream Inc. All rights reserved.
</metadata>
<defs>
<font id="RomanaBT-Roman" horiz-adv-x="1024" >
  <font-face 
    font-family="Romana BT"
    font-weight="400"
    font-stretch="semi-condensed"
    units-per-em="2048"
    panose-1="2 2 6 3 6 7 5 2 2 4"
    ascent="1556"
    descent="-492"
    x-height="981"
    cap-height="1475"
    bbox="-342 -498 2132 1977"
    underline-thickness="119"
    underline-position="-166"
    unicode-range="U+0020-U+F002"
  />
<missing-glyph horiz-adv-x="1229" 
d="M102 -362v1806h1024v-1806h-1024zM217 -248h795v1577h-795v-1577z" />
    <glyph glyph-name=".notdef" horiz-adv-x="1229" 
d="M102 -362v1806h1024v-1806h-1024zM217 -248h795v1577h-795v-1577z" />
    <glyph glyph-name=".null" horiz-adv-x="0" 
 />
    <glyph glyph-name="nonmarkingreturn" horiz-adv-x="563" 
 />
    <glyph glyph-name="space" unicode=" " horiz-adv-x="563" 
 />
    <glyph glyph-name="exclam" unicode="!" horiz-adv-x="563" 
d="M268 362l-69 558q-16 123 -23.5 213t-7.5 161q0 111 28.5 162t90.5 51q61 0 90 -51t29 -162q0 -66 -7.5 -152.5t-23.5 -221.5l-70 -558h-37zM164 94q0 51 36 87t87 36q52 0 87.5 -35.5t35.5 -87.5q0 -50 -36.5 -86.5t-86.5 -36.5q-49 0 -86 37t-37 86z" />
    <glyph glyph-name="quotedbl" unicode="&#x22;" horiz-adv-x="686" 
d="M526 860h-34l-70 459q-1 7 -1.5 14.5t-0.5 22.5q0 51 22.5 78.5t65.5 27.5q42 0 66 -27t24 -75q0 -16 -0.5 -24.5t-1.5 -16.5zM195 860h-35l-70 459l-3 26t-1 15q0 48 24 75t66 27q44 0 67 -27.5t23 -78.5q0 -16 -0.5 -23.5t-1.5 -14.5z" />
    <glyph glyph-name="numbersign" unicode="#" horiz-adv-x="1575" 
d="M702 864l-98 -276h283l96 276h-281zM760 1458h155l-161 -454h276l162 454h156l-162 -454h301l-49 -140h-301l-97 -276h320l-49 -139h-320l-162 -453h-155l162 453h-279l-162 -453h-153l159 453h-313l51 139h312l98 276h-336l51 140h334z" />
    <glyph glyph-name="dollar" unicode="$" horiz-adv-x="1128" 
d="M578 53q147 0 237 74t90 192q0 112 -75 185t-252 133v-584zM508 874l-1 490q-114 -3 -186.5 -66.5t-72.5 -158.5q0 -87 63.5 -151.5t196.5 -113.5zM508 -141v141q-141 16 -252 60t-195 116l78 264l43 -10q37 -155 118 -247t208 -124v603q-204 60 -305 157t-101 234
q0 147 110.5 248t295.5 120v125h70v-125q104 -8 204 -41t195 -92l-64 -235l-39 8q-33 126 -109 202.5t-187 96.5v-510q281 -92 384 -188t103 -252q0 -177 -135.5 -292t-351.5 -118v-141h-70z" />
    <glyph glyph-name="percent" unicode="%" horiz-adv-x="1497" 
d="M1124 6q81 0 116.5 94t35.5 316q0 209 -37 304t-119 95q-76 0 -112.5 -91.5t-36.5 -285.5q0 -239 35.5 -335.5t117.5 -96.5zM1126 -33q-134 0 -216.5 123.5t-82.5 325.5q0 192 87 316t219 124q122 0 203 -124.5t81 -319.5q0 -188 -85.5 -316.5t-205.5 -128.5zM377 606
q81 0 116 94t35 316q0 209 -37 304t-118 95q-77 0 -113.5 -91.5t-36.5 -285.5q0 -239 35.5 -335.5t118.5 -96.5zM379 567q-134 0 -216.5 123.5t-82.5 325.5q0 192 87 316t218 124q123 0 204 -124.5t81 -319.5q0 -188 -85.5 -316.5t-205.5 -128.5zM236 0l960 1456l64 -35
l-961 -1454z" />
    <glyph glyph-name="ampersand" unicode="&#x26;" horiz-adv-x="1389" 
d="M838 233l-170 346t-136 304q-134 -59 -201 -148.5t-67 -210.5q0 -69 26 -140t72 -128q56 -67 118 -100t134 -33q68 0 123.5 27.5t100.5 82.5zM965 0l-101 184q-77 -94 -169 -141t-199 -47q-167 0 -284.5 122t-117.5 292q0 162 108 297t310 225q-18 57 -27.5 104.5
t-9.5 85.5q0 162 96.5 262.5t251.5 100.5q118 0 202.5 -58t84.5 -135q0 -42 -27 -68t-71 -26q-43 0 -73.5 26t-53.5 83q-30 72 -56 91t-71 19q-55 0 -92 -45.5t-37 -116.5q0 -86 81 -290.5t255 -552.5q46 107 72 201t26 151q0 56 -25.5 96.5t-68.5 54.5v37h327v-37
q-95 -31 -203 -327q-53 -147 -89 -234l79 -137q53 -88 98 -126.5t105 -51.5v-39h-321z" />
    <glyph glyph-name="quotesingle" unicode="'" horiz-adv-x="352" 
d="M195 860h-35l-70 459q0 2 -1 8q-3 20 -3 29q0 50 23.5 78t66.5 28q42 0 66 -27t24 -75q0 -7 -0.5 -15t-3.5 -27z" />
    <glyph glyph-name="parenleft" unicode="(" horiz-adv-x="750" 
d="M723 -483q-286 178 -441 437t-155 558t155 558t441 437v-59q-189 -143 -283 -376t-94 -560t94 -560t283 -376v-59z" />
    <glyph glyph-name="parenright" unicode=")" horiz-adv-x="750" 
d="M27 1507q286 -178 441 -437t155 -558t-155 -558t-441 -437v59q188 142 281 375t93 561t-93 561t-281 375v59z" />
    <glyph glyph-name="asterisk" unicode="*" 
d="M526 1065v-14q0 -73 38 -164.5t38 -122.5q0 -38 -25 -63t-65 -25q-43 0 -67.5 23.5t-24.5 64.5q0 27 38 115t38 163v25q-44 -26 -76 -53.5t-61 -68.5l-5 -7q-74 -100 -129 -100q-36 0 -62 27t-26 65q0 47 35.5 71.5t113.5 30.5q70 5 116 20t77 42q-70 50 -202 59
q-18 1 -27 2q-51 4 -82 32t-31 68q0 38 25 65.5t61 27.5q57 0 118 -86l15 -21q29 -40 64 -70.5t78 -52.5v10q0 79 -39 172.5t-39 116.5q0 41 25 65.5t67 24.5q44 0 67 -22.5t23 -65.5q0 -26 -37 -116.5t-37 -165.5v-21l6 4q86 56 132 120l8 11q70 97 129 97q31 0 57.5 -30
t26.5 -65q0 -36 -30 -64t-73 -32h-4q-171 -15 -235 -67q76 -50 207 -60q14 -1 23 -2q50 -4 81 -32.5t31 -71.5q0 -34 -28 -61t-62 -27q-55 0 -121 94q-7 9 -11 15q-28 41 -62 70t-77 50z" />
    <glyph glyph-name="plus" unicode="+" horiz-adv-x="1706" 
d="M782 1221h142v-541h528v-139h-528v-541h-142v541h-528v139h528v541z" />
    <glyph glyph-name="comma" unicode="," horiz-adv-x="563" 
d="M125 -322q64 68 97.5 130.5t33.5 115.5q0 39 -50 86t-50 96q0 50 32 80.5t82 30.5q59 0 99.5 -47t40.5 -117q0 -86 -64 -191.5t-186 -221.5z" />
    <glyph glyph-name="hyphen" unicode="-" horiz-adv-x="692" 
d="M61 428v143h570v-143h-570z" />
    <glyph glyph-name="period" unicode="." horiz-adv-x="563" 
d="M164 94q0 51 36 87t87 36q52 0 87.5 -35.5t35.5 -87.5q0 -50 -36.5 -86.5t-86.5 -36.5q-49 0 -86 37t-37 86z" />
    <glyph glyph-name="slash" unicode="/" horiz-adv-x="768" 
d="M-135 -152l885 1659l71 -37l-884 -1660z" />
    <glyph glyph-name="zero" unicode="0" horiz-adv-x="1128" 
d="M569 18q140 0 200 160.5t60 542.5q0 357 -62.5 519.5t-199.5 162.5q-140 0 -204 -153t-64 -492q0 -411 62 -575.5t208 -164.5zM569 -33q-219 0 -354 206t-135 548q0 323 142.5 529t359.5 206q200 0 333.5 -208t133.5 -535q0 -185 -52.5 -341t-152.5 -272
q-57 -64 -128 -98.5t-147 -34.5z" />
    <glyph glyph-name="one" unicode="1" horiz-adv-x="1128" 
d="M360 0l1 39q51 2 73.5 44t22.5 136v891q0 73 -34.5 107t-111.5 37v38q71 17 143.5 58t147.5 106h47v-1237q0 -96 22.5 -137.5t73.5 -42.5v-39h-385z" />
    <glyph glyph-name="two" unicode="2" horiz-adv-x="1128" 
d="M55 0v39l49 74q127 190 353 407q50 48 71 70q118 120 169 231t51 242q0 157 -60.5 248.5t-161.5 91.5q-87 0 -128 -44.5t-48 -146.5q-6 -83 -37.5 -126.5t-87.5 -43.5q-42 0 -69 30.5t-27 78.5q0 119 120.5 212t280.5 93q190 0 312.5 -119.5t122.5 -304.5
q0 -73 -24.5 -140t-76.5 -136q-56 -74 -253 -217l-44 -31q-134 -98 -220 -179t-142 -163h434q118 0 177 32.5t89 110.5l39 -8l-72 -301h-817z" />
    <glyph glyph-name="three" unicode="3" horiz-adv-x="1128" 
d="M453 774q150 23 215 97.5t65 222.5t-54 227.5t-155 79.5q-80 0 -120 -41t-52 -140q-7 -61 -33.5 -94.5t-68.5 -33.5q-43 0 -71.5 30t-28.5 76q0 102 114.5 180t274.5 78q171 0 289 -101t118 -247q0 -104 -71 -184t-209 -133q153 -35 242 -133.5t89 -233.5
q0 -197 -136 -327t-343 -130q-172 0 -294 79.5t-122 180.5q0 43 26 72t62 29q47 0 78 -26t56 -85q54 -126 97.5 -160t115.5 -34q116 0 179.5 96.5t63.5 275.5q0 163 -60.5 250.5t-172.5 87.5q-26 0 -49 -2t-43 -6z" />
    <glyph glyph-name="four" unicode="4" horiz-adv-x="1128" 
d="M637 473l4 768l-451 -768h447zM551 0v39q48 11 67 55.5t19 173.5v78h-576v57l627 1047h143v-977h209v-127h-209v-78q0 -136 18.5 -177t65.5 -52v-39h-364z" />
    <glyph glyph-name="five" unicode="5" horiz-adv-x="1128" 
d="M203 655l22 766q63 -21 142 -32t165 -11q104 0 190.5 20t147.5 58l27 -22q-69 -108 -190 -166t-279 -58q-40 0 -76 2t-69 7l-11 -426q54 85 134 130.5t178 45.5q180 0 298.5 -132t118.5 -331q0 -236 -144.5 -387.5t-369.5 -151.5q-152 0 -260 74t-108 170q0 43 25 70.5
t65 27.5q42 0 74.5 -27.5t66.5 -93.5l2 -3q82 -156 203 -156q111 0 176.5 103.5t65.5 283.5q0 198 -81.5 323t-207.5 125q-91 0 -156 -56t-94 -159z" />
    <glyph glyph-name="six" unicode="6" horiz-adv-x="1128" 
d="M326 754q44 98 116.5 147t173.5 49q162 0 278 -134.5t116 -330.5q0 -99 -29.5 -187t-85.5 -159q-66 -82 -151.5 -127t-176.5 -45q-205 0 -326.5 179.5t-121.5 486.5q0 379 142.5 601t381.5 222q131 0 220 -57.5t89 -138.5q0 -36 -26 -61t-62 -25q-32 0 -60.5 18t-51.5 53
q-9 12 -23 37q-66 109 -158 109q-117 0 -177.5 -157t-67.5 -480zM791 473q0 212 -52.5 314t-160.5 102q-120 0 -181 -102t-61 -302q0 -238 57.5 -352.5t177.5 -114.5q114 0 167 109.5t53 345.5z" />
    <glyph glyph-name="seven" unicode="7" horiz-adv-x="1128" 
d="M395 -33q29 340 155 657.5t357 630.5h-405q-165 0 -221 -35.5t-76 -129.5l-41 2l29 329h847v-51q-203 -299 -305.5 -644t-109.5 -759h-230z" />
    <glyph glyph-name="eight" unicode="8" horiz-adv-x="1128" 
d="M647 836q86 41 129 113t43 175q0 129 -69.5 204t-188.5 75q-107 0 -170 -61t-63 -164t81 -190t238 -152zM465 705q-98 -45 -148.5 -130t-50.5 -204q0 -159 83 -255t220 -96q126 0 200.5 78t74.5 209q0 129 -93 226.5t-286 171.5zM410 731q-120 58 -184 148.5t-64 201.5
q0 161 117 268t292 107q165 0 278.5 -93.5t113.5 -223.5q0 -106 -65 -187t-198 -139q166 -79 247 -180t81 -230q0 -185 -133 -310.5t-330 -125.5q-201 0 -334 113t-133 278q0 114 78 207.5t234 165.5z" />
    <glyph glyph-name="nine" unicode="9" horiz-adv-x="1128" 
d="M332 979q0 -224 55.5 -335.5t167.5 -111.5q114 0 178 103t64 289q0 242 -61.5 360.5t-186.5 118.5q-113 0 -165 -102t-52 -322zM801 653q-46 -92 -119 -140t-166 -48q-173 0 -287 134t-114 341q0 104 31 194t90 158q65 78 145.5 121t159.5 43q215 0 343 -195t128 -528
q0 -351 -140.5 -558.5t-373.5 -207.5q-135 0 -225.5 55.5t-90.5 133.5q0 38 27 64t65 26q73 0 150 -117l18 -26q24 -35 57 -52.5t74 -17.5q118 0 172 146t56 474z" />
    <glyph glyph-name="colon" unicode=":" horiz-adv-x="563" 
d="M164 94q0 51 36 87t87 36q52 0 87.5 -35.5t35.5 -87.5q0 -50 -36.5 -86.5t-86.5 -36.5q-49 0 -86 37t-37 86zM164 834q0 51 36 87.5t87 36.5q52 0 87.5 -36t35.5 -88q0 -51 -36.5 -87t-86.5 -36q-49 0 -86 36.5t-37 86.5z" />
    <glyph glyph-name="semicolon" unicode=";" horiz-adv-x="563" 
d="M164 834q0 51 36 87.5t87 36.5q52 0 87.5 -36t35.5 -88q0 -51 -36.5 -87t-86.5 -36q-49 0 -86 36.5t-37 86.5zM125 -322q64 68 97.5 130.5t33.5 115.5q0 39 -50 86t-50 96q0 50 32 80.5t82 30.5q59 0 99.5 -47t40.5 -117q0 -86 -64 -191.5t-186 -221.5z" />
    <glyph glyph-name="less" unicode="&#x3c;" horiz-adv-x="1706" 
d="M1442 1159v-153l-969 -396l969 -393v-154l-1178 484v129z" />
    <glyph glyph-name="equal" unicode="=" horiz-adv-x="1706" 
d="M254 481h1198v-139h-1198v139zM254 879h1198v-140h-1198v140z" />
    <glyph glyph-name="greater" unicode="&#x3e;" horiz-adv-x="1706" 
d="M264 1159l1178 -483v-129l-1178 -484v154l971 393l-971 396v153z" />
    <glyph glyph-name="question" unicode="?" horiz-adv-x="909" 
d="M272 362l-4 426q17 0 36 -1q6 -1 7 -1q182 0 277.5 91t95.5 264q0 140 -76 226.5t-196 86.5q-81 0 -125 -42t-49 -123q-4 -83 -31.5 -121t-83.5 -38q-41 0 -66.5 30t-25.5 77q0 107 111.5 188.5t269.5 81.5q179 0 305.5 -131t126.5 -315q0 -222 -131.5 -350t-362.5 -132
l-12 -217h-66zM174 94q0 51 36 87t87 36q52 0 88.5 -35.5t36.5 -87.5q0 -50 -37 -86.5t-88 -36.5q-49 0 -86 37t-37 86z" />
    <glyph glyph-name="at" unicode="@" horiz-adv-x="2019" 
d="M1186 332q-62 -105 -138 -156t-169 -51q-129 0 -206 92t-77 246q0 109 49.5 216t140.5 195q68 65 146 99.5t155 34.5q90 0 146 -48.5t76 -142.5l51 174h158l-172 -612l-4 -12q-15 -56 -15 -86q0 -51 23.5 -79t66.5 -28q33 0 80.5 20t89.5 52q119 90 179.5 228.5
t60.5 318.5q0 133 -52.5 245t-156.5 201q-90 77 -214 118.5t-267 41.5q-180 0 -335.5 -61.5t-275.5 -180.5q-126 -124 -190 -287t-64 -358q0 -182 57 -313t179 -234q109 -92 254 -141t307 -49q170 0 327 51.5t300 155.5l33 -41q-147 -110 -312.5 -166t-345.5 -56
q-189 0 -345.5 45.5t-274.5 135.5q-151 113 -230.5 276.5t-79.5 360.5q0 203 86.5 380.5t251.5 313.5q134 111 294.5 167t342.5 56q346 0 555 -188.5t209 -499.5q0 -159 -58.5 -298t-166.5 -237q-59 -52 -126 -80t-134 -28q-96 0 -149 53t-60 156zM1104 961
q-54 0 -98.5 -30.5t-90.5 -99.5q-71 -107 -113 -233.5t-42 -228.5q0 -86 39.5 -138.5t101.5 -52.5q65 0 122.5 43.5t111.5 132.5q55 93 88.5 204t33.5 198q0 92 -42 148.5t-111 56.5z" />
    <glyph glyph-name="A" unicode="A" horiz-adv-x="1241" 
d="M319 551h459l-221 729zM-47 0v39q76 26 127.5 97.5t105.5 240.5l369 1130h129l408 -1257q35 -109 68.5 -159t71.5 -52l1 -39h-399v39q32 7 51.5 27.5t19.5 48.5q0 21 -17 76l-8 25l-81 263h-504l-64 -197q-9 -30 -13.5 -57t-4.5 -49q0 -57 25.5 -92t74.5 -45v-39h-360z
" />
    <glyph glyph-name="B" unicode="B" horiz-adv-x="1309" 
d="M76 0v39q50 1 72 43t22 137v1034q0 99 -22 140t-72 43v39l322 8q55 1 116 2.5t68 1.5q266 0 433 -104t167 -265q0 -118 -95 -201.5t-278 -125.5q199 -38 313.5 -146t114.5 -258q0 -188 -158 -287.5t-458 -99.5h-545zM379 758v-541q0 -104 36 -130t177 -26q222 0 327 84.5
t105 262.5q0 177 -101.5 263.5t-310.5 86.5h-233zM379 819h131q253 0 360 69t107 228q0 149 -97.5 229t-277.5 80q-137 0 -180 -30.5t-43 -139.5v-436z" />
    <glyph glyph-name="C" unicode="C" horiz-adv-x="1374" 
d="M1323 332q-115 -188 -259 -276.5t-335 -88.5q-298 0 -477.5 198.5t-179.5 528.5q0 208 68.5 377.5t201.5 290.5q75 69 184 107t230 38q118 0 242.5 -43t258.5 -131l-77 -248l-47 7q-56 173 -163.5 263.5t-258.5 90.5q-196 0 -316.5 -172.5t-120.5 -458.5
q0 -322 153.5 -526.5t391.5 -204.5q138 0 253 68t214 206z" />
    <glyph glyph-name="D" unicode="D" horiz-adv-x="1485" 
d="M379 195q0 -78 35 -106t155 -28q334 0 470.5 150t136.5 514q0 352 -129.5 525t-393.5 173q-169 0 -221.5 -34t-52.5 -136v-1058zM76 0v39q50 1 72 43t22 137v1034q0 99 -22 140t-72 43v39l328 10q37 1 73.5 1.5t91.5 0.5q160 0 263.5 -19.5t187.5 -62.5
q177 -90 280 -274.5t103 -413.5q0 -337 -207 -527t-575 -190h-545z" />
    <glyph glyph-name="E" unicode="E" horiz-adv-x="1255" 
d="M76 0v39q50 1 72 43t22 137v1034q0 99 -22 140t-72 43v39h1030l24 -287l-43 -6q-46 125 -136 173t-353 48h-63q-110 0 -133 -18.5t-23 -96.5v-420h213q168 0 236.5 31.5t95.5 110.5h34v-351h-36q-27 78 -81 108t-220 30h-29h-213v-584q0 -98 32 -120.5t167 -22.5
q162 0 231 7t121 23q66 22 127 74.5t129 147.5l43 -23l-86 -299h-1067z" />
    <glyph glyph-name="F" unicode="F" horiz-adv-x="1165" 
d="M76 0v39q50 1 72 43t22 137v1034q0 99 -22 140t-72 43v39h1018l26 -283l-37 -8q-49 123 -138.5 171t-317.5 48q-101 0 -162 -7t-74 -20q-6 -6 -9 -17t-3 -30v-16v-445h221q171 0 239.5 33.5t90.5 118.5h35v-356h-35q-27 74 -81.5 103.5t-217.5 29.5h-31h-221v-578
q0 -97 22 -138t72 -42v-39h-397z" />
    <glyph glyph-name="G" unicode="G" horiz-adv-x="1503" 
d="M1053 866v33h381v-33q-37 0 -60.5 -33t-23.5 -85v-443q0 -57 23 -90t64 -35l1 -26q-189 -95 -356 -141t-320 -46q-161 0 -288.5 59.5t-233.5 184.5q-80 93 -124 223.5t-44 276.5q0 180 65 335t191 273q96 90 228.5 139t281.5 49q120 0 247 -42.5t261 -127.5l-58 -247
l-35 2q-73 166 -199 258t-280 92q-231 0 -353 -180t-122 -523q0 -350 126.5 -532t371.5 -182q159 0 255.5 66.5t96.5 176.5v449q0 66 -25 104.5t-71 44.5z" />
    <glyph glyph-name="H" unicode="H" horiz-adv-x="1427" 
d="M76 0v39q50 1 72 43t22 137v1034q0 99 -22 140t-72 43v39h397v-39q-50 -2 -72 -43t-22 -140v-405h670v405q0 97 -23 139t-74 44v39h400v-39q-51 -2 -74 -44t-23 -139v-1034q1 -56 7.5 -89t21.5 -56q10 -16 26.5 -24.5t40.5 -10.5l1 -39h-400l1 39q51 2 73.5 44t22.5 136
v559h-670v-559q0 -97 22 -138t72 -42v-39h-397z" />
    <glyph glyph-name="I" unicode="I" horiz-adv-x="573" 
d="M86 0v38q51 3 72.5 44.5t21.5 136.5v1034q0 97 -22 139t-72 44v39h401v-39q-50 -2 -72 -43t-22 -140v-1034q0 -97 21.5 -137.5t72.5 -42.5v-39h-401z" />
    <glyph glyph-name="J" unicode="J" horiz-adv-x="584" 
d="M408 70v-54q0 -176 -24.5 -258t-82.5 -145q-49 -56 -117 -83.5t-155 -27.5q-85 0 -134 35t-49 94q0 46 32.5 79.5t78.5 33.5q30 0 53 -18t60 -81l10 -17q28 -50 59 -50q32 0 44 22.5t12 112.5v21v1519q0 56 -6.5 91t-20.5 57q-10 16 -27 24.5t-41 10.5v39h402v-39
q-51 -2 -72.5 -43t-21.5 -140v-1183z" />
    <glyph glyph-name="K" unicode="K" horiz-adv-x="1313" 
d="M76 0v39q50 1 72 43t22 137v1034q0 99 -22 140t-72 43v39h397v-39q-50 -2 -72 -43t-22 -140v-641l287 318q207 228 259 302.5t52 117.5q0 39 -19.5 60t-58.5 26v39h412v-39q-57 -12 -124.5 -65t-232.5 -232l-223 -244l350 -581l33 -55q125 -211 198 -220l1 -39h-430v39
q28 0 45.5 18t17.5 47q0 25 -18 65.5t-74 131.5l-264 442l-211 -227v-297q0 -97 22 -138t72 -42v-39h-397z" />
    <glyph glyph-name="L" unicode="L" horiz-adv-x="1176" 
d="M86 0v38q51 3 72.5 44.5t21.5 136.5v1034q0 97 -22 139t-72 44v39h401v-39q-50 -2 -72 -43t-22 -140v-1040q0 -96 30 -118.5t138 -22.5q160 0 235.5 14.5t135.5 48.5q39 22 83.5 69t96.5 120l45 -15l-76 -309h-995z" />
    <glyph glyph-name="M" unicode="M" horiz-adv-x="1683" 
d="M-25 0v39q66 16 109.5 89.5t62.5 203.5l132 882v7q2 33 2 67q0 62 -21 95t-72 53v39h326l342 -1182l320 1182h307v-39q-41 -5 -63.5 -33t-22.5 -74q0 -18 1.5 -35.5t4.5 -34.5l143 -1005q14 -96 43 -151t70 -64v-39h-397v39q41 3 65.5 33t24.5 78q0 11 -1 23.5t-3 27.5
l-154 1077l-348 -1294h-103l-385 1294l-135 -932q-5 -32 -7.5 -60t-2.5 -50q0 -87 31.5 -136.5t93.5 -60.5v-39h-363z" />
    <glyph glyph-name="N" unicode="N" horiz-adv-x="1395" 
d="M152 301v940q0 97 -30 143.5t-93 51.5v39h311l825 -1158v727q0 206 -34 291t-117 101v39h329v-39q-59 -36 -82.5 -106t-23.5 -271v-1075h-84l-930 1302v-969q0 -123 36.5 -193.5t107.5 -84.5v-39h-355v39q73 27 106.5 89.5t33.5 172.5z" />
    <glyph glyph-name="O" unicode="O" horiz-adv-x="1470" 
d="M735 25q220 0 323 178t103 561q0 344 -106 516t-320 172q-205 0 -316.5 -187.5t-111.5 -533.5q0 -357 106 -531.5t322 -174.5zM733 -33q-133 0 -237.5 40.5t-194.5 125.5q-111 106 -170 262t-59 340q0 183 61.5 331.5t188.5 270.5q83 82 192.5 126t228.5 44
q111 0 216 -38.5t178 -106.5q127 -121 194.5 -279.5t67.5 -337.5q0 -164 -56.5 -312.5t-164.5 -268.5q-87 -98 -199.5 -147.5t-245.5 -49.5z" />
    <glyph glyph-name="P" unicode="P" horiz-adv-x="1255" 
d="M379 729q37 -7 79 -10.5t91 -3.5q239 0 357 89.5t118 270.5q0 175 -108.5 270t-309.5 95q-130 0 -178.5 -29.5t-48.5 -120.5v-561zM76 0v39q50 1 72 43t22 137v1034q0 99 -22 140t-72 43v39l252 14q71 4 129.5 6t87.5 2q326 0 509 -113.5t183 -312.5t-166 -307.5
t-473 -108.5q-55 0 -110 4.5t-109 12.5v-453q0 -97 22 -138t72 -42v-39h-397z" />
    <glyph glyph-name="Q" unicode="Q" horiz-adv-x="1470" 
d="M981 106q99 73 144.5 230.5t45.5 427.5q0 345 -108.5 516.5t-327.5 171.5q-210 0 -323 -186.5t-113 -534.5q0 -360 106.5 -533t327.5 -173q29 0 49 2.5t35 7.5q-51 110 -113.5 170.5t-123.5 60.5q-21 0 -39.5 -6.5t-36.5 -19.5l-23 28q53 39 95.5 55.5t89.5 16.5
q88 0 170 -60.5t145 -173.5zM1028 41q70 -111 125 -153t127 -42q39 0 70 15t55 45l20 -27q-49 -76 -118.5 -118t-145.5 -42q-95 0 -173 65t-140 196q-25 -7 -53.5 -10t-61.5 -3q-133 0 -238.5 40.5t-193.5 125.5q-111 106 -170 261.5t-59 340.5q0 182 61.5 330t188.5 272
q83 82 192.5 126t228.5 44q111 0 216 -38.5t178 -106.5q127 -119 194.5 -278.5t67.5 -338.5q0 -218 -97 -402.5t-274 -301.5z" />
    <glyph glyph-name="R" unicode="R" horiz-adv-x="1305" 
d="M379 744q28 -6 64.5 -8.5t88.5 -2.5q251 0 371.5 85t120.5 261q0 173 -107 268t-303 95q-133 0 -184 -36t-51 -134v-528zM76 0v39q50 1 72 43t22 137v1034q0 99 -22 140t-72 43v39l334 16q74 3 121.5 4.5t70.5 1.5q297 0 473 -116t176 -308q0 -141 -109 -242.5
t-300 -136.5q109 -311 220.5 -517t223.5 -302v-43q-215 91 -388 307t-288 539q-15 0 -47 -1t-47 -1q-43 0 -131 4h-6v-461q0 -97 22 -138t72 -42v-39h-397z" />
    <glyph glyph-name="S" unicode="S" horiz-adv-x="1161" 
d="M72 158l80 284l45 -8q43 -195 153.5 -301t267.5 -106q141 0 228.5 79.5t87.5 206.5q0 120 -69.5 194.5t-291.5 162.5l-56 22q-207 80 -279 156q-53 56 -80 121.5t-27 138.5q0 171 126.5 285t317.5 114q105 0 216.5 -36.5t226.5 -108.5l-66 -254l-41 8
q-40 155 -134.5 241.5t-221.5 86.5t-203 -66.5t-76 -175.5q0 -98 64 -164t252 -143l58 -24q259 -104 333 -177q56 -54 83.5 -124t27.5 -158q0 -193 -140 -319t-358 -126q-146 0 -280.5 49t-243.5 142z" />
    <glyph glyph-name="T" unicode="T" horiz-adv-x="1270" 
d="M434 0l1 39q50 2 71.5 43.5t21.5 136.5v1124q0 37 -10 48.5t-45 11.5q-171 0 -261.5 -54t-166.5 -190l-45 19l78 297h1114l78 -297l-45 -19q-76 137 -166 190.5t-260 53.5q-36 0 -47 -12t-11 -48v-1124q0 -96 23 -137.5t73 -42.5l1 -39h-404z" />
    <glyph glyph-name="U" unicode="U" horiz-adv-x="1427" 
d="M180 1253q0 97 -22 139t-72 44v39h401v-39q-50 -2 -72 -43t-22 -140v-731q0 -257 87 -362t296 -105q97 0 167 20.5t124 63.5q70 57 98.5 155.5t28.5 336.5v487q0 152 -34.5 229t-108.5 89v39h346v-39q-72 -22 -101.5 -93.5t-29.5 -234.5v-479q0 -208 -21.5 -312.5
t-70.5 -169.5q-71 -91 -183.5 -135.5t-273.5 -44.5q-149 0 -263.5 45.5t-183.5 130.5q-48 61 -69 147.5t-21 272.5v690z" />
    <glyph glyph-name="V" unicode="V" horiz-adv-x="1229" 
d="M551 -33l-436 1274q-30 88 -61.5 134t-71.5 61v39h395v-39q-34 -7 -52 -26.5t-18 -51.5q0 -12 4 -30t12 -45l357 -1066l307 985q6 21 9 43.5t3 44.5q0 53 -29 96.5t-69 49.5v39h346v-39q-70 -30 -117 -96t-86 -189l-368 -1184h-125z" />
    <glyph glyph-name="W" unicode="W" horiz-adv-x="1919" 
d="M588 -16l-453 1257q-29 81 -67 131.5t-78 63.5v39h397v-39q-34 -7 -52 -26.5t-18 -51.5q0 -15 4.5 -35t12.5 -41l366 -1030l218 760l-56 184q-45 153 -76.5 195.5t-80.5 44.5v39h407v-39q-37 -2 -57.5 -25.5t-20.5 -64.5q0 -11 3 -26.5t10 -39.5l301 -1028l125 356
q106 307 147 456.5t41 223.5q0 65 -27 104t-73 44v39h368v-39q-56 -9 -103 -82t-134 -324l-254 -737q-20 -59 -44.5 -139l-50.5 -170h-120l-269 905l-168 -592q-14 -50 -31 -118t-46 -195h-121z" />
    <glyph glyph-name="X" unicode="X" horiz-adv-x="1313" 
d="M0 0v39q59 14 150.5 109t187.5 245l213 334l-322 492q-66 101 -119 157t-87 60v39h440v-39q-28 0 -46 -18t-18 -44q0 -31 45 -98q7 -11 11 -16l243 -381l160 256q33 52 50.5 101t17.5 87q0 51 -25.5 81t-68.5 32l-1 39h406v-39q-67 -25 -130.5 -87t-133.5 -171l-232 -361
l424 -639q50 -75 82.5 -105t65.5 -34v-39h-451v39q38 6 57 24.5t19 49.5q0 15 -12 39.5t-52 85.5l-280 430l-186 -316q-45 -76 -63.5 -125t-18.5 -86q0 -40 18.5 -66.5t52.5 -35.5v-39h-397z" />
    <glyph glyph-name="Y" unicode="Y" horiz-adv-x="1262" 
d="M424 0v38q50 2 73 44.5t23 136.5v375l-342 619l-9 16q-113 201 -179 209v37h413v-37q-33 -4 -49 -18t-16 -40q0 -20 18.5 -63t55.5 -109l282 -516l244 447q29 53 45 105t16 89q0 42 -27 72.5t-67 32.5v37h365v-37q-51 -6 -94 -49.5t-129 -198.5l-318 -580v-391
q0 -97 21.5 -137.5t72.5 -42.5v-39h-399z" />
    <glyph glyph-name="Z" unicode="Z" horiz-adv-x="1233" 
d="M0 0v33l903 1370h-190q-162 0 -237 -14.5t-134 -49.5q-37 -21 -83 -69t-99 -121l-41 14l61 312h1014l-926 -1403h355q185 0 302 64t210 214l49 -16l-84 -334h-1100z" />
    <glyph glyph-name="bracketleft" unicode="[" horiz-adv-x="772" 
d="M295 -451v1926h455l-1 -58q-34 3 -55.5 4.5t-34.5 1.5q-109 0 -149.5 -38t-40.5 -179v-1388q0 -141 40.5 -179t149.5 -38q13 0 34.5 1.5t55.5 4.5l1 -58h-455z" />
    <glyph glyph-name="backslash" unicode="\" horiz-adv-x="768" 
d="M831 -190l-884 1660l71 37l885 -1659z" />
    <glyph glyph-name="bracketright" unicode="]" horiz-adv-x="772" 
d="M479 1475v-1926h-454v58q35 -3 56 -4.5t34 -1.5q108 0 148 37.5t40 179.5v1388q0 142 -40 179.5t-148 37.5q-13 0 -34 -1.5t-56 -4.5v58h454z" />
    <glyph glyph-name="asciicircum" unicode="^" horiz-adv-x="2048" 
d="M926 1462h194l512 -565h-98l-512 420l-514 -420h-96z" />
    <glyph glyph-name="underscore" unicode="_" 
d="M0 -340h1024v-143h-1024v143z" />
    <glyph glyph-name="grave" unicode="`" 
d="M399 1419l289 -299h-67l-330 205q-31 20 -46.5 41t-15.5 43q0 30 20.5 50t51.5 20q21 0 42 -12t56 -48z" />
    <glyph glyph-name="a" unicode="a" horiz-adv-x="905" 
d="M588 573q-203 -84 -280 -156.5t-77 -168.5q0 -79 41.5 -128.5t106.5 -49.5q48 0 103.5 34.5t105.5 96.5v372zM889 74q-37 -51 -80.5 -77t-91.5 -26q-65 0 -97 36t-32 108v6q-82 -73 -163.5 -111.5t-156.5 -38.5q-100 0 -158.5 59.5t-58.5 159.5q0 124 107.5 216.5
t429.5 222.5v147q0 92 -32 137t-95 45q-57 0 -89 -28.5t-61 -128.5q-12 -43 -43 -69.5t-69 -26.5q-39 0 -66 27.5t-27 68.5q0 85 102.5 147t254.5 62q159 0 229 -64t70 -211v-588q0 -47 11 -68.5t34 -21.5q17 0 29.5 9.5t23.5 29.5z" />
    <glyph glyph-name="b" unicode="b" horiz-adv-x="1014" 
d="M307 752v-443q0 -136 58.5 -210t164.5 -74q112 0 172 106.5t60 304.5q0 231 -59.5 345t-178.5 114q-62 0 -117.5 -36.5t-99.5 -106.5zM59 90q37 25 55.5 78.5t18.5 136.5v914q0 66 -18 93t-64 31v31q65 17 121 50.5t102 82.5h33v-678q64 91 139.5 136t161.5 45
q155 0 245.5 -124t90.5 -337q0 -257 -116.5 -417.5t-297.5 -160.5q-101 0 -230.5 55.5t-162.5 55.5q-13 0 -28.5 -4.5t-32.5 -13.5z" />
    <glyph glyph-name="c" unicode="c" horiz-adv-x="854" 
d="M788 213l31 -23q-75 -105 -169 -162t-191 -57q-180 0 -289 135.5t-109 360.5q0 241 124 392t321 151q119 0 208 -66.5t89 -150.5q0 -42 -24.5 -68.5t-63.5 -26.5q-82 0 -111 118q-3 11 -4 15q-15 62 -49.5 92.5t-89.5 30.5q-107 0 -165 -103t-58 -294q0 -214 83 -341.5
t220 -127.5q70 0 132.5 31.5t114.5 93.5z" />
    <glyph glyph-name="d" unicode="d" horiz-adv-x="1028" 
d="M717 221v373q0 173 -65 268.5t-181 95.5q-106 0 -162.5 -107.5t-56.5 -309.5q0 -222 65 -345.5t181 -123.5q62 0 119.5 39t99.5 110zM717 133q-61 -79 -138 -120.5t-163 -41.5q-156 0 -250 127.5t-94 341.5q0 257 112 413.5t293 156.5q76 0 137.5 -31t102.5 -88v328
q0 66 -18.5 93t-63.5 31v31q64 17 120.5 50.5t102.5 82.5h33v-1337q0 -70 17.5 -100t57.5 -31l1 -39h-250v133z" />
    <glyph glyph-name="e" unicode="e" horiz-adv-x="901" 
d="M240 608h299q73 0 89.5 9.5t16.5 37.5q0 146 -51 224.5t-145 78.5q-104 0 -156.5 -85t-52.5 -255v-10zM807 215l39 -25q-72 -108 -164 -163.5t-201 -55.5q-183 0 -301.5 140.5t-118.5 361.5q0 248 107.5 392.5t290.5 144.5q159 0 254.5 -122.5t105.5 -342.5h-579
q4 -215 91 -338t232 -123q72 0 133 33t111 98z" />
    <glyph glyph-name="f" unicode="f" horiz-adv-x="522" 
d="M76 0v39q39 1 57.5 32t18.5 99v745h-127v66h127q-3 55 -10 138t-7 110q0 129 62 203.5t168 74.5q71 0 119 -37.5t48 -93.5q0 -36 -22 -60t-55 -24q-37 0 -58.5 16t-44.5 74q-12 31 -24 40.5t-33 9.5t-36 -17t-15 -41q0 -18 44 -146t44 -241v-6h194v-66h-194v-745
q0 -70 17.5 -100t57.5 -31l1 -39h-332z" />
    <glyph glyph-name="g" unicode="g" horiz-adv-x="977" 
d="M291 -12q-58 -32 -87.5 -79.5t-29.5 -109.5q0 -89 75 -142.5t202 -53.5q167 0 255.5 47.5t88.5 136.5q0 74 -82 113t-422 88zM258 655q0 -147 45.5 -218.5t138.5 -71.5q95 0 145 75t50 217q0 154 -47 232t-139 78q-99 0 -146 -76.5t-47 -235.5zM231 0q-84 23 -129 63
t-45 93q0 54 47 103.5t148 102.5q-86 49 -131 123t-45 166q0 150 113.5 254.5t281.5 104.5q79 0 142.5 -28.5t115.5 -86.5q75 66 120 93.5t77 27.5q34 0 61 -26.5t27 -59.5q0 -34 -25 -56t-63 -22q-22 0 -45 10t-56 33h-2q-8 0 -20.5 -8.5t-36.5 -30.5q26 -37 39.5 -82
t13.5 -96q0 -153 -112 -254.5t-281 -101.5q-33 0 -65 5.5t-64 16.5q-60 -37 -85.5 -64.5t-25.5 -56.5q0 -31 34 -49.5t128 -34.5q37 -6 104 -18q311 -53 365 -86q64 -39 93.5 -89t29.5 -118q0 -127 -125.5 -203t-341.5 -76q-213 0 -330.5 57.5t-117.5 160.5q0 64 48.5 119.5
t157.5 113.5z" />
    <glyph glyph-name="h" unicode="h" horiz-adv-x="973" 
d="M66 0v39q40 2 57.5 32.5t17.5 98.5v1049q0 67 -17.5 93.5t-62.5 30.5v31q65 17 121.5 50.5t102.5 82.5h32v-682l38 24q250 161 337 161q69 0 108.5 -51t39.5 -140v-649q0 -70 17 -99.5t58 -31.5v-39h-327v39q41 2 58.5 31.5t17.5 99.5v561q0 79 -20.5 108t-72.5 29
q-39 0 -102.5 -25t-151.5 -75v-598q0 -70 17.5 -99.5t58.5 -31.5v-39h-327z" />
    <glyph glyph-name="i" unicode="i" horiz-adv-x="473" 
d="M76 0v39q39 1 57.5 32t18.5 99v588q0 68 -18 95t-62 32v30q63 17 118.5 50t104.5 84h37v-879q0 -70 17.5 -100t57.5 -31l1 -39h-332zM240 1214q-50 0 -86.5 37t-36.5 86q0 50 36 86.5t87 36.5q52 0 87 -35t35 -88q0 -50 -36 -86.5t-86 -36.5z" />
    <glyph glyph-name="j" unicode="j" horiz-adv-x="473" 
d="M152 29v729q0 68 -18 95t-62 32v30q63 17 118.5 50t104.5 84h37v-1020q0 -55 7 -135.5t7 -110.5q0 -105 -59.5 -169.5t-155.5 -64.5q-64 0 -106.5 37t-42.5 92q0 37 21.5 61.5t53.5 24.5q49 0 82 -64.5t51 -64.5q14 0 20.5 14t6.5 42q0 36 -31 122l-8 21q-14 36 -20 70.5
t-6 81.5v43zM240 1214q-50 0 -86.5 37t-36.5 86q0 50 36 86.5t87 36.5q52 0 87 -35t35 -88q0 -50 -36 -86.5t-86 -36.5z" />
    <glyph glyph-name="k" unicode="k" horiz-adv-x="948" 
d="M66 0v39q40 2 57.5 32.5t17.5 98.5v1049q0 67 -17.5 93.5t-62.5 30.5v31q65 17 121.5 50.5t102.5 82.5h32v-1073l205 232q62 70 91.5 119t29.5 83q0 30 -15 50.5t-40 25.5v37h342v-37q-34 -6 -79.5 -38t-96.5 -87l-205 -219l244 -395q60 -100 91.5 -132.5t59.5 -33.5v-39
h-354v39q26 0 38.5 9.5t12.5 29.5q0 14 -8.5 36t-24.5 50l-184 307l-107 -113v-188q0 -70 17.5 -99.5t58.5 -31.5v-39h-327z" />
    <glyph glyph-name="l" unicode="l" horiz-adv-x="465" 
d="M66 0v39q40 2 57.5 32.5t17.5 98.5v1049q0 67 -17.5 93.5t-62.5 30.5v31q65 17 121.5 50.5t102.5 82.5h37v-1337q0 -70 17 -99.5t58 -31.5v-39h-331z" />
    <glyph glyph-name="m" unicode="m" horiz-adv-x="1493" 
d="M66 0v39q40 2 57.5 32.5t17.5 98.5v551q0 67 -17.5 93.5t-62.5 31.5v31q65 16 121.5 50t102.5 83h32v-185l38 24q250 161 337 161q71 0 109.5 -40.5t38.5 -115.5v-29l37 24q250 161 337 161q69 0 107.5 -50.5t38.5 -140.5v-649q0 -70 17.5 -100t57.5 -31l1 -39h-326v38
q41 3 58.5 32.5t17.5 99.5v561q0 78 -21 107.5t-73 29.5q-39 0 -102.5 -25t-149.5 -75v-598q0 -70 17 -99.5t58 -31.5v-39h-327v39q41 2 58.5 31.5t17.5 99.5v561q0 79 -20.5 108t-72.5 29q-39 0 -102.5 -25t-151.5 -75v-598q0 -70 17.5 -99.5t58.5 -31.5v-39h-327z" />
    <glyph glyph-name="n" unicode="n" horiz-adv-x="973" 
d="M66 0v39q40 2 57.5 32.5t17.5 98.5v551q0 67 -17.5 93.5t-62.5 31.5v31q65 16 121.5 50t102.5 83h32v-185l38 24q250 161 337 161q69 0 108.5 -51t39.5 -140v-649q0 -70 17 -99.5t58 -31.5v-39h-327v39q41 2 58.5 31.5t17.5 99.5v561q0 79 -20.5 108t-72.5 29
q-39 0 -102.5 -25t-151.5 -75v-598q0 -70 17.5 -99.5t58.5 -31.5v-39h-327z" />
    <glyph glyph-name="o" unicode="o" horiz-adv-x="991" 
d="M496 25q115 0 172 114.5t57 345.5q0 241 -56.5 357t-172.5 116q-115 0 -172.5 -115.5t-57.5 -346.5q0 -239 57 -355t173 -116zM496 -29q-189 0 -312 146t-123 375q0 228 122.5 373t312.5 145q189 0 311.5 -145t122.5 -373q0 -229 -123 -375t-311 -146z" />
    <glyph glyph-name="p" unicode="p" 
d="M307 754v-334q0 -190 58.5 -291.5t166.5 -101.5q119 0 177.5 110.5t58.5 335.5q0 199 -64 308.5t-180 109.5q-59 0 -113.5 -34.5t-103.5 -102.5zM57 -451v39q40 2 58 32.5t18 98.5v1002q0 66 -18 93t-64 32v31q65 16 121 50t102 83h33v-185q67 93 144.5 139t169.5 46
q149 0 240 -133.5t91 -358.5q0 -237 -113 -392t-280 -155q-74 0 -136 30t-116 91v-373q0 -70 17.5 -99.5t58.5 -31.5v-39h-326z" />
    <glyph glyph-name="q" unicode="q" horiz-adv-x="1010" 
d="M711 219v420q0 155 -55.5 236t-159.5 81q-121 0 -181.5 -107.5t-60.5 -322.5q0 -219 62 -332.5t182 -113.5q60 0 113.5 35t99.5 104zM635 -451v39q40 2 58 32.5t18 98.5v416q-64 -80 -139 -122t-154 -42q-159 0 -253.5 125t-94.5 338q0 256 125.5 416t322.5 160
q64 0 126 -24t126 -73l84 97h33v-1291q0 -70 17.5 -99.5t57.5 -31.5l1 -39h-328z" />
    <glyph glyph-name="r" unicode="r" horiz-adv-x="721" 
d="M76 0v39q39 1 57.5 32t18.5 99v551q0 67 -18 93.5t-62 31.5v31q64 16 120 49.5t103 81.5h37v-197q84 102 149 150.5t117 48.5q47 0 74.5 -31.5t27.5 -85.5q0 -48 -32.5 -80.5t-81.5 -32.5q-23 0 -66 16.5t-71 16.5q-29 0 -58 -20t-59 -60v-563q0 -70 17.5 -100t57.5 -31
l1 -39h-332z" />
    <glyph glyph-name="s" unicode="s" horiz-adv-x="819" 
d="M61 106l68 201l35 -8q27 -126 103 -200t175 -74q75 0 125.5 48.5t50.5 119.5q0 61 -39 103t-187 111l-8 4q-288 136 -288 306q0 132 87.5 212.5t230.5 80.5q71 0 142.5 -28t143.5 -83l-63 -180l-33 8q-24 109 -81.5 169t-137.5 60q-71 0 -119.5 -44.5t-48.5 -110.5
q0 -59 44.5 -102.5t162.5 -94.5l25 -11q309 -136 309 -314q0 -138 -95.5 -223t-252.5 -85q-84 0 -172.5 34.5t-176.5 100.5z" />
    <glyph glyph-name="t" unicode="t" horiz-adv-x="584" 
d="M170 915h-127v46q97 67 156 172t90 266h57v-418h176v-66h-172v-673q0 -77 17.5 -110.5t56.5 -33.5q21 0 41 9t37 26l28 -24q-31 -66 -85 -102t-119 -36q-80 0 -118 48t-38 149v747z" />
    <glyph glyph-name="u" unicode="u" horiz-adv-x="963" 
d="M653 0v158q-174 -118 -246.5 -152.5t-125.5 -34.5q-69 0 -108.5 51.5t-39.5 141.5v594q0 66 -18.5 94t-63.5 33v30q63 17 119.5 50.5t103.5 83.5h33v-795q0 -73 22 -102t74 -29q45 0 109 24t141 70v506q0 83 -17 116.5t-60 43.5l-1 35q55 17 109.5 49t112.5 82h32v-836
q0 -92 21.5 -129.5t72.5 -44.5l1 -39h-271z" />
    <glyph glyph-name="v" unicode="v" horiz-adv-x="797" 
d="M352 -18l-276 835q-18 55 -41.5 89t-44.5 38v37h317v-37q-30 -3 -43.5 -17.5t-13.5 -43.5q0 -20 5 -46.5t15 -60.5l185 -575l155 524q9 30 13 54t4 44q0 50 -18.5 81t-53.5 41v36h264v-37q-42 -18 -81.5 -88t-80.5 -201l-211 -673h-94z" />
    <glyph glyph-name="w" unicode="w" horiz-adv-x="1346" 
d="M373 -18l-271 774q-37 105 -61 144t-51 44v37h327v-37q-25 -4 -42 -22.5t-17 -42.5q0 -9 7 -34q4 -12 5 -17l201 -631l150 583l-9 29q-17 65 -42 98.5t-58 37.5v36h340v-37q-28 -9 -41.5 -26.5t-13.5 -45.5q0 -6 2 -15t8 -30l172 -630l121 401q21 69 33 131.5t12 93.5
q0 45 -19.5 77.5t-52.5 43.5v37h297v-37q-50 -16 -99.5 -96.5t-92.5 -218.5l-203 -647h-103l-208 708l-189 -708h-102z" />
    <glyph glyph-name="x" unicode="x" horiz-adv-x="868" 
d="M268 211q-15 -24 -22.5 -50.5t-7.5 -51.5q0 -33 17 -51t48 -19v-39h-303v38q38 3 83.5 40.5t88.5 103.5l193 297l-189 340q-31 56 -62.5 90.5t-50.5 34.5h-4v37h318v-37q-21 -4 -30 -14.5t-9 -30.5q0 -11 2.5 -20.5t7.5 -18.5l131 -239l103 167q14 24 21 45t7 37
q0 30 -18 51t-47 23v37h289l-1 -37q-39 -6 -80.5 -44.5t-97.5 -123.5l-141 -213l234 -413q30 -54 59.5 -81t60.5 -30v-39h-346v39h4q21 0 34 11t13 28q0 10 -4 24t-10 25l-162 293z" />
    <glyph glyph-name="y" unicode="y" horiz-adv-x="844" 
d="M375 0l-273 803q-20 63 -46.5 99.5t-55.5 42.5v36h328v-37q-30 -6 -45 -22.5t-15 -42.5q0 -3 1 -7t3 -11l201 -630l162 500q9 27 13.5 54.5t4.5 56.5q0 43 -19 70.5t-52 31.5v37h280v-37q-43 -14 -84.5 -79.5t-87.5 -192.5l-274 -774q-71 -201 -129.5 -275t-136.5 -74
q-55 0 -90 28.5t-35 72.5q0 40 26 70t62 30q18 0 54.5 -15.5t57.5 -15.5q40 0 74.5 59.5t65.5 180.5z" />
    <glyph glyph-name="z" unicode="z" horiz-adv-x="834" 
d="M0 0l604 915h-106q-136 0 -218.5 -40.5t-152.5 -139.5l-31 8l60 238h671v-39l-577 -874q14 -1 28.5 -1.5t36.5 -0.5q201 0 301.5 46t178.5 160l39 -12l-76 -260h-758z" />
    <glyph glyph-name="braceleft" unicode="{" 
d="M848 1516v-53q-136 -2 -186 -55t-50 -210v-141q0 -227 -59 -308.5t-217 -113.5q159 -32 217.5 -113.5t58.5 -308.5v-141q0 -157 49.5 -209t186.5 -54v-53h-10q-219 0 -301 74t-82 272v207q0 161 -59 221.5t-218 73.5v64q161 13 219 73.5t58 221.5v206q0 199 82 273
t301 74h10z" />
    <glyph glyph-name="bar" unicode="|" 
d="M438 1565h150v-2048h-150v2048z" />
    <glyph glyph-name="braceright" unicode="}" 
d="M176 1516h10q220 0 302.5 -74t82.5 -273v-206q0 -161 58 -221.5t219 -73.5v-64q-161 -13 -219 -73.5t-58 -221.5v-207q0 -198 -82.5 -272t-302.5 -74h-10v53q137 2 186.5 54.5t49.5 208.5v141q0 227 58.5 308.5t217.5 113.5q-158 32 -217 113.5t-59 308.5v141
q0 157 -50 210t-186 55v53z" />
    <glyph glyph-name="asciitilde" unicode="~" horiz-adv-x="1706" 
d="M1530 770v-156q-104 -72 -199 -106.5t-190 -34.5q-93 0 -256 58q-22 8 -34 12l-15 5q-176 60 -273 60q-84 0 -175 -37t-210 -120v155q106 72 202 108t185 36q62 0 127.5 -13.5t163.5 -48.5q16 -5 47 -17q159 -57 240 -57q88 0 179.5 37t207.5 119z" />
    <glyph glyph-name="Adieresis" unicode="&#xc4;" horiz-adv-x="1241" 
d="M319 551h459l-221 729zM-47 0v39q76 26 127.5 97.5t105.5 240.5l369 1130h129l408 -1257q35 -109 68.5 -159t71.5 -52l1 -39h-399v39q32 7 51.5 27.5t19.5 48.5q0 21 -17 76l-8 25l-81 263h-504l-64 -197q-9 -30 -13.5 -57t-4.5 -49q0 -57 25.5 -92t74.5 -45v-39h-360z
M797 1874q40 0 69 -30t29 -70q0 -43 -27.5 -71.5t-70.5 -28.5t-71.5 28.5t-28.5 71.5q0 40 30 70t70 30zM445 1874q40 0 70 -30t30 -70q0 -43 -28.5 -71.5t-71.5 -28.5t-70.5 28.5t-27.5 71.5q0 40 29 70t69 30z" />
    <glyph glyph-name="Aring" unicode="&#xc5;" horiz-adv-x="1241" 
d="M621 1884q-60 0 -102 -42t-42 -101t42 -100.5t102 -41.5q61 0 104 41.5t43 100.5t-43.5 101t-103.5 42zM621 1972q99 0 168 -67t69 -164q0 -96 -69 -163t-168 -67t-166.5 67.5t-67.5 164.5q0 96 68 162.5t166 66.5zM319 539h459l-221 714zM-47 0v37q76 25 127 94t106 238
l363 1077h145l398 -1200q36 -108 70 -158t70 -51l1 -37h-399v37q34 9 52.5 28t18.5 46q0 21 -17 76q-5 16 -7 23l-82 259h-504l-64 -193q-8 -27 -13 -55t-5 -49q0 -56 26 -91t74 -44v-37h-360z" />
    <glyph glyph-name="Ccedilla" unicode="&#xc7;" horiz-adv-x="1374" 
d="M1323 332q-115 -188 -259 -276.5t-335 -88.5q-298 0 -477.5 198.5t-179.5 528.5q0 208 68.5 377.5t201.5 290.5q75 69 184 107t230 38q118 0 242.5 -43t258.5 -131l-77 -248l-47 7q-56 173 -163.5 263.5t-258.5 90.5q-196 0 -316.5 -172.5t-120.5 -458.5
q0 -322 153.5 -526.5t391.5 -204.5q138 0 253 68t214 206zM655 0h64v-112q18 3 32 4l29 2q86 0 134 -43.5t48 -120.5q0 -82 -58 -129t-161 -47q-54 0 -121.5 17t-171.5 58l35 78q61 -34 119.5 -53t103.5 -19q63 0 92 22.5t29 70.5q0 42 -30 66t-84 24q-12 0 -27.5 -1.5
t-32.5 -4.5v188z" />
    <glyph glyph-name="Eacute" unicode="&#xc9;" horiz-adv-x="1255" 
d="M76 0v39q50 1 72 43t22 137v1034q0 99 -22 140t-72 43v39h1030l24 -287l-43 -6q-46 125 -136 173t-353 48h-63q-110 0 -133 -18.5t-23 -96.5v-420h213q168 0 236.5 31.5t95.5 110.5h34v-351h-36q-27 78 -81 108t-220 30h-29h-213v-584q0 -98 32 -120.5t167 -22.5
q162 0 231 7t121 23q66 22 127 74.5t129 147.5l43 -23l-86 -299h-1067zM839 1823l-330 -205h-67l289 299q35 36 56 48t42 12q31 0 51.5 -20t20.5 -50q0 -22 -15.5 -43t-46.5 -41z" />
    <glyph glyph-name="Ntilde" unicode="&#xd1;" horiz-adv-x="1395" 
d="M152 301v940q0 97 -30 143.5t-93 51.5v39h311l825 -1158v727q0 206 -34 291t-117 101v39h329v-39q-59 -36 -82.5 -106t-23.5 -271v-1075h-84l-930 1302v-969q0 -123 36.5 -193.5t107.5 -84.5v-39h-355v39q73 27 106.5 89.5t33.5 172.5zM921 1915h54q-20 -103 -68.5 -154
t-126.5 -51q-14 0 -32 2.5t-42 8.5l-108 28q-12 3 -26.5 4.5t-30.5 1.5q-33 0 -53.5 -20.5t-35.5 -69.5h-51q19 106 68 158.5t129 52.5q19 0 34 -2t29 -6l111 -29q14 -3 29 -5.5t26 -2.5q37 0 58.5 19t35.5 65z" />
    <glyph glyph-name="Odieresis" unicode="&#xd6;" horiz-adv-x="1470" 
d="M735 25q220 0 323 178t103 561q0 344 -106 516t-320 172q-205 0 -316.5 -187.5t-111.5 -533.5q0 -357 106 -531.5t322 -174.5zM733 -33q-133 0 -237.5 40.5t-194.5 125.5q-111 106 -170 262t-59 340q0 183 61.5 331.5t188.5 270.5q83 82 192.5 126t228.5 44
q111 0 216 -38.5t178 -106.5q127 -121 194.5 -279.5t67.5 -337.5q0 -164 -56.5 -312.5t-164.5 -268.5q-87 -98 -199.5 -147.5t-245.5 -49.5zM917 1874q40 0 69 -30t29 -70q0 -43 -27.5 -71.5t-70.5 -28.5t-71.5 28.5t-28.5 71.5q0 40 30 70t70 30zM565 1874q40 0 70 -30
t30 -70q0 -43 -28.5 -71.5t-71.5 -28.5t-70.5 28.5t-27.5 71.5q0 40 29 70t69 30z" />
    <glyph glyph-name="Udieresis" unicode="&#xdc;" horiz-adv-x="1427" 
d="M180 1253q0 97 -22 139t-72 44v39h401v-39q-50 -2 -72 -43t-22 -140v-731q0 -257 87 -362t296 -105q97 0 167 20.5t124 63.5q70 57 98.5 155.5t28.5 336.5v487q0 152 -34.5 229t-108.5 89v39h346v-39q-72 -22 -101.5 -93.5t-29.5 -234.5v-479q0 -208 -21.5 -312.5
t-70.5 -169.5q-71 -91 -183.5 -135.5t-273.5 -44.5q-149 0 -263.5 45.5t-183.5 130.5q-48 61 -69 147.5t-21 272.5v690zM958 1874q40 0 69 -30t29 -70q0 -43 -27.5 -71.5t-70.5 -28.5t-71.5 28.5t-28.5 71.5q0 40 30 70t70 30zM606 1874q40 0 70 -30t30 -70
q0 -43 -28.5 -71.5t-71.5 -28.5t-70.5 28.5t-27.5 71.5q0 40 29 70t69 30z" />
    <glyph glyph-name="aacute" unicode="&#xe1;" horiz-adv-x="905" 
d="M588 573q-203 -84 -280 -156.5t-77 -168.5q0 -79 41.5 -128.5t106.5 -49.5q48 0 103.5 34.5t105.5 96.5v372zM889 74q-37 -51 -80.5 -77t-91.5 -26q-65 0 -97 36t-32 108v6q-82 -73 -163.5 -111.5t-156.5 -38.5q-100 0 -158.5 59.5t-58.5 159.5q0 124 107.5 216.5
t429.5 222.5v147q0 92 -32 137t-95 45q-57 0 -89 -28.5t-61 -128.5q-12 -43 -43 -69.5t-69 -26.5q-39 0 -66 27.5t-27 68.5q0 85 102.5 147t254.5 62q159 0 229 -64t70 -211v-588q0 -47 11 -68.5t34 -21.5q17 0 29.5 9.5t23.5 29.5zM667 1325l-330 -205h-67l289 299
q35 36 56 48t42 12q31 0 51.5 -20t20.5 -50q0 -22 -15.5 -43t-46.5 -41z" />
    <glyph glyph-name="agrave" unicode="&#xe0;" horiz-adv-x="905" 
d="M588 573q-203 -84 -280 -156.5t-77 -168.5q0 -79 41.5 -128.5t106.5 -49.5q48 0 103.5 34.5t105.5 96.5v372zM889 74q-37 -51 -80.5 -77t-91.5 -26q-65 0 -97 36t-32 108v6q-82 -73 -163.5 -111.5t-156.5 -38.5q-100 0 -158.5 59.5t-58.5 159.5q0 124 107.5 216.5
t429.5 222.5v147q0 92 -32 137t-95 45q-57 0 -89 -28.5t-61 -128.5q-12 -43 -43 -69.5t-69 -26.5q-39 0 -66 27.5t-27 68.5q0 85 102.5 147t254.5 62q159 0 229 -64t70 -211v-588q0 -47 11 -68.5t34 -21.5q17 0 29.5 9.5t23.5 29.5zM333 1419l289 -299h-67l-330 205
q-31 20 -46.5 41t-15.5 43q0 30 20.5 50t51.5 20q21 0 42 -12t56 -48z" />
    <glyph glyph-name="acircumflex" unicode="&#xe2;" horiz-adv-x="905" 
d="M588 573q-203 -84 -280 -156.5t-77 -168.5q0 -79 41.5 -128.5t106.5 -49.5q48 0 103.5 34.5t105.5 96.5v372zM889 74q-37 -51 -80.5 -77t-91.5 -26q-65 0 -97 36t-32 108v6q-82 -73 -163.5 -111.5t-156.5 -38.5q-100 0 -158.5 59.5t-58.5 159.5q0 124 107.5 216.5
t429.5 222.5v147q0 92 -32 137t-95 45q-57 0 -89 -28.5t-61 -128.5q-12 -43 -43 -69.5t-69 -26.5q-39 0 -66 27.5t-27 68.5q0 85 102.5 147t254.5 62q159 0 229 -64t70 -211v-588q0 -47 11 -68.5t34 -21.5q17 0 29.5 9.5t23.5 29.5zM387 1470h118l232 -350h-58l-233 211
l-233 -211h-58z" />
    <glyph glyph-name="adieresis" unicode="&#xe4;" horiz-adv-x="905" 
d="M588 573q-203 -84 -280 -156.5t-77 -168.5q0 -79 41.5 -128.5t106.5 -49.5q48 0 103.5 34.5t105.5 96.5v372zM889 74q-37 -51 -80.5 -77t-91.5 -26q-65 0 -97 36t-32 108v6q-82 -73 -163.5 -111.5t-156.5 -38.5q-100 0 -158.5 59.5t-58.5 159.5q0 124 107.5 216.5
t429.5 222.5v147q0 92 -32 137t-95 45q-57 0 -89 -28.5t-61 -128.5q-12 -43 -43 -69.5t-69 -26.5q-39 0 -66 27.5t-27 68.5q0 85 102.5 147t254.5 62q159 0 229 -64t70 -211v-588q0 -47 11 -68.5t34 -21.5q17 0 29.5 9.5t23.5 29.5zM622 1376q40 0 69 -30t29 -70
q0 -43 -27.5 -71.5t-70.5 -28.5t-71.5 28.5t-28.5 71.5q0 40 30 70t70 30zM270 1376q40 0 70 -30t30 -70q0 -43 -28.5 -71.5t-71.5 -28.5t-70.5 28.5t-27.5 71.5q0 40 29 70t69 30z" />
    <glyph glyph-name="atilde" unicode="&#xe3;" horiz-adv-x="905" 
d="M588 573q-203 -84 -280 -156.5t-77 -168.5q0 -79 41.5 -128.5t106.5 -49.5q48 0 103.5 34.5t105.5 96.5v372zM889 74q-37 -51 -80.5 -77t-91.5 -26q-65 0 -97 36t-32 108v6q-82 -73 -163.5 -111.5t-156.5 -38.5q-100 0 -158.5 59.5t-58.5 159.5q0 124 107.5 216.5
t429.5 222.5v147q0 92 -32 137t-95 45q-57 0 -89 -28.5t-61 -128.5q-12 -43 -43 -69.5t-69 -26.5q-39 0 -66 27.5t-27 68.5q0 85 102.5 147t254.5 62q159 0 229 -64t70 -211v-588q0 -47 11 -68.5t34 -21.5q17 0 29.5 9.5t23.5 29.5zM679 1417h54q-20 -103 -68.5 -154
t-126.5 -51q-14 0 -32 2.5t-42 8.5l-108 28q-12 3 -26.5 4.5t-30.5 1.5q-33 0 -53.5 -20.5t-35.5 -69.5h-51q19 106 68 158.5t129 52.5q19 0 34 -2t29 -6l111 -29q14 -3 29 -5.5t26 -2.5q37 0 58.5 19t35.5 65z" />
    <glyph glyph-name="aring" unicode="&#xe5;" horiz-adv-x="905" 
d="M461 1466q-62 0 -106 -43.5t-44 -105.5t44 -106t106 -44t105.5 44t43.5 106q0 63 -43 106t-106 43zM461 1556q101 0 170 -69t69 -170q0 -102 -69 -172t-170 -70q-102 0 -172 70t-70 172q0 101 70 170t172 69zM588 573q-203 -84 -280 -156.5t-77 -168.5q0 -79 41.5 -128.5
t106.5 -49.5q48 0 103.5 34.5t105.5 96.5v372zM889 74q-37 -51 -80.5 -77t-91.5 -26q-65 0 -97 36t-32 108v6q-82 -73 -163.5 -111.5t-156.5 -38.5q-100 0 -158.5 59.5t-58.5 159.5q0 124 107.5 216.5t429.5 222.5v147q0 92 -32 137t-95 45q-57 0 -88.5 -28t-63.5 -129
q-10 -43 -41 -69.5t-69 -26.5q-39 0 -66 27.5t-27 68.5q0 85 102.5 147t254.5 62q159 0 229 -64t70 -211v-588q0 -47 11 -68.5t34 -21.5q17 0 29.5 9.5t23.5 29.5z" />
    <glyph glyph-name="ccedilla" unicode="&#xe7;" horiz-adv-x="854" 
d="M788 213l31 -23q-75 -105 -169 -162t-191 -57q-180 0 -289 135.5t-109 360.5q0 241 124 392t321 151q119 0 208 -66.5t89 -150.5q0 -42 -24.5 -68.5t-63.5 -26.5q-82 0 -111 118q-3 11 -4 15q-15 62 -49.5 92.5t-89.5 30.5q-107 0 -165 -103t-58 -294q0 -214 83 -341.5
t220 -127.5q70 0 132.5 31.5t114.5 93.5zM409 0h64v-112q18 3 32 4l29 2q86 0 134 -43.5t48 -120.5q0 -82 -58 -129t-161 -47q-54 0 -121.5 17t-171.5 58l35 78q61 -34 119.5 -53t103.5 -19q63 0 92 22.5t29 70.5q0 42 -30 66t-84 24q-12 0 -27.5 -1.5t-32.5 -4.5v188z" />
    <glyph glyph-name="eacute" unicode="&#xe9;" horiz-adv-x="901" 
d="M240 608h299q73 0 89.5 9.5t16.5 37.5q0 146 -51 224.5t-145 78.5q-104 0 -156.5 -85t-52.5 -255v-10zM807 215l39 -25q-72 -108 -164 -163.5t-201 -55.5q-183 0 -301.5 140.5t-118.5 361.5q0 248 107.5 392.5t290.5 144.5q159 0 254.5 -122.5t105.5 -342.5h-579
q4 -215 91 -338t232 -123q72 0 133 33t111 98zM672 1325l-330 -205h-67l289 299q35 36 56 48t42 12q31 0 51.5 -20t20.5 -50q0 -22 -15.5 -43t-46.5 -41z" />
    <glyph glyph-name="egrave" unicode="&#xe8;" horiz-adv-x="901" 
d="M240 608h299q73 0 89.5 9.5t16.5 37.5q0 146 -51 224.5t-145 78.5q-104 0 -156.5 -85t-52.5 -255v-10zM807 215l39 -25q-72 -108 -164 -163.5t-201 -55.5q-183 0 -301.5 140.5t-118.5 361.5q0 248 107.5 392.5t290.5 144.5q159 0 254.5 -122.5t105.5 -342.5h-579
q4 -215 91 -338t232 -123q72 0 133 33t111 98zM338 1419l289 -299h-67l-330 205q-31 20 -46.5 41t-15.5 43q0 30 20.5 50t51.5 20q21 0 42 -12t56 -48z" />
    <glyph glyph-name="ecircumflex" unicode="&#xea;" horiz-adv-x="901" 
d="M240 608h299q73 0 89.5 9.5t16.5 37.5q0 146 -51 224.5t-145 78.5q-104 0 -156.5 -85t-52.5 -255v-10zM807 215l39 -25q-72 -108 -164 -163.5t-201 -55.5q-183 0 -301.5 140.5t-118.5 361.5q0 248 107.5 392.5t290.5 144.5q159 0 254.5 -122.5t105.5 -342.5h-579
q4 -215 91 -338t232 -123q72 0 133 33t111 98zM392 1470h118l232 -350h-58l-233 211l-233 -211h-58z" />
    <glyph glyph-name="edieresis" unicode="&#xeb;" horiz-adv-x="901" 
d="M240 608h299q73 0 89.5 9.5t16.5 37.5q0 146 -51 224.5t-145 78.5q-104 0 -156.5 -85t-52.5 -255v-10zM807 215l39 -25q-72 -108 -164 -163.5t-201 -55.5q-183 0 -301.5 140.5t-118.5 361.5q0 248 107.5 392.5t290.5 144.5q159 0 254.5 -122.5t105.5 -342.5h-579
q4 -215 91 -338t232 -123q72 0 133 33t111 98zM627 1376q40 0 69 -30t29 -70q0 -43 -27.5 -71.5t-70.5 -28.5t-71.5 28.5t-28.5 71.5q0 40 30 70t70 30zM275 1376q40 0 70 -30t30 -70q0 -43 -28.5 -71.5t-71.5 -28.5t-70.5 28.5t-27.5 71.5q0 40 29 70t69 30z" />
    <glyph glyph-name="iacute" unicode="&#xed;" horiz-adv-x="473" 
d="M76 0v39q39 1 57.5 32t18.5 99v588q0 68 -18 95t-62 32v30q63 17 118.5 50t104.5 84h37v-879q0 -70 17.5 -100t57.5 -31l1 -39h-332zM459 1325l-330 -205h-67l289 299q35 36 56 48t42 12q31 0 51.5 -20t20.5 -50q0 -22 -15.5 -43t-46.5 -41z" />
    <glyph glyph-name="igrave" unicode="&#xec;" horiz-adv-x="473" 
d="M76 0v39q39 1 57.5 32t18.5 99v588q0 68 -18 95t-62 32v30q63 17 118.5 50t104.5 84h37v-879q0 -70 17.5 -100t57.5 -31l1 -39h-332zM125 1419l289 -299h-67l-330 205q-31 20 -46.5 41t-15.5 43q0 30 20.5 50t51.5 20q21 0 42 -12t56 -48z" />
    <glyph glyph-name="icircumflex" unicode="&#xee;" horiz-adv-x="473" 
d="M76 0v39q39 1 57.5 32t18.5 99v588q0 68 -18 95t-62 32v30q63 17 118.5 50t104.5 84h37v-879q0 -70 17.5 -100t57.5 -31l1 -39h-332zM179 1470h118l232 -350h-58l-233 211l-233 -211h-58z" />
    <glyph glyph-name="idieresis" unicode="&#xef;" horiz-adv-x="473" 
d="M76 0v39q39 1 57.5 32t18.5 99v588q0 68 -18 95t-62 32v30q63 17 118.5 50t104.5 84h37v-879q0 -70 17.5 -100t57.5 -31l1 -39h-332zM414 1376q40 0 69 -30t29 -70q0 -43 -27.5 -71.5t-70.5 -28.5t-71.5 28.5t-28.5 71.5q0 40 30 70t70 30zM62 1376q40 0 70 -30t30 -70
q0 -43 -28.5 -71.5t-71.5 -28.5t-70.5 28.5t-27.5 71.5q0 40 29 70t69 30z" />
    <glyph glyph-name="ntilde" unicode="&#xf1;" horiz-adv-x="973" 
d="M66 0v39q40 2 57.5 32.5t17.5 98.5v551q0 67 -17.5 93.5t-62.5 31.5v31q65 16 121.5 50t102.5 83h32v-185l38 24q250 161 337 161q69 0 108.5 -51t39.5 -140v-649q0 -70 17 -99.5t58 -31.5v-39h-327v39q41 2 58.5 31.5t17.5 99.5v561q0 79 -20.5 108t-72.5 29
q-39 0 -102.5 -25t-151.5 -75v-598q0 -70 17.5 -99.5t58.5 -31.5v-39h-327zM735 1417h54q-20 -103 -68.5 -154t-126.5 -51q-14 0 -32 2.5t-42 8.5l-108 28q-12 3 -26.5 4.5t-30.5 1.5q-33 0 -53.5 -20.5t-35.5 -69.5h-51q19 106 68 158.5t129 52.5q19 0 34 -2t29 -6l111 -29
q14 -3 29 -5.5t26 -2.5q37 0 58.5 19t35.5 65z" />
    <glyph glyph-name="oacute" unicode="&#xf3;" horiz-adv-x="991" 
d="M496 25q115 0 172 114.5t57 345.5q0 241 -56.5 357t-172.5 116q-115 0 -172.5 -115.5t-57.5 -346.5q0 -239 57 -355t173 -116zM496 -29q-189 0 -312 146t-123 375q0 228 122.5 373t312.5 145q189 0 311.5 -145t122.5 -373q0 -229 -123 -375t-311 -146zM731 1325
l-330 -205h-67l289 299q35 36 56 48t42 12q31 0 51.5 -20t20.5 -50q0 -22 -15.5 -43t-46.5 -41z" />
    <glyph glyph-name="ograve" unicode="&#xf2;" horiz-adv-x="991" 
d="M496 25q115 0 172 114.5t57 345.5q0 241 -56.5 357t-172.5 116q-115 0 -172.5 -115.5t-57.5 -346.5q0 -239 57 -355t173 -116zM496 -29q-189 0 -312 146t-123 375q0 228 122.5 373t312.5 145q189 0 311.5 -145t122.5 -373q0 -229 -123 -375t-311 -146zM397 1419l289 -299
h-67l-330 205q-31 20 -46.5 41t-15.5 43q0 30 20.5 50t51.5 20q21 0 42 -12t56 -48z" />
    <glyph glyph-name="ocircumflex" unicode="&#xf4;" horiz-adv-x="991" 
d="M496 25q115 0 172 114.5t57 345.5q0 241 -56.5 357t-172.5 116q-115 0 -172.5 -115.5t-57.5 -346.5q0 -239 57 -355t173 -116zM496 -29q-189 0 -312 146t-123 375q0 228 122.5 373t312.5 145q189 0 311.5 -145t122.5 -373q0 -229 -123 -375t-311 -146zM451 1470h118
l232 -350h-58l-233 211l-233 -211h-58z" />
    <glyph glyph-name="odieresis" unicode="&#xf6;" horiz-adv-x="991" 
d="M496 25q115 0 172 114.5t57 345.5q0 241 -56.5 357t-172.5 116q-115 0 -172.5 -115.5t-57.5 -346.5q0 -239 57 -355t173 -116zM496 -29q-189 0 -312 146t-123 375q0 228 122.5 373t312.5 145q189 0 311.5 -145t122.5 -373q0 -229 -123 -375t-311 -146zM686 1376
q40 0 69 -30t29 -70q0 -43 -27.5 -71.5t-70.5 -28.5t-71.5 28.5t-28.5 71.5q0 40 30 70t70 30zM334 1376q40 0 70 -30t30 -70q0 -43 -28.5 -71.5t-71.5 -28.5t-70.5 28.5t-27.5 71.5q0 40 29 70t69 30z" />
    <glyph glyph-name="otilde" unicode="&#xf5;" horiz-adv-x="991" 
d="M496 25q115 0 172 114.5t57 345.5q0 241 -56.5 357t-172.5 116q-115 0 -172.5 -115.5t-57.5 -346.5q0 -239 57 -355t173 -116zM496 -29q-189 0 -312 146t-123 375q0 228 122.5 373t312.5 145q189 0 311.5 -145t122.5 -373q0 -229 -123 -375t-311 -146zM743 1417h54
q-20 -103 -68.5 -154t-126.5 -51q-14 0 -32 2.5t-42 8.5l-108 28q-12 3 -26.5 4.5t-30.5 1.5q-33 0 -53.5 -20.5t-35.5 -69.5h-51q19 106 68 158.5t129 52.5q19 0 34 -2t29 -6l111 -29q14 -3 29 -5.5t26 -2.5q37 0 58.5 19t35.5 65z" />
    <glyph glyph-name="uacute" unicode="&#xfa;" horiz-adv-x="963" 
d="M653 0v158q-174 -118 -246.5 -152.5t-125.5 -34.5q-69 0 -108.5 51.5t-39.5 141.5v594q0 66 -18.5 94t-63.5 33v30q63 17 119.5 50.5t103.5 83.5h33v-795q0 -73 22 -102t74 -29q45 0 109 24t141 70v506q0 83 -17 116.5t-60 43.5l-1 35q55 17 109.5 49t112.5 82h32v-836
q0 -92 21.5 -129.5t72.5 -44.5l1 -39h-271zM702 1325l-330 -205h-67l289 299q35 36 56 48t42 12q31 0 51.5 -20t20.5 -50q0 -22 -15.5 -43t-46.5 -41z" />
    <glyph glyph-name="ugrave" unicode="&#xf9;" horiz-adv-x="963" 
d="M653 0v158q-174 -118 -246.5 -152.5t-125.5 -34.5q-69 0 -108.5 51.5t-39.5 141.5v594q0 66 -18.5 94t-63.5 33v30q63 17 119.5 50.5t103.5 83.5h33v-795q0 -73 22 -102t74 -29q45 0 109 24t141 70v506q0 83 -17 116.5t-60 43.5l-1 35q55 17 109.5 49t112.5 82h32v-836
q0 -92 21.5 -129.5t72.5 -44.5l1 -39h-271zM368 1419l289 -299h-67l-330 205q-31 20 -46.5 41t-15.5 43q0 30 20.5 50t51.5 20q21 0 42 -12t56 -48z" />
    <glyph glyph-name="ucircumflex" unicode="&#xfb;" horiz-adv-x="963" 
d="M653 0v158q-174 -118 -246.5 -152.5t-125.5 -34.5q-69 0 -108.5 51.5t-39.5 141.5v594q0 66 -18.5 94t-63.5 33v30q63 17 119.5 50.5t103.5 83.5h33v-795q0 -73 22 -102t74 -29q45 0 109 24t141 70v506q0 83 -17 116.5t-60 43.5l-1 35q55 17 109.5 49t112.5 82h32v-836
q0 -92 21.5 -129.5t72.5 -44.5l1 -39h-271zM422 1470h118l232 -350h-58l-233 211l-233 -211h-58z" />
    <glyph glyph-name="udieresis" unicode="&#xfc;" horiz-adv-x="963" 
d="M653 0v158q-174 -118 -246.5 -152.5t-125.5 -34.5q-69 0 -108.5 51.5t-39.5 141.5v594q0 66 -18.5 94t-63.5 33v30q63 17 119.5 50.5t103.5 83.5h33v-795q0 -73 22 -102t74 -29q45 0 109 24t141 70v506q0 83 -17 116.5t-60 43.5l-1 35q55 17 109.5 49t112.5 82h32v-836
q0 -92 21.5 -129.5t72.5 -44.5l1 -39h-271zM657 1376q40 0 69 -30t29 -70q0 -43 -27.5 -71.5t-70.5 -28.5t-71.5 28.5t-28.5 71.5q0 40 30 70t70 30zM305 1376q40 0 70 -30t30 -70q0 -43 -28.5 -71.5t-71.5 -28.5t-70.5 28.5t-27.5 71.5q0 40 29 70t69 30z" />
    <glyph glyph-name="dagger" unicode="&#x2020;" 
d="M397 639q45 75 67.5 155t22.5 164q0 8 -1 23t-1 22q-73 -2 -163 -37.5t-117 -35.5q-48 0 -77.5 24.5t-29.5 65.5q0 48 28 74t79 26q23 0 111.5 -33.5t158.5 -33.5h10q1 8 1.5 18t0.5 29q0 98 -37.5 194.5t-37.5 110.5q0 45 28.5 73.5t73.5 28.5q42 0 69 -29t27 -73
q0 -27 -23.5 -78.5t-31.5 -72.5q-9 -26 -13.5 -67t-4.5 -97v-35h22q64 0 150 33.5t110 33.5q48 0 77.5 -26.5t29.5 -69.5q0 -45 -28.5 -70.5t-78.5 -25.5q-25 0 -115.5 38t-168.5 38q0 -119 22.5 -209t69.5 -158q-41 -158 -60.5 -359t-23.5 -507h-58q-4 306 -24.5 504
t-63.5 362z" />
    <glyph glyph-name="degree" unicode="&#xb0;" horiz-adv-x="674" 
d="M338 1362q-81 0 -138 -56t-57 -137t57 -138.5t138 -57.5t136.5 57.5t55.5 138.5t-55.5 137t-136.5 56zM338 1456q118 0 202.5 -84.5t84.5 -204.5q0 -119 -84 -202.5t-205 -83.5t-204 83t-83 203t85 204.5t204 84.5z" />
    <glyph glyph-name="cent" unicode="&#xa2;" horiz-adv-x="1128" 
d="M557 332v837q-96 -18 -144 -116.5t-48 -274.5q0 -164 49.5 -278.5t142.5 -167.5zM555 66v127q-170 17 -268.5 149.5t-98.5 345.5q0 212 102 359.5t267 177.5v94h66v-88q133 -6 220 -69t87 -148q0 -42 -24.5 -68t-63.5 -26q-81 0 -108 114q-3 12 -5 19q-14 52 -39.5 80
t-66.5 38v-860h4q28 -4 41 -4q68 0 131.5 32.5t118.5 94.5l28 -24q-68 -96 -148.5 -150t-176.5 -67v-127h-66z" />
    <glyph glyph-name="sterling" unicode="&#xa3;" horiz-adv-x="1128" 
d="M152 0v106q155 37 249.5 125t94.5 193q0 39 -13 74.5t-39 70.5h-254v62h199q-113 121 -163 218.5t-50 194.5q0 175 117.5 293.5t292.5 118.5q93 0 176.5 -32.5t159.5 -98.5l-58 -233l-39 2q-56 158 -125.5 232.5t-160.5 74.5q-88 0 -146.5 -66t-58.5 -168q0 -66 26 -128
t113 -173l24 -30q109 -140 128 -205h219v-62h-205q0 -5 1 -15.5t1 -16.5q0 -107 -59.5 -199t-180.5 -172h332q101 0 149 30t87 109l41 -14l-95 -291h-763z" />
    <glyph glyph-name="section" unicode="&#xa7;" 
d="M250 758q0 -41 31 -90.5t98 -114.5q89 -87 138.5 -116t96.5 -29q66 0 112 44t46 107q0 44 -28 91t-95 114q-81 80 -135.5 113.5t-99.5 33.5q-71 0 -117.5 -43.5t-46.5 -109.5zM592 362q101 -79 150 -152.5t49 -148.5q0 -106 -88.5 -178.5t-219.5 -72.5q-82 0 -161 33.5
t-156 101.5l59 192l29 -8q24 -125 90.5 -199.5t153.5 -74.5q71 0 120.5 46t49.5 111q0 52 -40 108.5t-136 139.5l-181 156q-91 78 -133.5 148t-42.5 143q0 105 79 175t198 70h16q-104 86 -149.5 156t-45.5 143q0 110 82.5 183t208.5 73q81 0 155.5 -27t145.5 -83l-59 -172
l-33 10q-24 109 -81 168t-138 59q-67 0 -112.5 -44.5t-45.5 -110.5q0 -56 38.5 -112t142.5 -144l178 -150q89 -75 131.5 -146t42.5 -145q0 -107 -77.5 -177.5t-197.5 -70.5h-22z" />
    <glyph glyph-name="bullet" unicode="&#x2022;" horiz-adv-x="1208" 
d="M307 762q0 123 87 209t210 86q122 0 208.5 -86.5t86.5 -208.5t-87.5 -209.5t-209.5 -87.5q-123 0 -209 87t-86 210z" />
    <glyph glyph-name="paragraph" unicode="&#xb6;" 
d="M958 1479v-86h-120v-1393h-111v1393h-176v-1393h-113v782q-170 8 -271 102.5t-101 245.5q0 157 107.5 253t285.5 96h499z" />
    <glyph glyph-name="germandbls" unicode="&#xdf;" horiz-adv-x="1053" 
d="M76 0v39q39 1 57.5 32t18.5 99v745h-127v66h127v209q0 152 89.5 234.5t254.5 82.5q166 0 262 -75t96 -203q0 -113 -47.5 -184.5t-138.5 -94.5q148 -15 227.5 -116t79.5 -275q0 -247 -118.5 -417.5t-281.5 -170.5q-73 0 -125.5 47t-52.5 111q0 40 24 67t58 27
q36 0 58 -23.5t28 -68.5q1 -7 2 -19q8 -75 54 -75q84 0 124.5 101t40.5 311q0 264 -72 365t-251 101h-51v66h63q109 0 152 47.5t43 171.5q0 127 -44.5 190.5t-133.5 63.5q-85 0 -124.5 -57t-39.5 -180v-1217h-252z" />
    <glyph glyph-name="registered" unicode="&#xae;" horiz-adv-x="1683" 
d="M738 721q13 -1 28 -1.5t35 -0.5q105 0 163 45t58 127q0 72 -50 116t-134 44q-51 0 -76 -17.5t-25 -52.5zM467 1094h397q144 0 231 -54t87 -141q0 -83 -66 -131.5t-219 -75.5q95 -28 145 -76.5t68 -130.5l3 -28q11 -125 67 -125q31 0 47 33.5t16 97.5h45v-19
q0 -84 -41 -129t-119 -45q-49 0 -84 16t-51 46q-20 37 -22 110t-8 97q-19 71 -66.5 105t-130.5 34h-29v-246q0 -51 25.5 -72t93.5 -27v-44h-389v44q69 4 95 25.5t26 73.5v516q0 53 -26 74.5t-95 26.5v45zM844 1305q-123 0 -238 -49t-203 -138q-88 -90 -134 -202.5
t-46 -237.5q0 -127 46.5 -239t136.5 -201q89 -90 199.5 -136.5t236.5 -46.5q125 0 237 47t199 136q88 90 135 203t47 237q0 125 -47.5 242t-132.5 202q-86 86 -201 134.5t-235 48.5zM844 1391q140 0 273 -56t233 -157q97 -99 149.5 -230.5t52.5 -275.5q0 -139 -56 -270
t-161 -234q-100 -99 -228 -150t-276 -51q-134 0 -261.5 54.5t-229.5 154.5q-102 101 -155.5 229t-53.5 273q0 142 53 270.5t154 231.5q100 101 231.5 156t274.5 55z" />
    <glyph glyph-name="copyright" unicode="&#xa9;" horiz-adv-x="1683" 
d="M1122 1098h37l2 -316h-43q-32 135 -103 204t-177 69q-119 0 -179.5 -93.5t-60.5 -277.5q0 -187 66.5 -284t193.5 -97q84 0 153.5 44t127.5 132l39 -26q-61 -105 -148 -158t-199 -53q-173 0 -292 124t-119 304q0 183 118.5 307.5t290.5 124.5q75 0 149.5 -33t80.5 -33
q27 0 42 14.5t21 47.5zM844 1305q-123 0 -238 -49t-203 -138q-88 -90 -134 -202.5t-46 -237.5q0 -127 46.5 -239t136.5 -201q91 -90 201.5 -136.5t234.5 -46.5q126 0 237 46.5t199 136.5q89 90 136.5 204t47.5 236q0 123 -48 241t-134 203q-86 86 -201 134.5t-235 48.5z
M844 1391q138 0 269 -54.5t230 -152.5q100 -99 154.5 -232t54.5 -274q0 -140 -53.5 -269.5t-155.5 -232.5q-99 -101 -228 -155t-273 -54q-142 0 -270 53.5t-232 155.5q-103 102 -156 229t-53 273q0 141 53.5 270t155.5 232q100 101 230.5 156t273.5 55z" />
    <glyph glyph-name="trademark" unicode="&#x2122;" horiz-adv-x="1683" 
d="M780 1442h191l137 -391l143 391h181v-25l-30 -2q-21 -2 -31.5 -15t-10.5 -38v-375q0 -25 10.5 -38t31.5 -15l30 -2v-29h-240v29l31 2q21 2 32 15.5t11 37.5v387l-172 -473h-21l-172 475v-389q0 -24 11 -37.5t32 -15.5l33 -2v-29h-197v29l34 2q20 2 31 15.5t11 37.5v371
q0 24 -11 37.5t-31 15.5l-34 4v27zM250 1442h444l11 -182h-27q-8 78 -40.5 114.5t-94.5 36.5h-17v-424q0 -24 10.5 -37.5t30.5 -15.5l33 -2v-29h-254v29l31 2q21 2 32 15.5t11 37.5v424h-17q-64 0 -96.5 -36t-40.5 -115h-26z" />
    <glyph glyph-name="acute" unicode="&#xb4;" 
d="M733 1325l-330 -205h-67l289 299q35 36 56 48t42 12q31 0 51.5 -20t20.5 -50q0 -22 -15.5 -43t-46.5 -41z" />
    <glyph glyph-name="dieresis" unicode="&#xa8;" 
d="M688 1376q40 0 69 -30t29 -70q0 -43 -27.5 -71.5t-70.5 -28.5t-71.5 28.5t-28.5 71.5q0 40 30 70t70 30zM336 1376q40 0 70 -30t30 -70q0 -43 -28.5 -71.5t-71.5 -28.5t-70.5 28.5t-27.5 71.5q0 40 29 70t69 30z" />
    <glyph glyph-name="notequal" unicode="&#x2260;" horiz-adv-x="1706" 
d="M1208 1194l105 -82l-187 -235h326v-136h-416l-205 -262h621v-135h-709l-249 -317l-105 84l184 233h-319v135h408l204 262h-612v136h702z" />
    <glyph glyph-name="AE" unicode="&#xc6;" horiz-adv-x="2001" 
d="M420 551h495v852h-26zM-70 0v39q82 32 153 106.5t146 208.5l627 1121h993l27 -287l-45 -6q-47 125 -136.5 173t-353.5 48h-63q-109 0 -131.5 -18t-22.5 -97v-420h213q168 0 235.5 31t94.5 111h35v-351h-35q-26 78 -80 108t-221 30h-29h-213v-584q0 -98 32.5 -120.5
t166.5 -22.5q163 0 232 7t120 23q66 22 127 74.5t129 147.5l41 -23l-86 -299h-1067l1 39q50 1 72.5 43.5t22.5 136.5v260h-534l-117 -207q-26 -46 -38.5 -79t-12.5 -58q0 -36 24 -60.5t70 -35.5v-39h-377z" />
    <glyph glyph-name="Oslash" unicode="&#xd8;" horiz-adv-x="1470" 
d="M455 131q55 -54 123.5 -80t154.5 -26q223 0 330.5 175.5t107.5 538.5q0 190 -25 320.5t-79 220.5zM406 193l610 1144q-52 57 -123.5 86t-157.5 29q-210 0 -323 -186.5t-113 -534.5q0 -174 27 -309.5t80 -228.5zM254 -92l96 180q-139 120 -208.5 282.5t-69.5 364.5
q0 182 61.5 330t188.5 272q83 82 192.5 126t228.5 44q82 0 159.5 -21.5t156.5 -66.5l98 187l62 -39l-101 -189q138 -124 209.5 -284.5t71.5 -345.5q0 -165 -56.5 -314.5t-164.5 -269.5q-87 -98 -199.5 -147.5t-245.5 -49.5q-97 0 -176 19.5t-147 60.5l-93 -174z" />
    <glyph glyph-name="infinity" unicode="&#x221e;" horiz-adv-x="1706" 
d="M915 559q50 -89 116.5 -133.5t150.5 -44.5q101 0 165 67.5t64 172.5q0 101 -59 168t-148 67q-81 0 -146.5 -66.5t-142.5 -230.5zM793 666q-49 88 -115.5 132t-151.5 44q-101 0 -165 -66.5t-64 -171.5q0 -101 59 -168t148 -67q81 0 146.5 66t142.5 231zM864 483
q-71 -136 -148.5 -199t-172.5 -63q-135 0 -228.5 112t-93.5 277q0 175 83.5 283t217.5 108q95 0 170 -61.5t150 -202.5q68 138 147 203.5t176 65.5q133 0 227.5 -113t94.5 -279q0 -174 -83.5 -281.5t-217.5 -107.5q-95 0 -168.5 58.5t-153.5 199.5z" />
    <glyph glyph-name="plusminus" unicode="&#xb1;" horiz-adv-x="1706" 
d="M254 170h1198v-141h-1198v141zM782 1192h142v-340h528v-139h-528v-340h-142v340h-528v139h528v340z" />
    <glyph glyph-name="lessequal" unicode="&#x2264;" horiz-adv-x="1706" 
d="M262 162h1184v-139h-1184v139zM1444 1206v-147l-936 -309l936 -306v-149l-1182 395v121z" />
    <glyph glyph-name="greaterequal" unicode="&#x2265;" horiz-adv-x="1706" 
d="M262 162h1184v-139h-1184v139zM262 1206l1184 -395v-121l-1184 -395v149l938 306l-938 309v147z" />
    <glyph glyph-name="yen" unicode="&#xa5;" horiz-adv-x="1128" 
d="M381 0v36q48 4 69 44.5t21 132.5v358h-414v66h383l-82 164h-301v67h269l-150 301q-63 128 -97.5 170t-72.5 48v34h377v-34q-31 -4 -46 -17.5t-15 -38.5q0 -17 12.5 -50.5t52.5 -115.5l242 -506l223 439q26 52 40.5 102t14.5 86q0 40 -24.5 69.5t-59.5 31.5v34h305v-35
q-70 -20 -176 -232l-4 -7l-141 -279h264v-67h-299l-82 -164h381v-66h-405v-358q0 -94 20 -133.5t67 -42.5l1 -37h-373z" />
    <glyph glyph-name="mu" unicode="&#xb5;" horiz-adv-x="1169" 
d="M166 195q-33 -143 -64 -355q-37 -260 -116 -260q-43 0 -65.5 24.5t-22.5 69.5q0 44 70 277t110 422l108 512h168l-100 -475q-9 -40 -13.5 -74.5t-4.5 -59.5q0 -70 41.5 -108.5t119.5 -38.5q97 0 154 54.5t82 172.5l112 529h173l-115 -532q-9 -43 -14 -75.5t-5 -52.5
q0 -48 26.5 -74t76.5 -26q44 0 81 25t58 69q13 27 27 73q17 56 39 56q9 0 15.5 -8t6.5 -21q0 -34 -13.5 -88t-35.5 -100q-39 -78 -92.5 -117t-122.5 -39q-81 0 -125.5 55t-44.5 154v13q-52 -115 -123 -168.5t-172 -53.5q-95 0 -151 56t-68 164z" />
    <glyph glyph-name="partialdiff" unicode="&#x2202;" horiz-adv-x="1059" 
d="M756 621q15 87 22.5 168.5t7.5 156.5q0 129 -36.5 194.5t-108.5 65.5q-55 0 -127 -58t-108 -58t-60 22t-24 53q0 62 72 111t173 49q180 0 287 -155t107 -418q0 -335 -144.5 -556t-357.5 -221q-152 0 -253.5 108t-101.5 271q0 198 110.5 326.5t272.5 128.5
q101 0 166 -45.5t103 -142.5zM707 494q0 116 -43.5 178.5t-122.5 62.5q-109 0 -179.5 -129t-70.5 -336q0 -116 43 -177.5t123 -61.5q109 0 179.5 130t70.5 333z" />
    <glyph glyph-name="summation" unicode="&#x2211;" horiz-adv-x="1462" 
d="M16 1473h1162l110 -365h-78l-73 227q-11 34 -41.5 49t-98.5 15h-690l809 -832v-37l-825 -735h887q61 0 79 13t29 51l72 229h78l-148 -481h-1272v41l920 815l-920 956v54z" />
    <glyph glyph-name="product" unicode="&#x220f;" horiz-adv-x="1630" 
d="M53 1473h1522v-74h-191v-1718h191v-74h-596v74h192v1718h-714v-1718h192v-74h-596v74h191v1718h-191v74z" />
    <glyph glyph-name="pi" unicode="&#x3c0;" horiz-adv-x="1389" 
d="M1370 885l-43 -199h-340q-33 -137 -37 -401q-1 -58 -2 -87q-3 -125 -32.5 -183t-90.5 -58q-42 0 -64 28t-22 83q0 58 77 259t114 359h-387q-35 -142 -40 -414q-1 -49 -1 -73q-4 -127 -33 -184.5t-90 -57.5q-42 0 -63 28t-21 83q0 59 76 260t112 358h-188
q-91 0 -135.5 -41.5t-67.5 -152.5h-57q40 218 124 305.5t251 87.5h960z" />
    <glyph glyph-name="integral" unicode="&#x222b;" horiz-adv-x="1067" 
d="M311 -262q106 0 120 688l3 165q12 515 107 737t297 222q80 0 130 -42t50 -107q0 -54 -32 -85.5t-87 -31.5q-42 0 -70 19t-40 54q-6 15 -10.5 51t-20.5 36q-107 0 -121 -619q-4 -193 -8 -303q-17 -479 -111.5 -686t-290.5 -207q-79 0 -129.5 41.5t-50.5 106.5
q0 56 34 87.5t95 31.5q33 0 57 -14.5t39 -42.5q10 -18 15 -59.5t24 -41.5z" />
    <glyph glyph-name="ordfeminine" unicode="&#xaa;" horiz-adv-x="680" 
d="M440 1188q-151 -59 -208.5 -109.5t-57.5 -117.5q0 -56 31 -90.5t80 -34.5q36 0 77.5 24.5t77.5 67.5v260zM668 838q-28 -35 -61 -53.5t-68 -18.5q-50 0 -74.5 25t-24.5 75v4q-62 -51 -122.5 -77.5t-116.5 -26.5q-75 0 -118.5 41.5t-43.5 112.5q0 86 80 150.5t321 156.5
v102q0 65 -23.5 97t-70.5 32q-42 0 -65.5 -19.5t-47.5 -91.5q-9 -30 -31.5 -48.5t-51.5 -18.5q-30 0 -50 19.5t-20 48.5q0 58 77 101.5t191 43.5q119 0 171 -45t52 -148v-411q0 -32 8.5 -47t26.5 -15q13 0 22.5 6.5t16.5 20.5z" />
    <glyph glyph-name="ordmasculine" unicode="&#xba;" horiz-adv-x="743" 
d="M373 803q86 0 129 80.5t43 242.5q0 168 -42.5 250t-129.5 82t-129.5 -81t-42.5 -244q0 -167 42.5 -248.5t129.5 -81.5zM373 766q-142 0 -234 102t-92 262t91.5 261.5t234.5 101.5q142 0 233.5 -101.5t91.5 -261.5q0 -159 -92 -261.5t-233 -102.5z" />
    <glyph glyph-name="Omega" unicode="&#x3a9;" horiz-adv-x="1569" 
d="M1112 231v-26h311l60 184h61l-117 -389h-505q120 216 181.5 435t61.5 427q0 277 -95.5 418t-283.5 141q-189 0 -284.5 -140t-95.5 -419q0 -209 61 -426t182 -436h-506l-116 389h61l59 -184h312v26q-165 183 -237 335t-72 311q0 267 183 443.5t453 176.5t452.5 -177
t182.5 -443q0 -158 -71.5 -309t-237.5 -337z" />
    <glyph glyph-name="ae" unicode="&#xe6;" horiz-adv-x="1421" 
d="M762 608h299q72 0 88 9t16 38q0 146 -51 224.5t-145 78.5q-104 0 -155.5 -85t-51.5 -255v-10zM625 236q-20 47 -28.5 111t-8.5 157v69q-203 -84 -280 -156.5t-77 -168.5q0 -80 40.5 -129t105.5 -49q56 0 120 42.5t128 123.5zM649 190q-95 -107 -192 -163t-189 -56
q-100 0 -158.5 59.5t-58.5 159.5q0 124 107.5 216.5t429.5 222.5v147q0 92 -32 137t-95 45q-57 0 -89 -28.5t-61 -128.5q-12 -43 -43 -69.5t-69 -26.5q-39 0 -66 27.5t-27 68.5q0 85 102.5 147t254.5 62q95 0 163.5 -27t98.5 -76q54 53 116.5 78t139.5 25q160 0 255 -122.5
t105 -342.5l-579 -1q5 -215 91.5 -337.5t231.5 -122.5q72 0 133 33t111 98l39 -25q-71 -107 -164.5 -163t-202.5 -56q-112 0 -202 56t-150 163z" />
    <glyph glyph-name="oslash" unicode="&#xf8;" horiz-adv-x="991" 
d="M322 121q35 -49 77.5 -72.5t96.5 -23.5q122 0 182.5 114t60.5 346q0 106 -10 186t-31 132zM285 195l374 677q-34 45 -74 65.5t-89 20.5q-124 0 -184 -116.5t-60 -358.5q0 -88 8 -158t25 -130zM127 -84l92 164q-78 70 -118 174t-40 238q0 228 122.5 373t312.5 145
q52 0 103.5 -14.5t105.5 -43.5l88 160l55 -35l-90 -164q85 -72 128.5 -179t43.5 -242q0 -229 -123 -375t-311 -146q-57 0 -111.5 17.5t-110.5 52.5l-90 -162z" />
    <glyph glyph-name="questiondown" unicode="&#xbf;" horiz-adv-x="909" 
d="M735 1384q0 -50 -36 -86t-87 -36q-52 0 -87.5 35t-35.5 87q0 51 36.5 87t86.5 36t86.5 -36.5t36.5 -86.5zM637 1116l4 -426h-37q-187 0 -283 -88.5t-96 -261.5q0 -140 76 -227.5t195 -87.5q67 0 115.5 34t56.5 87q2 16 2.5 57.5t7.5 62.5q12 38 41.5 60t66.5 22
q41 0 67 -30.5t26 -79.5q0 -104 -112 -185.5t-267 -81.5q-182 0 -307 133t-125 326q0 213 132 340t359 129l12 217h66z" />
    <glyph glyph-name="exclamdown" unicode="&#xa1;" horiz-adv-x="563" 
d="M295 1116l70 -557q16 -135 23 -222t7 -153q0 -110 -28.5 -161.5t-90.5 -51.5q-61 0 -89.5 51.5t-28.5 161.5q0 71 7 159.5t23 215.5l70 557h37zM401 1384q0 -50 -37 -86t-88 -36q-52 0 -87 35t-35 87q0 51 36 87t86 36t87.5 -37t37.5 -86z" />
    <glyph glyph-name="logicalnot" unicode="&#xac;" horiz-adv-x="1706" 
d="M254 860h1198v-502h-137v363h-1061v139z" />
    <glyph glyph-name="radical" unicode="&#x221a;" horiz-adv-x="1305" 
d="M1116 1661h189v-96h-115l-594 -1606h-66l-319 883l-125 -45l-25 80l283 98l256 -709z" />
    <glyph glyph-name="florin" unicode="&#x192;" horiz-adv-x="1128" 
d="M657 862l-108 -788q-33 -237 -147.5 -365.5t-290.5 -128.5q-39 0 -82 8t-90 23l61 225l37 -2q15 -89 50 -135.5t87 -46.5q72 0 110 78.5t76 365.5l105 766h-191l7 68h192q37 261 148 391.5t297 130.5q38 0 82 -7t96 -22l-62 -227l-37 2q-16 90 -52.5 137t-88.5 47
q-78 0 -117 -82t-71 -370h260l-8 -68h-263z" />
    <glyph glyph-name="approxequal" unicode="&#x2248;" horiz-adv-x="1706" 
d="M1530 586v-156q-105 -73 -199.5 -107t-189.5 -34t-285 67.5t-293 67.5q-82 0 -171.5 -36t-213.5 -122v156q108 73 204 109t183 36q115 0 305 -68.5t273 -68.5q88 0 177 35.5t210 120.5zM1530 954v-155q-105 -73 -199.5 -107.5t-189.5 -34.5t-285 68t-293 68
q-83 0 -171.5 -36t-213.5 -122v156q106 72 202 107.5t185 35.5q116 0 305.5 -67.5t272.5 -67.5q87 0 175 34.5t212 120.5z" />
    <glyph glyph-name="Delta" unicode="&#x2206;" horiz-adv-x="1350" 
d="M602 1174l-389 -957h768zM666 1497h30l600 -1497h-1243z" />
    <glyph glyph-name="guillemotleft" unicode="&#xab;" horiz-adv-x="758" 
d="M541 492q55 -90 86.5 -179t42.5 -182l-52 -16q-58 115 -124.5 209t-141.5 168q76 74 142.5 167.5t123.5 206.5l52 -14q-11 -93 -42.5 -182t-86.5 -178zM256 492q55 -90 86.5 -179t42.5 -182l-51 -16q-59 115 -125.5 209t-140.5 168q76 74 142 167.5t124 206.5l51 -14
q-11 -93 -42.5 -182t-86.5 -178z" />
    <glyph glyph-name="guillemotright" unicode="&#xbb;" horiz-adv-x="758" 
d="M217 492q-53 87 -84.5 175.5t-42.5 184.5l51 14q58 -114 123 -207t142 -167q-74 -72 -139.5 -165.5t-125.5 -211.5l-51 16q11 96 42.5 184.5t84.5 176.5zM502 492q-54 87 -85 175.5t-42 184.5l51 14q57 -114 122.5 -207t141.5 -167q-73 -72 -138.5 -165.5t-125.5 -211.5
l-51 16q11 96 42 184.5t85 176.5z" />
    <glyph glyph-name="ellipsis" unicode="&#x2026;" horiz-adv-x="2048" 
d="M223 94q0 51 36 87t87 36q52 0 87.5 -35.5t35.5 -87.5q0 -50 -36.5 -86.5t-86.5 -36.5q-49 0 -86 37t-37 86zM905 94q0 51 36 87t87 36q52 0 87.5 -35.5t35.5 -87.5q0 -50 -36.5 -86.5t-86.5 -36.5q-49 0 -86 37t-37 86zM1589 94q0 51 36 87t87 36q52 0 87.5 -35.5
t35.5 -87.5q0 -50 -36.5 -86.5t-86.5 -36.5q-49 0 -86 37t-37 86z" />
    <glyph glyph-name="nonbreakingspace" unicode="&#xa0;" horiz-adv-x="1128" 
 />
    <glyph glyph-name="Agrave" unicode="&#xc0;" horiz-adv-x="1241" 
d="M319 551h459l-221 729zM-47 0v39q76 26 127.5 97.5t105.5 240.5l369 1130h129l408 -1257q35 -109 68.5 -159t71.5 -52l1 -39h-399v39q32 7 51.5 27.5t19.5 48.5q0 21 -17 76l-8 25l-81 263h-504l-64 -197q-9 -30 -13.5 -57t-4.5 -49q0 -57 25.5 -92t74.5 -45v-39h-360z
M508 1917l289 -299h-67l-330 205q-31 20 -46.5 41t-15.5 43q0 30 20.5 50t51.5 20q21 0 42 -12t56 -48z" />
    <glyph glyph-name="Atilde" unicode="&#xc3;" horiz-adv-x="1241" 
d="M319 551h459l-221 729zM-47 0v39q76 26 127.5 97.5t105.5 240.5l369 1130h129l408 -1257q35 -109 68.5 -159t71.5 -52l1 -39h-399v39q32 7 51.5 27.5t19.5 48.5q0 21 -17 76l-8 25l-81 263h-504l-64 -197q-9 -30 -13.5 -57t-4.5 -49q0 -57 25.5 -92t74.5 -45v-39h-360z
M854 1915h54q-20 -103 -68.5 -154t-126.5 -51q-14 0 -32 2.5t-42 8.5l-108 28q-12 3 -26.5 4.5t-30.5 1.5q-33 0 -53.5 -20.5t-35.5 -69.5h-51q19 106 68 158.5t129 52.5q19 0 34 -2t29 -6l111 -29q14 -3 29 -5.5t26 -2.5q37 0 58.5 19t35.5 65z" />
    <glyph glyph-name="Otilde" unicode="&#xd5;" horiz-adv-x="1470" 
d="M735 25q220 0 323 178t103 561q0 344 -106 516t-320 172q-205 0 -316.5 -187.5t-111.5 -533.5q0 -357 106 -531.5t322 -174.5zM733 -33q-133 0 -237.5 40.5t-194.5 125.5q-111 106 -170 262t-59 340q0 183 61.5 331.5t188.5 270.5q83 82 192.5 126t228.5 44
q111 0 216 -38.5t178 -106.5q127 -121 194.5 -279.5t67.5 -337.5q0 -164 -56.5 -312.5t-164.5 -268.5q-87 -98 -199.5 -147.5t-245.5 -49.5zM974 1915h54q-20 -103 -68.5 -154t-126.5 -51q-14 0 -32 2.5t-42 8.5l-108 28q-12 3 -26.5 4.5t-30.5 1.5q-33 0 -53.5 -20.5
t-35.5 -69.5h-51q19 106 68 158.5t129 52.5q19 0 34 -2t29 -6l111 -29q14 -3 29 -5.5t26 -2.5q37 0 58.5 19t35.5 65z" />
    <glyph glyph-name="OE" unicode="&#x152;" horiz-adv-x="2163" 
d="M1075 291v921q0 135 -63 187.5t-215 52.5q-240 0 -365 -186.5t-125 -544.5q0 -351 122.5 -523.5t371.5 -172.5q152 0 213 57t61 209zM2048 0h-909q-56 0 -178.5 -16.5t-188.5 -16.5q-127 0 -240.5 42.5t-205.5 123.5q-123 107 -188.5 262.5t-65.5 339.5q0 182 68 331.5
t206 272.5q90 81 206 124.5t241 43.5q58 0 182 -16t188 -16h848l25 -287l-43 -6q-47 125 -136.5 173t-353.5 48h-63q-110 0 -133 -18.5t-23 -96.5v-420h213q169 0 237 31.5t95 110.5h33v-351h-35q-26 78 -80 108t-221 30h-29h-213v-584q0 -98 32 -120.5t167 -22.5
q162 0 231 7t121 23q66 22 127 74.5t129 147.5l41 -23z" />
    <glyph glyph-name="oe" unicode="&#x153;" horiz-adv-x="1569" 
d="M266 496q0 -241 57 -357t175 -116q124 0 180.5 116.5t56.5 374.5q0 227 -58.5 335.5t-180.5 108.5q-116 0 -173 -114.5t-57 -347.5zM909 608h299q73 0 90 9.5t17 37.5q0 146 -51.5 224.5t-145.5 78.5q-104 0 -156.5 -85t-52.5 -255v-10zM829 141q-71 -83 -155.5 -126.5
t-177.5 -43.5q-189 0 -312 146t-123 375q0 228 122.5 373t312.5 145q95 0 179.5 -43t147.5 -123q59 84 134 125t171 41q160 0 255 -122.5t106 -342.5h-579q4 -215 90.5 -338t232.5 -123q71 0 132 33t112 98l39 -25q-72 -108 -164.5 -163.5t-200.5 -55.5q-99 0 -179 42.5
t-143 127.5z" />
    <glyph glyph-name="endash" unicode="&#x2013;" 
d="M0 440v119h1024v-119h-1024z" />
    <glyph glyph-name="emdash" unicode="&#x2014;" horiz-adv-x="2048" 
d="M2048 559v-119h-2048v119h2048z" />
    <glyph glyph-name="quotedblleft" unicode="&#x201c;" horiz-adv-x="909" 
d="M760 1468q-64 -71 -99.5 -134.5t-35.5 -104.5q0 -48 43 -78l6 -4q35 -25 50 -50t15 -57q0 -49 -33 -80.5t-83 -31.5q-59 0 -99.5 46.5t-40.5 117.5q0 86 61 193t177 222zM414 1468q-64 -71 -99.5 -134.5t-35.5 -104.5q0 -48 43 -78q4 -3 6 -4q35 -25 50 -50t15 -57
q0 -49 -33 -80.5t-84 -31.5q-58 0 -98.5 46.5t-40.5 117.5q0 86 61 193t177 222z" />
    <glyph glyph-name="quotedblright" unicode="&#x201d;" horiz-adv-x="909" 
d="M496 969q64 71 99.5 133.5t35.5 103.5q0 28 -8.5 45.5t-38.5 38.5q-35 25 -50.5 50t-15.5 57q0 49 32 79.5t83 30.5q58 0 98.5 -46.5t40.5 -117.5q0 -86 -61 -193t-176 -222zM150 969q64 71 99.5 133.5t35.5 103.5q0 28 -8.5 45.5t-38.5 38.5q-35 25 -50.5 50t-15.5 57
q0 49 32 79.5t83 30.5q58 0 98.5 -46.5t40.5 -117.5q0 -86 -61 -193t-177 -222z" />
    <glyph glyph-name="quoteleft" unicode="&#x2018;" horiz-adv-x="563" 
d="M414 1468q-64 -71 -99.5 -134.5t-35.5 -104.5q0 -48 43 -78q4 -3 6 -4q35 -25 50 -50t15 -57q0 -49 -33 -80.5t-84 -31.5q-58 0 -98.5 46.5t-40.5 117.5q0 86 61 193t177 222z" />
    <glyph glyph-name="quoteright" unicode="&#x2019;" horiz-adv-x="563" 
d="M150 969q64 71 99.5 133.5t35.5 103.5q0 28 -8.5 45.5t-38.5 38.5q-35 25 -50.5 50t-15.5 57q0 49 32 79.5t83 30.5q58 0 98.5 -46.5t40.5 -117.5q0 -86 -61 -193t-177 -222z" />
    <glyph glyph-name="divide" unicode="&#xf7;" horiz-adv-x="1706" 
d="M854 367q51 0 88 -37t37 -88q0 -52 -36.5 -88.5t-88.5 -36.5q-53 0 -89 36t-36 89q0 51 37 88t88 37zM254 680h1198v-139h-1198v139zM854 1106q51 0 88 -37.5t37 -89.5q0 -51 -36.5 -88t-88.5 -37t-88.5 36.5t-36.5 88.5t37 89.5t88 37.5z" />
    <glyph glyph-name="lozenge" unicode="&#x25ca;" horiz-adv-x="1012" 
d="M506 1409l-385 -817l385 -825l385 825zM506 1653l500 -1061l-500 -1069l-500 1069z" />
    <glyph glyph-name="ydieresis" unicode="&#xff;" horiz-adv-x="844" 
d="M375 0l-273 803q-20 63 -46.5 99.5t-55.5 42.5v36h328v-37q-30 -6 -45 -22.5t-15 -42.5q0 -3 1 -7t3 -11l201 -630l162 500q9 27 13.5 54.5t4.5 56.5q0 43 -19 70.5t-52 31.5v37h280v-37q-43 -14 -84.5 -79.5t-87.5 -192.5l-274 -774q-71 -201 -129.5 -275t-136.5 -74
q-55 0 -90 28.5t-35 72.5q0 40 26 70t62 30q18 0 54.5 -15.5t57.5 -15.5q40 0 74.5 59.5t65.5 180.5zM598 1376q40 0 69 -30t29 -70q0 -43 -27.5 -71.5t-70.5 -28.5t-71.5 28.5t-28.5 71.5q0 40 30 70t70 30zM246 1376q40 0 70 -30t30 -70q0 -43 -28.5 -71.5t-71.5 -28.5
t-70.5 28.5t-27.5 71.5q0 40 29 70t69 30z" />
    <glyph glyph-name="Ydieresis" unicode="&#x178;" horiz-adv-x="1262" 
d="M424 0v38q50 2 73 44.5t23 136.5v375l-342 619l-9 16q-113 201 -179 209v37h413v-37q-33 -4 -49 -18t-16 -40q0 -20 18.5 -63t55.5 -109l282 -516l244 447q29 53 45 105t16 89q0 42 -27 72.5t-67 32.5v37h365v-37q-51 -6 -94 -49.5t-129 -198.5l-318 -580v-391
q0 -97 21.5 -137.5t72.5 -42.5v-39h-399zM807 1874q40 0 69 -30t29 -70q0 -43 -27.5 -71.5t-70.5 -28.5t-71.5 28.5t-28.5 71.5q0 40 30 70t70 30zM455 1874q40 0 70 -30t30 -70q0 -43 -28.5 -71.5t-71.5 -28.5t-70.5 28.5t-27.5 71.5q0 40 29 70t69 30z" />
    <glyph glyph-name="fraction" unicode="&#x2215;" horiz-adv-x="342" 
d="M-342 0l960 1456l64 -35l-958 -1454z" />
    <glyph glyph-name="currency" unicode="&#xa4;" horiz-adv-x="1128" 
d="M1116 256q-79 -147 -181 -218t-239 -71q-202 0 -343.5 167t-166.5 433h-159l16 66h139v37q0 30 1.5 62t4.5 65h-161l16 67h154q42 276 173.5 433t329.5 157q85 0 185 -36t164 -95l-74 -238l-43 7q-43 164 -102 233.5t-154 69.5q-129 0 -202 -137t-83 -394h500l-17 -67
h-485v-11q0 -28 1.5 -61t7.5 -92h438l-17 -66h-416q30 -235 125 -365t234 -130q92 0 167 50t150 159z" />
    <glyph glyph-name="guilsinglleft" unicode="&#x2039;" horiz-adv-x="473" 
d="M256 492q55 -90 86.5 -179t42.5 -182l-51 -16q-59 115 -125.5 209t-140.5 168q76 74 142 167.5t124 206.5l51 -14q-11 -93 -42.5 -182t-86.5 -178z" />
    <glyph glyph-name="guilsinglright" unicode="&#x203a;" horiz-adv-x="473" 
d="M217 492q-53 87 -84.5 175.5t-42.5 184.5l51 14q58 -114 123 -207t142 -167q-74 -72 -139.5 -165.5t-125.5 -211.5l-51 16q11 96 42.5 184.5t84.5 176.5z" />
    <glyph glyph-name="fi" unicode="&#xf001;" horiz-adv-x="981" 
d="M745 1214q-49 0 -85.5 37t-36.5 86q0 50 36 86.5t86 36.5q53 0 89 -35.5t36 -87.5q0 -50 -37 -86.5t-88 -36.5zM584 0v39q40 2 57.5 32.5t17.5 98.5v588q0 66 -18 94t-63 33v33q62 14 118 47t105 84h39v-879q0 -70 17 -99.5t58 -31.5v-39h-331zM76 0v39q39 1 57.5 32
t18.5 99v745h-127v66h127q-3 55 -10 138t-7 110q0 129 62 203.5t168 74.5q71 0 119 -37.5t48 -93.5q0 -36 -22 -60t-55 -24q-37 0 -58.5 16t-44.5 74q-12 31 -24 40.5t-33 9.5t-36 -17t-15 -41q0 -18 44 -146t44 -241v-6h194v-66h-194v-745q0 -70 17.5 -100t57.5 -31l1 -39
h-332z" />
    <glyph glyph-name="fi" unicode="&#xfb01;" horiz-adv-x="981" 
d="M745 1214q-49 0 -85.5 37t-36.5 86q0 50 36 86.5t86 36.5q53 0 89 -35.5t36 -87.5q0 -50 -37 -86.5t-88 -36.5zM584 0v39q40 2 57.5 32.5t17.5 98.5v588q0 66 -18 94t-63 33v33q62 14 118 47t105 84h39v-879q0 -70 17 -99.5t58 -31.5v-39h-331zM76 0v39q39 1 57.5 32
t18.5 99v745h-127v66h127q-3 55 -10 138t-7 110q0 129 62 203.5t168 74.5q71 0 119 -37.5t48 -93.5q0 -36 -22 -60t-55 -24q-37 0 -58.5 16t-44.5 74q-12 31 -24 40.5t-33 9.5t-36 -17t-15 -41q0 -18 44 -146t44 -241v-6h194v-66h-194v-745q0 -70 17.5 -100t57.5 -31l1 -39
h-332z" />
    <glyph glyph-name="fl" unicode="&#xf002;" horiz-adv-x="981" 
d="M584 0v39q40 2 57.5 32.5t17.5 98.5v1049q0 66 -18 93t-63 31v31q63 17 118.5 50t104.5 83h39v-1337q0 -70 17 -99.5t58 -31.5v-39h-331zM76 0v39q39 1 57.5 32t18.5 99v745h-127v66h127q-3 55 -10 138t-7 110q0 129 62 203.5t168 74.5q71 0 119 -37.5t48 -93.5
q0 -36 -22 -60t-55 -24q-37 0 -58.5 16t-44.5 74q-12 31 -24 40.5t-33 9.5t-36 -17t-15 -41q0 -18 44 -146t44 -241v-6h194v-66h-194v-745q0 -70 17.5 -100t57.5 -31l1 -39h-332z" />
    <glyph glyph-name="fl" unicode="&#xfb02;" horiz-adv-x="981" 
d="M584 0v39q40 2 57.5 32.5t17.5 98.5v1049q0 66 -18 93t-63 31v31q63 17 118.5 50t104.5 83h39v-1337q0 -70 17 -99.5t58 -31.5v-39h-331zM76 0v39q39 1 57.5 32t18.5 99v745h-127v66h127q-3 55 -10 138t-7 110q0 129 62 203.5t168 74.5q71 0 119 -37.5t48 -93.5
q0 -36 -22 -60t-55 -24q-37 0 -58.5 16t-44.5 74q-12 31 -24 40.5t-33 9.5t-36 -17t-15 -41q0 -18 44 -146t44 -241v-6h194v-66h-194v-745q0 -70 17.5 -100t57.5 -31l1 -39h-332z" />
    <glyph glyph-name="daggerdbl" unicode="&#x2021;" 
d="M397 639q45 75 67.5 155t22.5 164q0 8 -1 23t-1 22q-73 -2 -163 -37.5t-117 -35.5q-48 0 -77.5 24.5t-29.5 65.5q0 48 28 74t79 26q23 0 111.5 -33.5t158.5 -33.5h10q1 8 1.5 18t0.5 29q0 98 -37.5 194.5t-37.5 110.5q0 45 28.5 73.5t73.5 28.5q42 0 69 -29t27 -73
q0 -27 -23.5 -78.5t-31.5 -72.5q-9 -26 -13.5 -67t-4.5 -97v-35h22q64 0 150 33.5t110 33.5q48 0 77.5 -26.5t29.5 -69.5q0 -45 -28.5 -70.5t-78.5 -25.5q-25 0 -115.5 38t-168.5 38q0 -123 22.5 -213t69.5 -158q-46 -76 -68 -155.5t-22 -166.5v-43q68 3 161.5 38.5
t128.5 35.5q45 0 72 -26t27 -70q0 -41 -29.5 -67.5t-73.5 -26.5q-27 0 -116.5 34.5t-157.5 34.5h-10q-1 -8 -1.5 -18t-0.5 -29q0 -98 37.5 -196.5t37.5 -110.5q0 -45 -28.5 -73.5t-73.5 -28.5q-42 0 -69 29t-27 73q0 29 30 95q17 37 25 58q9 28 13.5 77.5t4.5 121.5h-22
q-62 0 -149 -34.5t-115 -34.5q-45 0 -74 28t-29 72q0 43 28.5 67.5t78.5 24.5q25 0 115.5 -38t168.5 -38q-1 125 -23.5 215t-68.5 156z" />
    <glyph glyph-name="periodcentered" unicode="&#xb7;" horiz-adv-x="563" 
d="M160 721q0 51 36 87t87 36q52 0 87.5 -35.5t35.5 -87.5q0 -51 -36.5 -87t-86.5 -36t-86.5 37t-36.5 86z" />
    <glyph glyph-name="quotesinglbase" unicode="&#x201a;" horiz-adv-x="563" 
d="M150 -322q64 72 99.5 134.5t35.5 103.5q0 28 -8.5 45t-38.5 39q-35 25 -50.5 50t-15.5 56q0 50 32 80.5t83 30.5q58 0 98.5 -47t40.5 -117q0 -85 -60.5 -190t-177.5 -223z" />
    <glyph glyph-name="quotedblbase" unicode="&#x201e;" horiz-adv-x="909" 
d="M496 -322q64 72 99.5 134.5t35.5 103.5q0 28 -8.5 45t-38.5 39q-35 25 -50.5 50t-15.5 56q0 50 32 80.5t83 30.5q58 0 98.5 -47t40.5 -117q0 -85 -60.5 -190t-176.5 -223zM150 -322q64 72 99.5 134.5t35.5 103.5q0 28 -8.5 45t-38.5 39q-35 25 -50.5 50t-15.5 56
q0 50 32 80.5t83 30.5q58 0 98.5 -47t40.5 -117q0 -85 -60.5 -190t-177.5 -223z" />
    <glyph glyph-name="perthousand" unicode="&#x2030;" horiz-adv-x="2185" 
d="M1812 6q81 0 116.5 94t35.5 316q0 209 -37 304t-119 95q-77 0 -114 -92.5t-37 -284.5q0 -236 36 -334t119 -98zM1812 -33q-133 0 -214.5 123t-81.5 326q0 192 87 316t218 124q122 0 203 -124.5t81 -319.5q0 -188 -86.5 -316.5t-206.5 -128.5zM1124 6q81 0 116.5 94
t35.5 316q0 209 -37 304t-119 95q-76 0 -112.5 -91.5t-36.5 -285.5q0 -239 35.5 -335.5t117.5 -96.5zM1126 -33q-134 0 -216.5 123.5t-82.5 325.5q0 192 87 316t219 124q122 0 203 -124.5t81 -319.5q0 -188 -85.5 -316.5t-205.5 -128.5zM377 606q81 0 116 94t35 316
q0 209 -37 304t-118 95q-77 0 -113.5 -91.5t-36.5 -285.5q0 -239 35.5 -335.5t118.5 -96.5zM379 567q-134 0 -216.5 123.5t-82.5 325.5q0 192 87 316t218 124q123 0 204 -124.5t81 -319.5q0 -188 -85.5 -316.5t-205.5 -128.5zM236 0l960 1456l64 -35l-961 -1454z" />
    <glyph glyph-name="Acircumflex" unicode="&#xc2;" horiz-adv-x="1241" 
d="M319 551h459l-221 729zM-47 0v39q76 26 127.5 97.5t105.5 240.5l369 1130h129l408 -1257q35 -109 68.5 -159t71.5 -52l1 -39h-399v39q32 7 51.5 27.5t19.5 48.5q0 21 -17 76l-8 25l-81 263h-504l-64 -197q-9 -30 -13.5 -57t-4.5 -49q0 -57 25.5 -92t74.5 -45v-39h-360z
M562 1968h118l232 -350h-58l-233 211l-233 -211h-58z" />
    <glyph glyph-name="Ecircumflex" unicode="&#xca;" horiz-adv-x="1255" 
d="M76 0v39q50 1 72 43t22 137v1034q0 99 -22 140t-72 43v39h1030l24 -287l-43 -6q-46 125 -136 173t-353 48h-63q-110 0 -133 -18.5t-23 -96.5v-420h213q168 0 236.5 31.5t95.5 110.5h34v-351h-36q-27 78 -81 108t-220 30h-29h-213v-584q0 -98 32 -120.5t167 -22.5
q162 0 231 7t121 23q66 22 127 74.5t129 147.5l43 -23l-86 -299h-1067zM559 1968h118l232 -350h-58l-233 211l-233 -211h-58z" />
    <glyph glyph-name="Aacute" unicode="&#xc1;" horiz-adv-x="1241" 
d="M319 551h459l-221 729zM-47 0v39q76 26 127.5 97.5t105.5 240.5l369 1130h129l408 -1257q35 -109 68.5 -159t71.5 -52l1 -39h-399v39q32 7 51.5 27.5t19.5 48.5q0 21 -17 76l-8 25l-81 263h-504l-64 -197q-9 -30 -13.5 -57t-4.5 -49q0 -57 25.5 -92t74.5 -45v-39h-360z
M842 1823l-330 -205h-67l289 299q35 36 56 48t42 12q31 0 51.5 -20t20.5 -50q0 -22 -15.5 -43t-46.5 -41z" />
    <glyph glyph-name="Edieresis" unicode="&#xcb;" horiz-adv-x="1255" 
d="M76 0v39q50 1 72 43t22 137v1034q0 99 -22 140t-72 43v39h1030l24 -287l-43 -6q-46 125 -136 173t-353 48h-63q-110 0 -133 -18.5t-23 -96.5v-420h213q168 0 236.5 31.5t95.5 110.5h34v-351h-36q-27 78 -81 108t-220 30h-29h-213v-584q0 -98 32 -120.5t167 -22.5
q162 0 231 7t121 23q66 22 127 74.5t129 147.5l43 -23l-86 -299h-1067zM794 1874q40 0 69 -30t29 -70q0 -43 -27.5 -71.5t-70.5 -28.5t-71.5 28.5t-28.5 71.5q0 40 30 70t70 30zM442 1874q40 0 70 -30t30 -70q0 -43 -28.5 -71.5t-71.5 -28.5t-70.5 28.5t-27.5 71.5
q0 40 29 70t69 30z" />
    <glyph glyph-name="Egrave" unicode="&#xc8;" horiz-adv-x="1255" 
d="M76 0v39q50 1 72 43t22 137v1034q0 99 -22 140t-72 43v39h1030l24 -287l-43 -6q-46 125 -136 173t-353 48h-63q-110 0 -133 -18.5t-23 -96.5v-420h213q168 0 236.5 31.5t95.5 110.5h34v-351h-36q-27 78 -81 108t-220 30h-29h-213v-584q0 -98 32 -120.5t167 -22.5
q162 0 231 7t121 23q66 22 127 74.5t129 147.5l43 -23l-86 -299h-1067zM505 1917l289 -299h-67l-330 205q-31 20 -46.5 41t-15.5 43q0 30 20.5 50t51.5 20q21 0 42 -12t56 -48z" />
    <glyph glyph-name="Iacute" unicode="&#xcd;" horiz-adv-x="573" 
d="M86 0v38q51 3 72.5 44.5t21.5 136.5v1034q0 97 -22 139t-72 44v39h401v-39q-50 -2 -72 -43t-22 -140v-1034q0 -97 21.5 -137.5t72.5 -42.5v-39h-401zM508 1823l-330 -205h-67l289 299q35 36 56 48t42 12q31 0 51.5 -20t20.5 -50q0 -22 -15.5 -43t-46.5 -41z" />
    <glyph glyph-name="Icircumflex" unicode="&#xce;" horiz-adv-x="573" 
d="M86 0v38q51 3 72.5 44.5t21.5 136.5v1034q0 97 -22 139t-72 44v39h401v-39q-50 -2 -72 -43t-22 -140v-1034q0 -97 21.5 -137.5t72.5 -42.5v-39h-401zM228 1968h118l232 -350h-58l-233 211l-233 -211h-58z" />
    <glyph glyph-name="Idieresis" unicode="&#xcf;" horiz-adv-x="573" 
d="M86 0v38q51 3 72.5 44.5t21.5 136.5v1034q0 97 -22 139t-72 44v39h401v-39q-50 -2 -72 -43t-22 -140v-1034q0 -97 21.5 -137.5t72.5 -42.5v-39h-401zM463 1874q40 0 69 -30t29 -70q0 -43 -27.5 -71.5t-70.5 -28.5t-71.5 28.5t-28.5 71.5q0 40 30 70t70 30zM111 1874
q40 0 70 -30t30 -70q0 -43 -28.5 -71.5t-71.5 -28.5t-70.5 28.5t-27.5 71.5q0 40 29 70t69 30z" />
    <glyph glyph-name="Igrave" unicode="&#xcc;" horiz-adv-x="573" 
d="M86 0v38q51 3 72.5 44.5t21.5 136.5v1034q0 97 -22 139t-72 44v39h401v-39q-50 -2 -72 -43t-22 -140v-1034q0 -97 21.5 -137.5t72.5 -42.5v-39h-401zM174 1917l289 -299h-67l-330 205q-31 20 -46.5 41t-15.5 43q0 30 20.5 50t51.5 20q21 0 42 -12t56 -48z" />
    <glyph glyph-name="Oacute" unicode="&#xd3;" horiz-adv-x="1470" 
d="M735 25q220 0 323 178t103 561q0 344 -106 516t-320 172q-205 0 -316.5 -187.5t-111.5 -533.5q0 -357 106 -531.5t322 -174.5zM733 -33q-133 0 -237.5 40.5t-194.5 125.5q-111 106 -170 262t-59 340q0 183 61.5 331.5t188.5 270.5q83 82 192.5 126t228.5 44
q111 0 216 -38.5t178 -106.5q127 -121 194.5 -279.5t67.5 -337.5q0 -164 -56.5 -312.5t-164.5 -268.5q-87 -98 -199.5 -147.5t-245.5 -49.5zM962 1823l-330 -205h-67l289 299q35 36 56 48t42 12q31 0 51.5 -20t20.5 -50q0 -22 -15.5 -43t-46.5 -41z" />
    <glyph glyph-name="Ocircumflex" unicode="&#xd4;" horiz-adv-x="1470" 
d="M735 25q220 0 323 178t103 561q0 344 -106 516t-320 172q-205 0 -316.5 -187.5t-111.5 -533.5q0 -357 106 -531.5t322 -174.5zM733 -33q-133 0 -237.5 40.5t-194.5 125.5q-111 106 -170 262t-59 340q0 183 61.5 331.5t188.5 270.5q83 82 192.5 126t228.5 44
q111 0 216 -38.5t178 -106.5q127 -121 194.5 -279.5t67.5 -337.5q0 -164 -56.5 -312.5t-164.5 -268.5q-87 -98 -199.5 -147.5t-245.5 -49.5zM682 1968h118l232 -350h-58l-233 211l-233 -211h-58z" />
    <glyph glyph-name="apple" unicode="&#xf000;" horiz-adv-x="1618" 
d="M836 1216q-1 6 -1.5 14t-0.5 23q0 124 95 229.5t236 131.5q1 -10 1.5 -23t0.5 -39q0 -131 -103.5 -234.5t-203.5 -103.5h-8q-3 0 -7.5 1t-8.5 1zM1505 403q-114 -247 -205 -342.5t-204 -95.5q-50 0 -131.5 33t-122.5 33q-45 0 -131 -33t-127 -33q-64 0 -128.5 44
t-129.5 132q-102 140 -157.5 295.5t-55.5 300.5q0 219 125 356.5t323 137.5q68 0 155 -34t124 -34q34 0 121.5 35t152.5 35q110 0 198 -40t161 -124q-102 -65 -151.5 -145.5t-49.5 -182.5q0 -113 60 -200t173 -138z" />
    <glyph glyph-name="Ograve" unicode="&#xd2;" horiz-adv-x="1470" 
d="M735 25q220 0 323 178t103 561q0 344 -106 516t-320 172q-205 0 -316.5 -187.5t-111.5 -533.5q0 -357 106 -531.5t322 -174.5zM733 -33q-133 0 -237.5 40.5t-194.5 125.5q-111 106 -170 262t-59 340q0 183 61.5 331.5t188.5 270.5q83 82 192.5 126t228.5 44
q111 0 216 -38.5t178 -106.5q127 -121 194.5 -279.5t67.5 -337.5q0 -164 -56.5 -312.5t-164.5 -268.5q-87 -98 -199.5 -147.5t-245.5 -49.5zM628 1917l289 -299h-67l-330 205q-31 20 -46.5 41t-15.5 43q0 30 20.5 50t51.5 20q21 0 42 -12t56 -48z" />
    <glyph glyph-name="Uacute" unicode="&#xda;" horiz-adv-x="1427" 
d="M180 1253q0 97 -22 139t-72 44v39h401v-39q-50 -2 -72 -43t-22 -140v-731q0 -257 87 -362t296 -105q97 0 167 20.5t124 63.5q70 57 98.5 155.5t28.5 336.5v487q0 152 -34.5 229t-108.5 89v39h346v-39q-72 -22 -101.5 -93.5t-29.5 -234.5v-479q0 -208 -21.5 -312.5
t-70.5 -169.5q-71 -91 -183.5 -135.5t-273.5 -44.5q-149 0 -263.5 45.5t-183.5 130.5q-48 61 -69 147.5t-21 272.5v690zM1003 1823l-330 -205h-67l289 299q35 36 56 48t42 12q31 0 51.5 -20t20.5 -50q0 -22 -15.5 -43t-46.5 -41z" />
    <glyph glyph-name="Ucircumflex" unicode="&#xdb;" horiz-adv-x="1427" 
d="M180 1253q0 97 -22 139t-72 44v39h401v-39q-50 -2 -72 -43t-22 -140v-731q0 -257 87 -362t296 -105q97 0 167 20.5t124 63.5q70 57 98.5 155.5t28.5 336.5v487q0 152 -34.5 229t-108.5 89v39h346v-39q-72 -22 -101.5 -93.5t-29.5 -234.5v-479q0 -208 -21.5 -312.5
t-70.5 -169.5q-71 -91 -183.5 -135.5t-273.5 -44.5q-149 0 -263.5 45.5t-183.5 130.5q-48 61 -69 147.5t-21 272.5v690zM723 1968h118l232 -350h-58l-233 211l-233 -211h-58z" />
    <glyph glyph-name="Ugrave" unicode="&#xd9;" horiz-adv-x="1427" 
d="M180 1253q0 97 -22 139t-72 44v39h401v-39q-50 -2 -72 -43t-22 -140v-731q0 -257 87 -362t296 -105q97 0 167 20.5t124 63.5q70 57 98.5 155.5t28.5 336.5v487q0 152 -34.5 229t-108.5 89v39h346v-39q-72 -22 -101.5 -93.5t-29.5 -234.5v-479q0 -208 -21.5 -312.5
t-70.5 -169.5q-71 -91 -183.5 -135.5t-273.5 -44.5q-149 0 -263.5 45.5t-183.5 130.5q-48 61 -69 147.5t-21 272.5v690zM669 1917l289 -299h-67l-330 205q-31 20 -46.5 41t-15.5 43q0 30 20.5 50t51.5 20q21 0 42 -12t56 -48z" />
    <glyph glyph-name="dotlessi" unicode="&#x131;" horiz-adv-x="473" 
d="M76 0v39q39 1 57.5 32t18.5 99v588q0 68 -18 95t-62 32v30q63 17 118.5 50t104.5 84h37v-879q0 -70 17.5 -100t57.5 -31l1 -39h-332z" />
    <glyph glyph-name="circumflex" unicode="&#x2c6;" 
d="M453 1470h118l232 -350h-58l-233 211l-233 -211h-58z" />
    <glyph glyph-name="tilde" unicode="&#x2dc;" 
d="M745 1417h54q-20 -103 -68.5 -154t-126.5 -51q-14 0 -32 2.5t-42 8.5l-108 28q-12 3 -26.5 4.5t-30.5 1.5q-33 0 -53.5 -20.5t-35.5 -69.5h-51q19 106 68 158.5t129 52.5q19 0 34 -2t29 -6l111 -29q14 -3 29 -5.5t26 -2.5q37 0 58.5 19t35.5 65z" />
    <glyph glyph-name="macron" unicode="&#xaf;" 
d="M254 1337h516v-125h-516v125z" />
    <glyph glyph-name="breve" unicode="&#x2d8;" 
d="M219 1432h51q17 -74 74.5 -108t167.5 -34q109 0 166 33.5t74 108.5h51q-20 -134 -94 -203.5t-197 -69.5t-198 69.5t-95 203.5z" />
    <glyph glyph-name="dotaccent" unicode="&#x2d9;" 
d="M512 1382q43 0 73.5 -31.5t30.5 -74.5q0 -44 -30 -74.5t-74 -30.5t-74 30.5t-30 74.5q0 43 31 74.5t73 31.5z" />
    <glyph glyph-name="ring" unicode="&#x2da;" 
d="M512 1491q-62 0 -104.5 -43.5t-42.5 -106.5q0 -61 43 -104t104 -43q63 0 107.5 43t44.5 104q0 63 -44.5 106.5t-107.5 43.5zM512 1583q102 0 172 -69.5t70 -170.5t-70.5 -171t-171.5 -70t-170.5 70t-69.5 171q0 102 69.5 171t170.5 69z" />
    <glyph glyph-name="cedilla" unicode="&#xb8;" 
d="M479 0h64v-112q18 3 32 4l29 2q86 0 134 -43.5t48 -120.5q0 -82 -58 -129t-161 -47q-54 0 -121.5 17t-171.5 58l35 78q61 -34 119.5 -53t103.5 -19q63 0 92 22.5t29 70.5q0 42 -30 66t-84 24q-12 0 -27.5 -1.5t-32.5 -4.5v188z" />
    <glyph glyph-name="hungarumlaut" unicode="&#x2dd;" 
d="M858 1335l-237 -215h-60l180 287q25 39 49 56.5t54 17.5q24 0 41.5 -17.5t17.5 -42.5q0 -22 -11 -43.5t-34 -42.5zM582 1337l-205 -217h-58l144 281q23 43 44.5 61.5t47.5 18.5q28 0 48 -20t20 -48q0 -15 -10.5 -34.5t-30.5 -41.5z" />
    <glyph glyph-name="ogonek" unicode="&#x2db;" 
d="M633 31h49q-91 -71 -135.5 -137t-44.5 -130q0 -54 27.5 -86t72.5 -32q39 0 69 18.5t50 54.5l29 -18q-37 -72 -91.5 -111t-119.5 -39q-70 0 -114 40.5t-44 103.5q0 88 62 170.5t190 165.5z" />
    <glyph glyph-name="caron" unicode="&#x2c7;" 
d="M221 1470h58l233 -210l233 210h58l-232 -350h-118z" />
    <glyph glyph-name="Lslash" unicode="&#x141;" horiz-adv-x="1176" 
d="M86 0v38q51 3 72.5 44.5t21.5 136.5v387l-180 -127v94l180 125v555q0 97 -22 139t-72 44v39h401v-39q-50 -2 -72 -43t-22 -140v-419l250 174v-93l-250 -174v-528q0 -96 30 -118.5t138 -22.5q160 0 235.5 14.5t135.5 48.5q39 22 83.5 69t96.5 120l45 -15l-76 -309h-995z
" />
    <glyph glyph-name="lslash" unicode="&#x142;" horiz-adv-x="465" 
d="M66 0v39q40 2 57.5 32.5t17.5 98.5v479l-141 -100v80l141 98v492q0 67 -17.5 93.5t-62.5 30.5v31q65 17 121.5 50.5t102.5 82.5h37v-667l143 100v-80l-143 -98v-592q0 -70 17 -99.5t58 -31.5v-39h-331z" />
    <glyph glyph-name="Scaron" unicode="&#x160;" horiz-adv-x="1161" 
d="M72 158l80 284l45 -8q43 -195 153.5 -301t267.5 -106q141 0 228.5 79.5t87.5 206.5q0 120 -69.5 194.5t-291.5 162.5l-56 22q-207 80 -279 156q-53 56 -80 121.5t-27 138.5q0 171 126.5 285t317.5 114q105 0 216.5 -36.5t226.5 -108.5l-66 -254l-41 8
q-40 155 -134.5 241.5t-221.5 86.5t-203 -66.5t-76 -175.5q0 -98 64 -164t252 -143l58 -24q259 -104 333 -177q56 -54 83.5 -124t27.5 -158q0 -193 -140 -319t-358 -126q-146 0 -280.5 49t-243.5 142zM291 1968h58l233 -210l233 210h58l-232 -350h-118z" />
    <glyph glyph-name="scaron" unicode="&#x161;" horiz-adv-x="819" 
d="M61 106l68 201l35 -8q27 -126 103 -200t175 -74q75 0 125.5 48.5t50.5 119.5q0 61 -39 103t-187 111l-8 4q-288 136 -288 306q0 132 87.5 212.5t230.5 80.5q71 0 142.5 -28t143.5 -83l-63 -180l-33 8q-24 109 -81.5 169t-137.5 60q-71 0 -119.5 -44.5t-48.5 -110.5
q0 -59 44.5 -102.5t162.5 -94.5l25 -11q309 -136 309 -314q0 -138 -95.5 -223t-252.5 -85q-84 0 -172.5 34.5t-176.5 100.5zM119 1470h58l233 -210l233 210h58l-232 -350h-118z" />
    <glyph glyph-name="Zcaron" unicode="&#x17d;" horiz-adv-x="1233" 
d="M0 0v33l903 1370h-190q-162 0 -237 -14.5t-134 -49.5q-37 -21 -83 -69t-99 -121l-41 14l61 312h1014l-926 -1403h355q185 0 302 64t210 214l49 -16l-84 -334h-1100zM325 1968h58l233 -210l233 210h58l-232 -350h-118z" />
    <glyph glyph-name="zcaron" unicode="&#x17e;" horiz-adv-x="834" 
d="M0 0l604 915h-106q-136 0 -218.5 -40.5t-152.5 -139.5l-31 8l60 238h671v-39l-577 -874q14 -1 28.5 -1.5t36.5 -0.5q201 0 301.5 46t178.5 160l39 -12l-76 -260h-758zM127 1470h58l233 -210l233 210h58l-232 -350h-118z" />
    <glyph glyph-name="brokenbar" unicode="&#xa6;" 
d="M438 408h150v-758h-150v758zM438 1432h150v-758h-150v758z" />
    <glyph glyph-name="Eth" unicode="&#xd0;" horiz-adv-x="1485" 
d="M379 195q0 -78 35 -106t155 -28q334 0 470.5 150t136.5 514q0 352 -129.5 525t-393.5 173q-169 0 -221.5 -34t-52.5 -136v-405h356v-70h-356v-583zM76 0v39q50 1 72 43t22 137v559h-170v70h170v405q0 99 -22 140t-72 43v39l328 10q37 1 73.5 1.5t91.5 0.5
q160 0 263.5 -19.5t187.5 -62.5q177 -90 280 -274.5t103 -413.5q0 -337 -207 -527t-575 -190h-545z" />
    <glyph glyph-name="eth" unicode="&#xf0;" horiz-adv-x="991" 
d="M496 25q122 0 182.5 114t60.5 346q0 240 -60 356.5t-183 116.5t-183.5 -115t-60.5 -347q0 -241 60 -356t184 -115zM680 963q-34 79 -69.5 143.5t-75.5 120.5l-267 -172l-26 45l262 170q-38 49 -88.5 99t-112.5 99l23 39q70 -43 131.5 -90t117.5 -98l248 158l29 -45
l-234 -150q164 -166 238 -341.5t74 -395.5q0 -267 -117 -420.5t-317 -153.5q-189 0 -312 146t-123 375q0 228 122.5 373t312.5 145q45 0 90.5 -11.5t93.5 -35.5z" />
    <glyph glyph-name="Yacute" unicode="&#xdd;" horiz-adv-x="1262" 
d="M424 0v38q50 2 73 44.5t23 136.5v375l-342 619l-9 16q-113 201 -179 209v37h413v-37q-33 -4 -49 -18t-16 -40q0 -20 18.5 -63t55.5 -109l282 -516l244 447q29 53 45 105t16 89q0 42 -27 72.5t-67 32.5v37h365v-37q-51 -6 -94 -49.5t-129 -198.5l-318 -580v-391
q0 -97 21.5 -137.5t72.5 -42.5v-39h-399zM852 1823l-330 -205h-67l289 299q35 36 56 48t42 12q31 0 51.5 -20t20.5 -50q0 -22 -15.5 -43t-46.5 -41z" />
    <glyph glyph-name="yacute" unicode="&#xfd;" horiz-adv-x="844" 
d="M375 0l-273 803q-20 63 -46.5 99.5t-55.5 42.5v36h328v-37q-30 -6 -45 -22.5t-15 -42.5q0 -3 1 -7t3 -11l201 -630l162 500q9 27 13.5 54.5t4.5 56.5q0 43 -19 70.5t-52 31.5v37h280v-37q-43 -14 -84.5 -79.5t-87.5 -192.5l-274 -774q-71 -201 -129.5 -275t-136.5 -74
q-55 0 -90 28.5t-35 72.5q0 40 26 70t62 30q18 0 54.5 -15.5t57.5 -15.5q40 0 74.5 59.5t65.5 180.5zM643 1325l-330 -205h-67l289 299q35 36 56 48t42 12q31 0 51.5 -20t20.5 -50q0 -22 -15.5 -43t-46.5 -41z" />
    <glyph glyph-name="Thorn" unicode="&#xde;" horiz-adv-x="1255" 
d="M379 418q33 -7 73 -9.5t97 -2.5q240 0 357.5 88.5t117.5 269.5q0 175 -108.5 269.5t-309.5 94.5q-131 0 -179 -28.5t-48 -118.5v-563zM76 0v39q50 1 72 43t22 137v1034q0 99 -22 140t-72 43v39h397v-39q-50 -2 -72 -43t-22 -140v-71q44 3 84 4.5t78 1.5q327 0 511.5 -114
t184.5 -314q0 -199 -165.5 -306.5t-473.5 -107.5q-61 0 -115 3.5t-104 10.5v-141q0 -97 22 -138t72 -42v-39h-397z" />
    <glyph glyph-name="thorn" unicode="&#xfe;" 
d="M307 754v-334q0 -190 58.5 -291.5t166.5 -101.5q119 0 177.5 110.5t58.5 335.5q0 199 -64 308.5t-180 109.5q-59 0 -113.5 -34.5t-103.5 -102.5zM57 -451v39q40 2 58 32.5t18 98.5v1500q0 66 -18 93t-64 31v31q65 17 121 50.5t102 82.5h39l-6 -682q67 93 144.5 139
t169.5 46q149 0 240 -133.5t91 -358.5q0 -237 -113 -392t-280 -155q-74 0 -136 30t-116 91v-373q0 -70 17.5 -99.5t58.5 -31.5v-39h-326z" />
    <glyph glyph-name="minus" unicode="&#x2212;" horiz-adv-x="1706" 
d="M254 682h1198v-141h-1198v141z" />
    <glyph glyph-name="multiply" unicode="&#xd7;" horiz-adv-x="1706" 
d="M391 1178l469 -469l469 469l98 -99l-469 -469l469 -469l-98 -96l-469 467l-469 -467l-98 96l469 469l-469 469z" />
    <glyph glyph-name="onesuperior" unicode="&#xb9;" horiz-adv-x="745" 
d="M238 569v23q33 1 48 27t15 81v535q0 44 -23.5 65t-72.5 21v24q47 10 95 34.5t97 64.5h31v-744q0 -57 14.5 -81.5t48.5 -26.5l1 -23h-254z" />
    <glyph glyph-name="twosuperior" unicode="&#xb2;" horiz-adv-x="745" 
d="M37 569v23l33 45q81 114 230 244q34 29 48 43q78 71 112 137t34 145q0 94 -40 149.5t-106 55.5q-58 0 -85 -26.5t-32 -88.5q-4 -49 -25 -75.5t-56 -26.5q-29 0 -46.5 18.5t-17.5 47.5q0 72 79 128t185 56q125 0 206 -72.5t81 -183.5q0 -44 -16 -84t-50 -82
q-38 -44 -169 -130l-28 -18q-90 -60 -146.5 -108t-92.5 -96h287q78 0 117 19.5t59 66.5l25 -6l-48 -181h-538z" />
    <glyph glyph-name="threesuperior" unicode="&#xb3;" horiz-adv-x="745" 
d="M299 1034q99 14 141.5 58t42.5 133q0 90 -35 137t-102 47q-53 0 -79 -24t-34 -83q-5 -38 -22.5 -57.5t-44.5 -19.5q-29 0 -48.5 18t-19.5 45q0 61 76.5 108.5t181.5 47.5q113 0 191 -61t78 -148q0 -63 -46.5 -110.5t-138.5 -80.5q101 -20 159 -80t58 -141
q0 -118 -89 -196t-226 -78q-113 0 -193.5 48t-80.5 110q0 25 16.5 42t40.5 17q30 0 50.5 -14.5t37.5 -51.5q35 -74 64 -95t77 -21q77 0 118.5 58t41.5 165q0 97 -40 150t-114 53q-15 0 -30.5 -2t-28.5 -4z" />
    <glyph glyph-name="onequarter" unicode="&#xbc;" horiz-adv-x="1763" 
d="M1454 264l2 430l-282 -430h280zM1399 0v23q31 6 43 31t12 96v45h-362v30l395 586h90v-547h131v-69h-131v-45q0 -77 11.5 -99t41.5 -28v-23h-231zM369 0l960 1456l64 -35l-959 -1454zM227 627v22q32 0 46 23.5t14 77.5v499q0 40 -21.5 59t-68.5 21v21q45 11 90.5 34
t91.5 58h31v-692q0 -55 13.5 -78t45.5 -23v-22h-242z" />
    <glyph glyph-name="onehalf" unicode="&#xbd;" horiz-adv-x="1763" 
d="M1087 0v23l31 40q79 106 222 226q33 28 46 41q75 69 106.5 130.5t31.5 135.5q0 88 -38 139t-102 51q-54 0 -80.5 -25.5t-29.5 -80.5q-5 -48 -25 -72t-55 -24q-26 0 -42.5 17t-16.5 44q0 66 75.5 118t175.5 52q121 0 198 -66.5t77 -170.5q0 -41 -15 -77.5t-49 -76.5
q-39 -45 -175 -132l-11 -7q-86 -56 -140 -101.5t-89 -91.5h274q73 0 110 19t56 63l25 -6l-45 -168h-515zM369 0l960 1456l64 -35l-959 -1454zM227 627v22q32 0 46 23.5t14 77.5v499q0 40 -21.5 59t-68.5 21v21q45 11 90.5 34t91.5 58h31v-692q0 -55 13.5 -78t45.5 -23v-22
h-242z" />
    <glyph glyph-name="threequarters" unicode="&#xbe;" horiz-adv-x="1763" 
d="M1454 264l2 430l-282 -430h280zM1399 0v23q31 6 43 31t12 96v45h-362v30l395 586h90v-547h131v-69h-131v-45q0 -77 11.5 -99t41.5 -28v-23h-231zM369 0l960 1456l64 -35l-959 -1454zM285 1061q94 12 136 54t42 124q0 83 -34.5 127.5t-98.5 44.5q-50 0 -75 -22.5
t-34 -77.5q-4 -36 -21 -55t-42 -19q-28 0 -46 17.5t-18 43.5q0 57 72.5 100.5t173.5 43.5q108 0 182 -56.5t74 -138.5q0 -58 -44 -102.5t-132 -75.5q97 -19 153 -74t56 -131q0 -110 -86.5 -183t-216.5 -73q-107 0 -183.5 44.5t-76.5 101.5q0 24 16 40.5t39 16.5
q29 0 48 -14.5t36 -48.5q34 -70 61 -89.5t72 -19.5q73 0 113.5 54.5t40.5 154.5q0 90 -38.5 139t-109.5 49q-24 0 -36 -1t-21 -3z" />
    <glyph glyph-name="franc" unicode="&#x20a3;" horiz-adv-x="1886" 
d="M76 0v39q50 1 72 43t22 137v1034q0 99 -22 140t-72 43v39h1018l26 -283l-37 -8q-49 123 -138.5 171t-317.5 48q-101 0 -162 -7t-74 -20q-6 -6 -9 -17t-3 -30v-16v-445h221q171 0 239.5 33.5t90.5 118.5h35v-356h-35q-27 74 -81.5 103.5t-217.5 29.5h-31h-221v-578
q0 -97 22 -138t72 -42v-39h-397zM1241 0v39q39 1 57.5 32t18.5 99v551q0 67 -18 93.5t-62 31.5v31q64 16 120 49.5t103 81.5h37v-197q84 102 149 150.5t117 48.5q47 0 74.5 -31.5t27.5 -85.5q0 -48 -32.5 -80.5t-81.5 -32.5q-23 0 -66 16.5t-71 16.5q-29 0 -58 -20t-59 -60
v-563q0 -70 17.5 -100t57.5 -31l1 -39h-332z" />
    <glyph glyph-name="Gbreve" unicode="&#x11e;" horiz-adv-x="1503" 
d="M1053 866v33h381v-33q-37 0 -60.5 -33t-23.5 -85v-443q0 -57 23 -90t64 -35l1 -26q-189 -95 -356 -141t-320 -46q-161 0 -288.5 59.5t-233.5 184.5q-80 93 -124 223.5t-44 276.5q0 180 65 335t191 273q96 90 228.5 139t281.5 49q120 0 247 -42.5t261 -127.5l-58 -247
l-35 2q-73 166 -199 258t-280 92q-231 0 -353 -180t-122 -523q0 -350 126.5 -532t371.5 -182q159 0 255.5 66.5t96.5 176.5v449q0 66 -25 104.5t-71 44.5zM459 1930h51q17 -74 74.5 -108t167.5 -34q109 0 166 33.5t74 108.5h51q-20 -134 -94 -203.5t-197 -69.5t-198 69.5
t-95 203.5z" />
    <glyph glyph-name="gbreve" unicode="&#x11f;" horiz-adv-x="977" 
d="M291 -12q-58 -32 -87.5 -79.5t-29.5 -109.5q0 -89 75 -142.5t202 -53.5q167 0 255.5 47.5t88.5 136.5q0 74 -82 113t-422 88zM258 655q0 -147 45.5 -218.5t138.5 -71.5q95 0 145 75t50 217q0 154 -47 232t-139 78q-99 0 -146 -76.5t-47 -235.5zM231 0q-84 23 -129 63
t-45 93q0 54 47 103.5t148 102.5q-86 49 -131 123t-45 166q0 150 113.5 254.5t281.5 104.5q79 0 142.5 -28.5t115.5 -86.5q75 66 120 93.5t77 27.5q34 0 61 -26.5t27 -59.5q0 -34 -25 -56t-63 -22q-22 0 -45 10t-56 33h-2q-8 0 -20.5 -8.5t-36.5 -30.5q26 -37 39.5 -82
t13.5 -96q0 -153 -112 -254.5t-281 -101.5q-33 0 -65 5.5t-64 16.5q-60 -37 -85.5 -64.5t-25.5 -56.5q0 -31 34 -49.5t128 -34.5q37 -6 104 -18q311 -53 365 -86q64 -39 93.5 -89t29.5 -118q0 -127 -125.5 -203t-341.5 -76q-213 0 -330.5 57.5t-117.5 160.5q0 64 48.5 119.5
t157.5 113.5zM196 1432h51q17 -74 74.5 -108t167.5 -34q109 0 166 33.5t74 108.5h51q-20 -134 -94 -203.5t-197 -69.5t-198 69.5t-95 203.5z" />
    <glyph glyph-name="Idotaccent" unicode="&#x130;" horiz-adv-x="573" 
d="M86 0v38q51 3 72.5 44.5t21.5 136.5v1034q0 97 -22 139t-72 44v39h401v-39q-50 -2 -72 -43t-22 -140v-1034q0 -97 21.5 -137.5t72.5 -42.5v-39h-401zM287 1880q43 0 73.5 -31.5t30.5 -74.5q0 -44 -30 -74.5t-74 -30.5t-74 30.5t-30 74.5q0 43 31 74.5t73 31.5z" />
    <glyph glyph-name="Scedilla" unicode="&#x15e;" horiz-adv-x="1161" 
d="M72 158l80 284l45 -8q43 -195 153.5 -301t267.5 -106q141 0 228.5 79.5t87.5 206.5q0 120 -69.5 194.5t-291.5 162.5l-56 22q-207 80 -279 156q-53 56 -80 121.5t-27 138.5q0 171 126.5 285t317.5 114q105 0 216.5 -36.5t226.5 -108.5l-66 -254l-41 8
q-40 155 -134.5 241.5t-221.5 86.5t-203 -66.5t-76 -175.5q0 -98 64 -164t252 -143l58 -24q259 -104 333 -177q56 -54 83.5 -124t27.5 -158q0 -193 -140 -319t-358 -126q-146 0 -280.5 49t-243.5 142zM549 0h64v-112q18 3 32 4l29 2q86 0 134 -43.5t48 -120.5
q0 -82 -58 -129t-161 -47q-54 0 -121.5 17t-171.5 58l35 78q61 -34 119.5 -53t103.5 -19q63 0 92 22.5t29 70.5q0 42 -30 66t-84 24q-12 0 -27.5 -1.5t-32.5 -4.5v188z" />
    <glyph glyph-name="scedilla" unicode="&#x15f;" horiz-adv-x="819" 
d="M61 106l68 201l35 -8q27 -126 103 -200t175 -74q75 0 125.5 48.5t50.5 119.5q0 61 -39 103t-187 111l-8 4q-288 136 -288 306q0 132 87.5 212.5t230.5 80.5q71 0 142.5 -28t143.5 -83l-63 -180l-33 8q-24 109 -81.5 169t-137.5 60q-71 0 -119.5 -44.5t-48.5 -110.5
q0 -59 44.5 -102.5t162.5 -94.5l25 -11q309 -136 309 -314q0 -138 -95.5 -223t-252.5 -85q-84 0 -172.5 34.5t-176.5 100.5zM377 0h64v-112q18 3 32 4l29 2q86 0 134 -43.5t48 -120.5q0 -82 -58 -129t-161 -47q-54 0 -121.5 17t-171.5 58l35 78q61 -34 119.5 -53t103.5 -19
q63 0 92 22.5t29 70.5q0 42 -30 66t-84 24q-12 0 -27.5 -1.5t-32.5 -4.5v188z" />
    <glyph glyph-name="Cacute" unicode="&#x106;" horiz-adv-x="1374" 
d="M1323 332q-115 -188 -259 -276.5t-335 -88.5q-298 0 -477.5 198.5t-179.5 528.5q0 208 68.5 377.5t201.5 290.5q75 69 184 107t230 38q118 0 242.5 -43t258.5 -131l-77 -248l-47 7q-56 173 -163.5 263.5t-258.5 90.5q-196 0 -316.5 -172.5t-120.5 -458.5
q0 -322 153.5 -526.5t391.5 -204.5q138 0 253 68t214 206zM909 1823l-330 -205h-67l289 299q35 36 56 48t42 12q31 0 51.5 -20t20.5 -50q0 -22 -15.5 -43t-46.5 -41z" />
    <glyph glyph-name="cacute" unicode="&#x107;" horiz-adv-x="854" 
d="M788 213l31 -23q-75 -105 -169 -162t-191 -57q-180 0 -289 135.5t-109 360.5q0 241 124 392t321 151q119 0 208 -66.5t89 -150.5q0 -42 -24.5 -68.5t-63.5 -26.5q-82 0 -111 118q-3 11 -4 15q-15 62 -49.5 92.5t-89.5 30.5q-107 0 -165 -103t-58 -294q0 -214 83 -341.5
t220 -127.5q70 0 132.5 31.5t114.5 93.5zM700 1325l-330 -205h-67l289 299q35 36 56 48t42 12q31 0 51.5 -20t20.5 -50q0 -22 -15.5 -43t-46.5 -41z" />
    <glyph glyph-name="Ccaron" unicode="&#x10c;" horiz-adv-x="1374" 
d="M1323 332q-115 -188 -259 -276.5t-335 -88.5q-298 0 -477.5 198.5t-179.5 528.5q0 208 68.5 377.5t201.5 290.5q75 69 184 107t230 38q118 0 242.5 -43t258.5 -131l-77 -248l-47 7q-56 173 -163.5 263.5t-258.5 90.5q-196 0 -316.5 -172.5t-120.5 -458.5
q0 -322 153.5 -526.5t391.5 -204.5q138 0 253 68t214 206zM397 1968h58l233 -210l233 210h58l-232 -350h-118z" />
    <glyph glyph-name="ccaron" unicode="&#x10d;" horiz-adv-x="854" 
d="M788 213l31 -23q-75 -105 -169 -162t-191 -57q-180 0 -289 135.5t-109 360.5q0 241 124 392t321 151q119 0 208 -66.5t89 -150.5q0 -42 -24.5 -68.5t-63.5 -26.5q-82 0 -111 118q-3 11 -4 15q-15 62 -49.5 92.5t-89.5 30.5q-107 0 -165 -103t-58 -294q0 -214 83 -341.5
t220 -127.5q70 0 132.5 31.5t114.5 93.5zM188 1470h58l233 -210l233 210h58l-232 -350h-118z" />
    <glyph glyph-name="dcroat" unicode="&#x111;" horiz-adv-x="1028" 
d="M717 221v373q0 172 -65 268t-181 96q-107 0 -163 -107t-56 -310q0 -221 65.5 -345t180.5 -124q61 0 119.5 39.5t99.5 109.5zM717 133q-61 -79 -138 -120.5t-163 -41.5q-156 0 -250 127.5t-94 341.5q0 256 112 413t293 157q77 0 139 -31t101 -88v237h-221v62h221v29
q0 66 -18.5 93t-63.5 31v31q64 18 121 51.5t102 81.5h33v-317h137v-62h-137v-958q0 -70 17.5 -100t57.5 -31l1 -39h-250v133z" />
    <glyph glyph-name="sfthyphen" unicode="&#xad;" horiz-adv-x="692" 
d="M61 428v143h570v-143h-570z" />
    <glyph glyph-name="periodcentered" unicode="&#x2219;" horiz-adv-x="563" 
d="M160 721q0 51 36 87t87 36q52 0 87.5 -35.5t35.5 -87.5q0 -51 -36.5 -87t-86.5 -36t-86.5 37t-36.5 86z" />
    <glyph glyph-name="Euro" horiz-adv-x="1128" 
d="M1116 256q-79 -147 -181 -218t-239 -71q-202 0 -343.5 167t-166.5 433h-159l16 66h139v37q0 30 1.5 62t4.5 65h-161l16 67h154q42 276 173.5 433t329.5 157q85 0 185 -36t164 -95l-74 -238l-43 7q-43 164 -102 233.5t-154 69.5q-129 0 -202 -137t-83 -394h500l-17 -67
h-485v-11q0 -28 1.5 -61t7.5 -92h438l-17 -66h-416q30 -235 125 -365t234 -130q92 0 167 50t150 159z" />
    <glyph glyph-name="Euro" unicode="&#x20ac;" horiz-adv-x="1128" 
d="M1116 256q-79 -147 -181 -218t-239 -71q-202 0 -343.5 167t-166.5 433h-159l16 66h139v37q0 30 1.5 62t4.5 65h-161l16 67h154q42 276 173.5 433t329.5 157q85 0 185 -36t164 -95l-74 -238l-43 7q-43 164 -102 233.5t-154 69.5q-129 0 -202 -137t-83 -394h500l-17 -67
h-485v-11q0 -28 1.5 -61t7.5 -92h438l-17 -66h-416q30 -235 125 -365t234 -130q92 0 167 50t150 159z" />
    </font>
</defs>
</svg>
