<svg version="1.1" id="Capa_1" xmlns="http://www.w3.org/2000/svg" xmlns:xlink="http://www.w3.org/1999/xlink" x="0px" y="0px"
    viewBox="-390 268.3 60 60" style="enable-background:new -390 268.3 60 60;" xml:space="preserve" width="16">
    <path fill="#9fa1a4" d="M-342,311.2l-9.6-4.8c-0.9-0.5-1.5-1.4-1.5-2.4v-3.4c0.2-0.3,0.5-0.6,0.7-1c1.2-1.8,2.2-3.7,3-5.8c1.4-0.6,2.3-2,2.3-3.6v-4
    c0-1-0.4-1.9-1-2.6v-5.3c0.1-0.5,0.3-3.8-2.1-6.5c-2.1-2.3-5.4-3.5-9.9-3.5s-7.9,1.2-9.9,3.5c-2.4,2.7-2.1,6-2.1,6.5v5.3
    c-0.6,0.7-1,1.7-1,2.6v4c0,1.2,0.6,2.4,1.5,3.1c0.9,3.6,2.8,6.4,3.5,7.2v3.3c0,1-0.5,1.9-1.4,2.3l-8.9,4.9c-2.9,1.6-4.7,4.6-4.7,7.9
    v3.2c0,4.7,15,6,23,6c8,0,23-1.3,23-6v-3C-337,315.8-338.9,312.7-342,311.2z"/>
</svg>