<?xml version="1.0" encoding="utf-8"?>
<!-- Generator: Adobe Illustrator 16.0.0, SVG Export Plug-In . SVG Version: 6.00 Build 0)  -->
<!DOCTYPE svg PUBLIC "-//W3C//DTD SVG 1.1//EN" "http://www.w3.org/Graphics/SVG/1.1/DTD/svg11.dtd">
<svg version="1.1" id="Capa_1" xmlns="http://www.w3.org/2000/svg" xmlns:xlink="http://www.w3.org/1999/xlink" x="0px" y="0px"
	 width="50px" height="50px" viewBox="0 0 50 50" enable-background="new 0 0 50 50" xml:space="preserve">
<g>
	<path fill="none" d="M11,34.28h28V15.72H11V34.28z M13.51,32.9l7.96-6.99l3.53,3.1l3.53-3.1l7.96,6.99H13.51z M37.62,32.06
		L29.57,25l8.05-7.07V32.06z M36.48,17.1L25,27.18L13.52,17.1H36.48z M12.38,17.93L20.42,25l-8.04,7.06V17.93z"/>
	<polygon fill="#F1F2F2" points="25,29.01 21.47,25.91 13.51,32.9 36.49,32.9 28.53,25.91 	"/>
	<polygon fill="#F1F2F2" points="37.62,32.06 37.62,17.93 29.57,25 	"/>
	<polygon fill="#F1F2F2" points="12.38,17.93 12.38,32.06 20.42,25 	"/>
	<path fill="#F1F2F2" d="M25,0C11.19,0,0,11.19,0,25c0,13.81,11.19,25,25,25c13.81,0,25-11.19,25-25C50,11.19,38.81,0,25,0z
		 M39,34.28H11V15.72h28V34.28z"/>
	<polygon fill="#F1F2F2" points="36.48,17.1 13.52,17.1 25,27.18 	"/>
</g>
</svg>
