<?xml version="1.0" encoding="utf-8"?>
<!-- Generator: Adobe Illustrator 19.0.0, SVG Export Plug-In . SVG Version: 6.00 Build 0)  -->
<svg version="1.1" id="Capa_1" xmlns="http://www.w3.org/2000/svg" xmlns:xlink="http://www.w3.org/1999/xlink" x="0px" y="0px"
	 viewBox="-280 372 50 50" style="enable-background:new -280 372 50 50;" xml:space="preserve" width="50px" height="50px">
<path fill="#F1F2F2" class="st0" d="M-255,372c-13.8,0-25,11.2-25,25s11.2,25,25,25s25-11.2,25-25S-241.2,372-255,372z M-260.5,406.2h-4.4v-14.4
	h4.4V406.2z M-262.7,389.9c-1.6,0-2.4-0.7-2.4-2.2c0-0.6,0.2-1.1,0.7-1.6c0.5-0.4,1-0.6,1.7-0.6c1.6,0,2.4,0.7,2.4,2.2
	C-260.3,389.1-261.1,389.9-262.7,389.9z M-244,406.2L-244,406.2h-4.5v-8.1c0-2.1-0.7-3.1-2.2-3.1c-1.2,0-1.9,0.6-2.3,1.8
	c-0.1,0.2-0.2,0.6-0.2,1.1v8.3h-4.5v-9.8c0-2.2,0-3.8-0.1-4.6h3.9l0.3,1.9c1-1.5,2.5-2.3,4.5-2.3c1.5,0,2.8,0.5,3.8,1.6
	c1,1.1,1.4,2.6,1.4,4.7V406.2z"/>
</svg>
