<svg version="1.1" id="Layer_1" xmlns="http://www.w3.org/2000/svg" xmlns:xlink="http://www.w3.org/1999/xlink" x="0px" y="0px"
	 width="105.553px" height="22.188px" viewBox="0 0 105.553 22.188" enable-background="new 0 0 105.553 22.188"
	 xml:space="preserve">
<g>
	<polygon fill="#FFFFFF" points="0,0.537 0,21.652 2.506,21.652 2.506,12.169 12.348,12.169 12.348,9.843 2.506,9.843 2.506,2.864 
		13.093,2.864 13.093,0.537 	"/>
	<g>
		<path fill="#FFFFFF" d="M17.213,21.651h2.504v-9.482h3.222l5.726,9.482h3.072l-5.996-9.722c3.282-0.506,5.28-2.505,5.28-5.575
			c0-5.221-4.324-5.817-8.41-5.817h-5.398V21.651z M19.717,2.864h3.521c2.445,0,5.099,0.446,5.099,3.49
			c0,3.488-3.608,3.488-6.382,3.488h-2.238V2.864z"/>
	</g>
	<path fill="#FFFFFF" d="M44.104,3.758h0.057l4.178,10.378h-8.62L44.104,3.758z M43.028,0.537l-9.304,21.115h2.832l2.178-5.189
		h10.558l2.146,5.189h2.926L45.385,0.537H43.028z"/>
	<polygon fill="#FFFFFF" points="72.354,0.537 72.354,18.072 72.295,18.072 60.068,0.537 56.906,0.537 56.906,21.652 59.41,21.652 
		59.41,4.116 59.472,4.116 71.699,21.652 74.861,21.652 74.861,0.537 	"/>
	<g>
		<path fill="#FFFFFF" d="M105.193,2.477C103.644,0.658,101.645,0,99.289,0c-3.697,0-7.188,2.029-7.188,6.084
			c0,3.521,2.267,4.832,5.249,5.816c3.757,1.253,5.518,1.701,5.518,4.294c0,2.416-2.446,3.669-4.593,3.669
			c-1.818,0-3.609-0.807-4.504-2.355l-2.146,1.759c1.432,2.117,4.053,2.922,6.502,2.922c3.815,0,7.426-1.966,7.426-6.174
			c0-4.146-3.043-5.218-6.322-6.262c-3.372-1.073-4.443-1.938-4.443-3.877c0-2.505,2.297-3.55,4.502-3.55
			c1.521,0,3.012,0.598,3.848,1.938L105.193,2.477z"/>
	</g>
	<polygon fill="#FFFFFF" points="85.935,0.604 75.998,11.181 85.935,21.563 89.597,21.563 79.216,11.181 89.597,0.604 	"/>
</g>
</svg>
