<?xml version="1.0" encoding="iso-8859-1"?>
<!-- Generator: Adobe Illustrator 18.1.1, SVG Export Plug-In . SVG Version: 6.00 Build 0)  -->
<svg version="1.1" id="Capa_1" xmlns="http://www.w3.org/2000/svg" xmlns:xlink="http://www.w3.org/1999/xlink" x="0px" y="0px" width="30px" height="30px" viewBox="0 0 50 50" enable-background="new 0 0 50 50" xml:space="preserve">

	<g>

		<path fill="#F1F2F2" d="M12.38,17.93V32.06L20.42,25L12.38,17.93z M28.53,25.91L25,29.01l-3.53-3.1l-7.96,6.99h22.98L28.53,25.91z

		M29.57,25l8.05,7.06V17.93L29.57,25z M29.57,25l8.05,7.06V17.93L29.57,25z M25,29.01l-3.53-3.1l-7.96,6.99h22.98l-7.96-6.99

		L25,29.01z M12.38,17.93V32.06L20.42,25L12.38,17.93z M25,0C11.19,0,0,11.19,0,25c0,13.81,11.19,25,25,25c13.81,0,25-11.19,25-25

		C50,11.19,38.81,0,25,0z M39,34.28H11V15.72h28V34.28z M37.62,17.93L29.57,25l8.05,7.06V17.93z M36.49,32.9l-7.96-6.99L25,29.01

		l-3.53-3.1l-7.96,6.99H36.49z M12.38,17.93V32.06L20.42,25L12.38,17.93z"></path>

		<polygon fill="#2f3030" points="36.48,17.1 25,27.18 13.52,17.1  "></polygon>

	</g>

</svg>