<svg id="Layer_1" data-name="Layer 1" xmlns="http://www.w3.org/2000/svg" viewBox="0 0 1779.5 709.99">
  <g id="shapes-cont">
    <g id="_Group_" data-name="&lt;Group&gt;">
      <g id="_Group_2" data-name="&lt;Group&gt;">
        <g id="shape">
          <path id="_Compound_Path_" data-name="&lt;Compound Path&gt;" d="M1706.11,677.91l-50.39-17.78,25.19-21.49Zm-43.06-19.15,34.06,12-17-26.55Z" transform="translate(-175.59 -22.73)" style="fill: #fccc65"/>
        </g>
        <g id="shape-2" data-name="shape">
          <polygon id="_Path_" data-name="&lt;Path&gt;" points="1634.93 437.6 1650.52 413.74 1648.4 439.02 1634.93 437.6" style="fill: #fccc65"/>
        </g>
        <g id="shape-3" data-name="shape">
          <path id="_Compound_Path_2" data-name="&lt;Compound Path&gt;" d="M740.41,656.22l16.13-4.65-6.76,34.66Zm13-1.21-9.91,2.86,5.76,18.44Z" transform="translate(-175.59 -22.73)" style="fill: #fccc65"/>
        </g>
        <g id="shape-4" data-name="shape">
          <polygon id="_Path_2" data-name="&lt;Path&gt;" points="1779.45 114.53 1779.5 127.45 1770 125.12 1771.96 135.91 1766.91 134.51 1767.3 143.01 1760.74 141.53 1758.55 146.83 1756.13 146.96 1759.82 138.03 1764.34 139.06 1763.94 130.32 1768.15 131.48 1766.23 120.89 1776.77 123.47 1776.74 115.97 1779.45 114.53" style="fill: #fccc65"/>
        </g>
        <g id="shape-5" data-name="shape">
          <circle id="_Path_3" data-name="&lt;Path&gt;" cx="1005.3" cy="12.18" r="12.18" style="fill: #fccc65"/>
        </g>
        <g id="shape-6" data-name="shape">
          <circle id="_Path_4" data-name="&lt;Path&gt;" cx="1186.7" cy="703.8" r="6.18" style="fill: #fccc65"/>
        </g>
        <g id="shape-7" data-name="shape">
          <circle id="_Path_5" data-name="&lt;Path&gt;" cx="1454.91" cy="34.91" r="6.18" style="fill: #fccc65"/>
        </g>
        <g id="shape-8" data-name="shape">
          <circle id="_Path_6" data-name="&lt;Path&gt;" cx="14.58" cy="64.07" r="6.18" style="fill: #fccc65"/>
        </g>
        <g id="shape-9" data-name="shape">
          <circle id="_Path_7" data-name="&lt;Path&gt;" cx="176.88" cy="425.63" r="3.05" style="fill: #fccc65"/>
        </g>
        <g id="shape-10" data-name="shape">
          <circle id="_Path_8" data-name="&lt;Path&gt;" cx="224.97" cy="231.59" r="6.18" style="fill: #fccc65"/>
        </g>
        <g id="shape-11" data-name="shape">
          <path id="_Compound_Path_3" data-name="&lt;Compound Path&gt;" d="M1481.07,226.12l11.58,14.9-15.34,11.92L1465.73,238Zm7.22,14.35-7.77-10-10.43,8.11,7.77,10Z" transform="translate(-175.59 -22.73)" style="fill: #fccc65"/>
        </g>
        <g id="shape-12" data-name="shape">
          <path id="_Compound_Path_4" data-name="&lt;Compound Path&gt;" d="M681,52l25.7,8.3L698.16,86.8l-25.7-8.3Zm20.1,11.16-17.23-5.56-5.81,18,17.23,5.56Z" transform="translate(-175.59 -22.73)" style="fill: #fccc65"/>
        </g>
        <g id="shape-13" data-name="shape">
          <circle id="_Path_9" data-name="&lt;Path&gt;" cx="1721.94" cy="584.04" r="12.18" style="fill: #fccc65"/>
        </g>
        <g id="shape-14" data-name="shape">
          <polygon id="_Path_10" data-name="&lt;Path&gt;" points="4.15 539.6 11.53 545.86 12 535.56 19.2 541.25 18.65 530.63 27.13 537.07 27.09 529.74 29.11 529.73 29.16 541.14 20.88 534.85 21.44 545.58 13.83 539.57 13.36 550.04 6.48 544.21 7.11 553.46 0 550.39 0.8 548.55 4.88 550.31 4.15 539.6" style="fill: #fccc65"/>
        </g>
      </g>
    </g>
  </g>
</svg>
