<svg version="1.1" id="Layer_1" xmlns="http://www.w3.org/2000/svg" xmlns:xlink="http://www.w3.org/1999/xlink" x="0px" y="0px"
	 width="50px" height="50px" viewBox="0 0 108 108" enable-background="new 0 0 108 108" xml:space="preserve">
<g id="wishlist-text">
    <g id="text-1">
        <path fill="#FFFFFF" d="M42.596,12.73c-1.086-2.246-2.392-4.947-3.229-7.01l-0.073,0.03c0.248,2.168,0.425,4.507,0.548,7.128
            l0.444,9.213l-1.613,0.677l-5.955-6.729c-1.756-1.993-3.309-3.842-4.593-5.604l-0.05,0.021c0.813,2.073,1.85,4.888,2.738,7.417
            l2.523,7.248l-2.028,0.851L25.546,9.019l2.713-1.139l6.154,6.789c1.535,1.741,2.855,3.313,3.989,4.851l0.073-0.031
            c-0.281-1.836-0.454-3.891-0.592-6.275l-0.41-9.198l2.713-1.138l7.938,16.042l-2.078,0.871L42.596,12.73z"/>
    </g>
    <g id="text-2">
        <path fill="#FFFFFF" d="M58.525,19.033l1.434-7.443l-3.6-11.166l2.577,0.496l1.54,5.317c0.421,1.458,0.737,2.625,1.047,3.953
            l0.052,0.01c0.715-1.05,1.535-2.079,2.467-3.276l3.457-4.355l2.576,0.496l-7.821,8.94l-1.438,7.47L58.525,19.033z"/>
    </g>
    <g id="text-3">
        <path fill="#FFFFFF" d="M79.915,28.12L92.106,14.3l1.376,2.013l-6.266,6.851c-1.539,1.693-3.107,3.345-4.351,4.578l0.03,0.045
            c1.631-0.762,3.695-1.499,5.942-2.297l8.786-3.115l1.361,1.992l-6.258,6.908c-1.467,1.612-2.947,3.202-4.352,4.483l0.029,0.044
            c1.829-0.802,3.754-1.507,5.906-2.303l8.771-3.138l1.332,1.948l-17.605,5.899l-1.361-1.992l6.409-7.108
            c1.568-1.746,2.803-3.039,4.157-4.253l-0.03-0.044c-1.646,0.739-3.314,1.398-5.592,2.152l-9.116,3.148L79.915,28.12z"/>
    </g>
    <g id="text-4">
        <path fill="#FFFFFF" d="M107.891,48.259l-17.777,1.766l-0.228-2.294l17.776-1.766L107.891,48.259z"/>
    </g>
    <g id="text-5">
        <path fill="#FFFFFF" d="M93.61,57.138c-0.862,0.854-1.733,2.198-2.108,3.743c-0.557,2.293,0.329,3.926,2.081,4.351
            c1.623,0.394,2.775-0.31,4.245-2.434c1.691-2.591,3.584-3.985,6.032-3.392c2.703,0.655,4.169,3.384,3.351,6.758
            c-0.431,1.777-1.155,2.965-1.78,3.632l-1.679-1.062c0.445-0.492,1.242-1.526,1.623-3.098c0.575-2.369-0.623-3.614-1.808-3.902
            c-1.623-0.393-2.677,0.47-4.186,2.64c-1.845,2.661-3.625,3.812-6.175,3.193c-2.68-0.649-4.516-3.195-3.522-7.291
            c0.406-1.674,1.339-3.384,2.183-4.161L93.61,57.138z"/>
    </g>
    <g id="text-6">
        <path fill="#FFFFFF" d="M98.374,85.632l-5.615-4.934l-5.703,6.49l5.615,4.934l-1.539,1.752l-13.42-11.791l1.539-1.752l6.292,5.527
            l5.703-6.49l-6.292-5.528l1.522-1.731l13.42,11.791L98.374,85.632z"/>
    </g>
    <g id="text-7">
        <path fill="#FFFFFF" d="M78.066,102.593l-2.169,0.783l-5.415-14.98l-7.18,2.596l-0.657-1.819l9.348-3.379L78.066,102.593z"/>
    </g>
    <g id="text-8">
        <path fill="#FFFFFF" d="M55.136,107.573l-0.032-17.864l2.306-0.004l0.032,17.864L55.136,107.573z"/>
    </g>
    <g id="text-9">
        <path fill="#FFFFFF" d="M47.723,92.187c-0.769-0.939-2.022-1.935-3.526-2.455c-2.229-0.772-3.938-0.046-4.528,1.657
            c-0.546,1.578,0.043,2.792,2.019,4.457c2.418,1.932,3.626,3.948,2.802,6.328c-0.911,2.63-3.767,3.829-7.048,2.692
            c-1.727-0.599-2.84-1.433-3.444-2.119l1.217-1.569c0.447,0.491,1.399,1.382,2.928,1.911c2.305,0.798,3.658-0.276,4.058-1.428
            c0.547-1.578-0.212-2.71-2.229-4.419c-2.475-2.09-3.449-3.971-2.591-6.45c0.901-2.604,3.611-4.19,7.593-2.812
            c1.628,0.563,3.241,1.655,3.935,2.568L47.723,92.187z"/>
    </g>
    <g id="text-10">
        <path fill="#FFFFFF" d="M20.409,92.159l3.899,3.784l-1.366,1.407l-9.49-9.212l1.366-1.407l3.918,3.803l11.076-11.411l1.673,1.625
            L20.409,92.159z"/>
    </g>
</g>
<g id="wishlist-heart">
	<path fill="#FF97AE" d="M54.987,40.079c3.459-3.714,7.547-5.159,12.275-3.975c8.572,2.141,11.985,12.632,5.93,18.999
		c-5.87,6.162-12.304,11.813-18.638,17.833c0.198,0.152-0.106-0.027-0.348-0.268c-5.632-5.612-11.318-11.17-16.866-16.862
		c-6.505-6.675-3.585-17.448,5.354-19.699C47.421,34.917,51.517,36.348,54.987,40.079"/>
</g>
</svg>
