<?xml version="1.0" encoding="utf-8"?>
<!-- Generator: Adobe Illustrator 19.0.0, SVG Export Plug-In . SVG Version: 6.00 Build 0)  -->
<svg version="1.1" id="Layer_1" xmlns="http://www.w3.org/2000/svg" xmlns:xlink="http://www.w3.org/1999/xlink" x="0px" y="0px"
	 viewBox="0 0 175.5 46.2" style="enable-background:new 0 0 175.5 46.2;" xml:space="preserve">
<style type="text/css">
	.st0{fill:#2D2F83;}
</style>
<g>
	<path class="st0" d="M12.3,14.1c0.5-1.1,0.8-2.1,1.2-3.2l3.1-8.6h1.6l-3.3,9.2c-0.8,2.1-1.3,4.1-1.2,5.5c0,0.8,0.3,1.2,0.7,1.2
		c1.6,0,4.1-4.3,6.2-9.2c0.1-0.2,0.2-0.4,0.2-0.6c-0.2-0.7-0.5-1.6-0.5-2.8c0-2.4,0.8-3.5,1.5-3.5c0.3,0,0.7,0.3,0.7,1.1
		c0,1.1-0.4,2.9-1.2,5.2c0.2,0.4,0.5,0.8,0.9,1.3l-0.4,0.4c-0.2-0.2-0.5-0.5-0.8-1L21,9.5c-2.3,5.7-5.1,9.7-6.9,9.7
		c-1.2,0-1.7-1.1-1.7-2.8c0-0.5,0-0.9,0.1-1.4c-1.9,3.3-3.2,4.2-4.1,4.2c-1.2,0-1.8-1.1-1.8-2.8c0-1.5,0.5-3.4,1.2-5.4l1.8-5.1
		c0.6-1.7,1.2-3.6,1.2-4.6c0-0.5-0.1-0.8-0.5-0.8c-0.2,0-3,0-7.6,6.6L2.3,5.4C5.5,1.9,8.7,0,10.3,0C11.5,0,12,0.8,12,2
		c0,1.1-0.4,2.6-0.8,3.9l-1.9,5.7C8.6,13.7,8,16,8,17.4c0,0.7,0.2,0.9,0.6,0.9C9.4,18.3,11,16.6,12.3,14.1z M21,7.8
		c0.4-1.3,0.8-2.8,0.8-3.4c0-0.2-0.1-0.5-0.2-0.5c-0.4,0-0.8,1.2-0.8,2.5C20.9,6.9,20.9,7.4,21,7.8z"/>
	<path class="st0" d="M24.5,11.2c0-0.1-0.1-0.2-0.1-0.2c-0.1,0-0.2,0.1-0.2,0.2l-2.6,3.2l-0.3-0.2l3-3.7c0.5-0.6,0.9-1.1,1.5-1.1
		c0.5,0,0.7,0.4,0.7,0.7c0,0.3-0.1,0.8-0.3,1.2l-2.2,5.3c-0.1,0.2-0.1,0.4-0.1,0.5c0,0.2,0.1,0.2,0.3,0.2c0.2,0,0.6-0.2,1-0.7l2.4-3
		l0.4,0.3l-2.9,3.6c-0.9,1.1-1.4,1.3-2.1,1.3c-0.5,0-0.9-0.3-0.9-0.8c0-0.4,0.2-1,0.6-1.9l2.1-4.9C24.5,11.3,24.5,11.2,24.5,11.2z
		 M28.4,5.2c0,0.6-0.4,1.2-1.1,1.2c-0.5,0-0.9-0.5-0.9-1c0-0.7,0.6-1.2,1.1-1.2S28.4,4.6,28.4,5.2z"/>
	<path class="st0" d="M27.6,16.7c0.7,0,0,1.1,0.5,1.1c1.5,0,2.6-2.8,2.6-5.1c0-1-0.2-1.6-0.5-2.1c-0.6,0.9-1.5,2.1-3,3.9l-0.3-0.3
		c1.4-1.8,2.4-3.1,3.1-4.1c-0.1-0.2-0.2-0.4-0.2-0.5c0-0.8,1-1.8,1.8-1.8c0.2,0,0.5,0.1,0.5,0.5c0,0.2-0.6,0.9-0.6,1.2
		c0,0.3,0.5,1.3,0.5,2.9c0,2-1,4-2.4,5.3c1.3-0.7,2.8-1.9,4.3-3.8l0.3,0.3c-2.1,2.7-4.6,4.2-6.6,4.8c-0.3,0.1-0.6,0.1-0.9,0.1
		c-0.4,0-0.9-0.1-0.9-0.6C26,17.8,27,16.7,27.6,16.7z"/>
	<path class="st0" d="M36.4,15.9c0,0.1,0,0.1,0.1,0.1c0.1,0,0.2-0.1,0.3-0.3l2.8-4.1c1.1-1.7,1.8-2.3,2.5-2.3c0.7,0,1.1,0.3,1.1,0.8
		c0,0.3-0.1,0.6-0.2,0.9l-2.3,5.6c-0.1,0.2-0.1,0.4-0.1,0.5c0,0.2,0.1,0.2,0.3,0.2c0.2,0,0.6-0.2,1-0.7l2.4-3l0.3,0.3l-2.9,3.6
		c-0.9,1.1-1.4,1.3-2.1,1.3c-0.5,0-0.9-0.3-0.9-0.8c0-0.4,0.2-1,0.6-1.9l2.1-5c0-0.1,0.1-0.1,0.1-0.2c0-0.2-0.1-0.3-0.3-0.3
		c-0.1,0-0.3,0.1-0.5,0.3l-4.3,6.5c-0.7,1-1.2,1.4-1.6,1.4c-0.4,0-0.6-0.2-0.6-0.6c0-0.4,0.2-1,0.6-1.8l2.6-6.2
		c-0.6,0.9-1.5,2.1-3.2,4.2l-0.3-0.3c3.6-4.4,4.1-5.9,5.1-7.7l1.5-3.7h1.6l-5.4,12.8C36.4,15.6,36.4,15.8,36.4,15.9z"/>
	<path class="st0" d="M47.1,11.2c0-0.1-0.1-0.2-0.1-0.2c-0.1,0-0.2,0.1-0.2,0.2l-2.6,3.2l-0.3-0.2l3-3.7c0.5-0.6,0.9-1.1,1.5-1.1
		c0.5,0,0.7,0.4,0.7,0.7c0,0.3-0.1,0.8-0.3,1.2l-2.2,5.3c-0.1,0.2-0.1,0.4-0.1,0.5c0,0.2,0.1,0.2,0.3,0.2c0.2,0,0.6-0.2,1-0.7l2.4-3
		l0.4,0.3l-2.9,3.6c-0.9,1.1-1.4,1.3-2.1,1.3c-0.5,0-0.9-0.3-0.9-0.8c0-0.4,0.2-1,0.6-1.9l2.1-4.9C47.1,11.3,47.1,11.2,47.1,11.2z
		 M51,5.2c0,0.6-0.4,1.2-1.1,1.2c-0.5,0-0.9-0.5-0.9-1c0-0.7,0.6-1.2,1.1-1.2S51,4.6,51,5.2z"/>
	<path class="st0" d="M52.9,11.2c0-0.1-0.1-0.2-0.1-0.2c-0.1,0-0.2,0.1-0.2,0.2l-2.6,3.2l-0.3-0.2l3-3.7C53,9.9,53.5,9.4,54,9.4
		c0.5,0,0.7,0.4,0.7,0.7c0,0.3-0.1,0.8-0.3,1.2l-1.8,4.3c-0.1,0.1-0.1,0.2-0.1,0.3c0,0.1,0.1,0.1,0.1,0.1c0.1,0,0.2-0.1,0.3-0.3
		l2.8-4.1c1.1-1.7,1.7-2.3,2.5-2.3c0.7,0,1,0.3,1,0.8c0,0.3-0.1,0.6-0.2,0.9l-2.3,5.6c-0.1,0.2-0.1,0.4-0.1,0.5
		c0,0.2,0.1,0.2,0.3,0.2c0.2,0,0.6-0.2,1-0.7l2.4-3l0.4,0.3l-2.9,3.6c-0.9,1.1-1.4,1.3-2.1,1.3c-0.5,0-0.9-0.3-0.9-0.8
		c0-0.4,0.2-1,0.6-1.9l2.1-5c0-0.1,0-0.1,0-0.2c0-0.2-0.1-0.3-0.2-0.3c-0.1,0-0.3,0.1-0.5,0.3l-4.3,6.5c-0.7,1-1.2,1.4-1.7,1.4
		c-0.4,0-0.6-0.2-0.6-0.6c0-0.4,0.2-1,0.6-1.8l2.2-5.2C52.9,11.3,52.9,11.2,52.9,11.2z"/>
	<path class="st0" d="M69.8,14.1c-1.7,2.1-3.1,3.4-4.8,4.8l-1.3,3.1c-1.1,2.7-2.3,4.4-4.2,4.4c-1.2,0-1.6-0.9-1.6-1.6
		c0-2.3,2.9-3.8,5.5-5.7l2.6-6.2c0.1-0.1,0.1-0.2,0.1-0.2c0-0.1,0-0.1-0.1-0.1s-0.2,0.1-0.2,0.2c-0.3,0.4-2.8,4-3.8,5
		c-0.8,0.8-1.5,1.3-2.1,1.3c-0.4,0-1.1-0.3-1.1-1.5c0-2.7,3.9-7.7,7.8-8v0.2c-3.2,0.9-5.8,5.3-5.8,7.1c0,0.3,0.1,0.6,0.3,0.6
		c0.6,0,3-3.1,4.5-5.1c1.6-2.1,1.9-2.7,2.6-2.7c0.4,0,0.5,0.2,0.5,0.5c0,0.2-0.1,0.5-0.2,0.7L65.4,18c1.2-1,2.5-2.3,4-4.2L69.8,14.1
		z M63.1,19.8c-2.8,2-4.6,3.1-4.6,5c0,0.5,0.2,1.1,0.9,1.1c0.9,0,1.6-1.1,2.3-2.7L63.1,19.8z"/>
	<path class="st0" d="M86.6,14.1c-1.7,2.2-3.2,3.5-4.9,4.9l-2.7,6.2l-2,0.5c0,0,5.6-12.5,5.9-13.1c0.1-0.1,0.1-0.2-0.1-0.2
		c-0.1,0-0.2,0.1-0.2,0.2c-2.2,3.4-3.1,6.3-5.1,6.3c-0.6,0-1.1-0.4-1.1-1.2c0-0.6,0.3-1.4,0.4-1.6l2-4.8c0-0.1,0-0.1,0-0.1
		c0-0.1-0.1-0.2-0.1-0.2c-0.1,0-0.2,0.1-0.2,0.2l-2.6,3.2l-0.3-0.2l3-3.7c0.5-0.6,0.9-1.1,1.5-1.1c0.5,0,0.7,0.4,0.7,0.7
		c0,0.3-0.1,0.8-0.3,1.2l-2,4.7c-0.2,0.4-0.3,0.9-0.3,1.2c0,0.4,0.2,0.5,0.5,0.5c0.8,0,2.5-3.7,3.8-5.8c1.2-2,1.5-2.5,2.5-2.5
		c0.4,0,0.6,0.2,0.6,0.5c0,0.2-0.1,0.5-0.1,0.7l-3.3,7.6c1.2-1,2.6-2.3,4.2-4.3L86.6,14.1z"/>
	<path class="st0" d="M95.4,14.1c-1.1,1.4-2,1.9-2.9,2c-1.1,1.6-2.6,2.8-4.2,2.8c-1.3,0-2.6-0.9-2.6-2.7c0-2.9,2.1-5.7,5.2-6.9
		L91,9.6c-2.7,2.3-3.9,5.5-3.9,7.6c0,0.6,0.3,1.3,0.9,1.3c0.8,0,1.9-1.1,2.8-2.5c-0.9-0.5-1.2-1.4-1.2-2.4c0-1.9,1.5-3.7,2.7-3.7
		C93,9.9,94,10.3,94,12c0,1.1-0.4,2.4-1.1,3.6c0.6-0.1,1.3-0.6,2.2-1.8L95.4,14.1z M91.1,15.5c0.9-1.5,1.7-3.3,1.7-4.5
		c0-0.6-0.4-0.7-0.6-0.7c-0.6,0-2,1.5-2,3.1C90.2,14.4,90.5,15.1,91.1,15.5z"/>
	<path class="st0" d="M97.7,16c-0.2,0.4-0.3,0.9-0.3,1.2c0,0.4,0.2,0.5,0.5,0.5c0.8,0,2.5-3.7,3.8-5.8c1.2-2,1.5-2.5,2.5-2.5
		c0.4,0,0.6,0.2,0.6,0.5c0,0.2-0.1,0.5-0.1,0.7c-0.2,0.5-2.2,5.5-2.5,6.1c-0.1,0.2-0.1,0.4-0.1,0.5c0,0.2,0.1,0.2,0.3,0.2
		c0.2,0,0.6-0.2,1-0.7l2.4-3L106,14l-2.9,3.6c-0.8,1.1-1.4,1.3-2.1,1.3c-0.5,0-0.9-0.3-0.9-0.8c0-0.5,0.2-1,0.6-1.9
		c0.4-0.9,1.5-3.6,1.5-3.7c0-0.1,0-0.1-0.1-0.1c-0.1,0-0.2,0.1-0.2,0.2c-2.2,3.4-3.1,6.3-5.1,6.3c-0.6,0-1.1-0.4-1.1-1.2
		c0-0.6,0.3-1.4,0.4-1.6l2-4.8c0-0.1,0-0.1,0-0.1c0-0.1-0.1-0.2-0.1-0.2c-0.1,0-0.2,0.1-0.2,0.2l-2.6,3.2l-0.3-0.2l3-3.7
		c0.5-0.6,0.9-1.1,1.5-1.1c0.5,0,0.7,0.4,0.7,0.7c0,0.3-0.1,0.8-0.3,1.2L97.7,16z"/>
	<path class="st0" d="M117.7,17.1c0,0.2,0.1,0.2,0.3,0.2c0.2,0,0.6-0.2,1-0.7l2.4-3l0.4,0.3l-2.9,3.6c-0.9,1.1-1.4,1.3-2.1,1.3
		c-0.5,0-0.9-0.3-0.9-0.8c0-0.5,0.2-1,0.6-1.9c0.4-0.9,1.5-3.6,1.5-3.7c0-0.1,0-0.1-0.1-0.1s-0.2,0.1-0.2,0.2c-0.3,0.4-2.8,4-3.8,5
		c-0.8,0.8-1.5,1.3-2.1,1.3c-0.4,0-1.1-0.3-1.1-1.5c0-2.7,3.9-7.7,7.8-8v0.2c-3.2,0.9-5.8,5.3-5.8,7.1c0,0.3,0.1,0.6,0.3,0.6
		c0.6,0,3-3.1,4.5-5.1c1.6-2.1,1.9-2.7,2.6-2.7c0.4,0,0.5,0.2,0.5,0.5c0,0.2-0.1,0.5-0.2,0.7c-0.2,0.5-2.2,5.3-2.5,6
		C117.8,16.8,117.7,17,117.7,17.1z"/>
	<path class="st0" d="M123.3,16.7c-0.1,0.2-0.1,0.4-0.1,0.5c0,0.2,0.1,0.2,0.3,0.2c0.2,0,0.6-0.2,1-0.7l2.4-3l0.3,0.3l-2.9,3.6
		c-0.9,1.1-1.3,1.3-2,1.3c-0.5,0-0.9-0.3-0.9-0.8c0-0.4,0.2-1,0.6-1.9l2.5-5.9c-0.6,0.9-1.5,2.1-3.2,4.2l-0.3-0.3
		c3.7-4.5,4.1-5.9,5.1-7.9l1.5-3.6h1.6L123.3,16.7z"/>
	<path class="st0" d="M128.8,16.7c-0.1,0.2-0.1,0.4-0.1,0.5c0,0.2,0.1,0.2,0.3,0.2c0.2,0,0.6-0.2,1-0.7l2.4-3l0.3,0.3l-2.9,3.6
		c-0.9,1.1-1.3,1.3-2,1.3c-0.5,0-0.9-0.3-0.9-0.8c0-0.4,0.2-1,0.6-1.9l2.5-5.9c-0.6,0.9-1.5,2.1-3.2,4.2l-0.3-0.3
		c3.7-4.5,4.1-5.9,5.1-7.9l1.5-3.6h1.6L128.8,16.7z"/>
	<path class="st0" d="M149.5,14.1c-1.7,2.2-3.2,3.5-4.9,4.9l-2.7,6.2l-2,0.5c0,0,5.6-12.5,5.9-13.1c0.1-0.1,0.1-0.2-0.1-0.2
		c-0.1,0-0.2,0.1-0.2,0.2c-2.2,3.4-3.1,6.3-5.1,6.3c-0.6,0-1.1-0.4-1.1-1.2c0-0.6,0.3-1.4,0.4-1.6l2-4.8c0-0.1,0-0.1,0-0.1
		c0-0.1-0.1-0.2-0.1-0.2c-0.1,0-0.2,0.1-0.2,0.2l-2.6,3.2l-0.3-0.2l3-3.7c0.5-0.6,0.9-1.1,1.5-1.1c0.5,0,0.7,0.4,0.7,0.7
		c0,0.3-0.1,0.8-0.3,1.2l-2,4.7c-0.2,0.4-0.3,0.9-0.3,1.2c0,0.4,0.2,0.5,0.5,0.5c0.8,0,2.5-3.7,3.8-5.8c1.2-2,1.5-2.5,2.5-2.5
		c0.4,0,0.6,0.2,0.6,0.5c0,0.2-0.1,0.5-0.1,0.7l-3.3,7.6c1.2-1,2.6-2.3,4.2-4.3L149.5,14.1z"/>
	<path class="st0" d="M158.2,14.1c-1.1,1.4-2,1.9-2.9,2c-1.1,1.6-2.6,2.8-4.2,2.8c-1.3,0-2.6-0.9-2.6-2.7c0-2.9,2.1-5.7,5.2-6.9
		l0.1,0.2c-2.7,2.3-3.9,5.5-3.9,7.6c0,0.6,0.3,1.3,0.9,1.3c0.8,0,1.9-1.1,2.8-2.5c-0.9-0.5-1.2-1.4-1.2-2.4c0-1.9,1.5-3.7,2.7-3.7
		c0.6,0,1.6,0.5,1.6,2.2c0,1.1-0.4,2.4-1.1,3.6c0.6-0.1,1.3-0.6,2.2-1.8L158.2,14.1z M154,15.5c0.9-1.5,1.7-3.3,1.7-4.5
		c0-0.6-0.4-0.7-0.6-0.7c-0.6,0-2,1.5-2,3.1C153,14.4,153.3,15.1,154,15.5z"/>
	<path class="st0" d="M160.6,16c-0.2,0.4-0.3,0.9-0.3,1.2c0,0.4,0.2,0.5,0.5,0.5c0.8,0,2.5-3.7,3.8-5.8c1.2-2,1.5-2.5,2.5-2.5
		c0.4,0,0.6,0.2,0.6,0.5c0,0.2-0.1,0.5-0.1,0.7c-0.2,0.5-2.2,5.5-2.5,6.1c-0.1,0.2-0.1,0.4-0.1,0.5c0,0.2,0.1,0.2,0.3,0.2
		c0.2,0,0.6-0.2,1-0.7l2.4-3l0.3,0.3l-2.9,3.6c-0.8,1.1-1.4,1.3-2.1,1.3c-0.5,0-0.9-0.3-0.9-0.8c0-0.5,0.2-1,0.6-1.9
		c0.4-0.9,1.5-3.6,1.5-3.7c0-0.1,0-0.1-0.1-0.1c-0.1,0-0.2,0.1-0.2,0.2c-2.2,3.4-3.1,6.3-5.1,6.3c-0.6,0-1.1-0.4-1.1-1.2
		c0-0.6,0.3-1.4,0.4-1.6l2-4.8c0-0.1,0-0.1,0-0.1c0-0.1-0.1-0.2-0.1-0.2c-0.1,0-0.2,0.1-0.2,0.2l-2.6,3.2l-0.3-0.2l3-3.7
		c0.5-0.6,0.9-1.1,1.5-1.1c0.5,0,0.7,0.4,0.7,0.7c0,0.3-0.1,0.8-0.3,1.2L160.6,16z"/>
	<path class="st0" d="M171.5,17.1c0,0.2,0.1,0.2,0.3,0.2c0.2,0,0.6-0.2,1-0.7l2.4-3l0.3,0.3l-2.9,3.6c-0.9,1.1-1.4,1.3-2.1,1.3
		c-0.5,0-0.9-0.3-0.9-0.8c0-0.4,0.2-1,0.6-1.9l1.8-4.4c0.2-0.4,0.4-1,0.4-1.1c0-0.1-0.1-0.1-0.2-0.1c-0.2,0-0.5,0-0.8-0.1
		c-0.6,0.9-1.5,2.1-3.1,4l-0.3-0.3c1.3-1.7,2.3-2.9,3-3.9c-0.4-0.2-0.7-0.5-0.7-1c0-0.4,0.5-1.5,1.3-1.5c0.4,0,0.7,0.2,0.7,0.6
		c0,0.3-0.2,0.8-0.7,1.4c0.3,0.1,0.5,0.1,0.8,0.1c0.3,0,0.6,0,0.8,0c0.5,0,0.7,0.3,0.7,0.6c0,0.4-0.2,0.9-0.3,1.2l-2.1,4.9
		C171.6,16.8,171.5,17,171.5,17.1z"/>
	<path class="st0" d="M2.8,43.1c0,0.1,0,0.1,0.1,0.1c0.1,0,0.2-0.1,0.3-0.3l2.8-4.1c1.1-1.7,1.8-2.3,2.5-2.3c0.7,0,1.1,0.3,1.1,0.8
		c0,0.3-0.1,0.6-0.2,0.9L7,43.9c-0.1,0.2-0.1,0.4-0.1,0.5c0,0.2,0.1,0.2,0.3,0.2c0.2,0,0.6-0.2,1-0.7l2.4-3l0.3,0.3l-2.9,3.6
		c-0.9,1.1-1.4,1.3-2.1,1.3c-0.5,0-0.9-0.3-0.9-0.8c0-0.4,0.2-1,0.6-1.9l2.1-5c0-0.1,0.1-0.1,0.1-0.2c0-0.2-0.1-0.3-0.3-0.3
		c-0.1,0-0.3,0.1-0.5,0.3l-4.3,6.5c-0.7,1-1.2,1.4-1.6,1.4c-0.4,0-0.6-0.2-0.6-0.6c0-0.4,0.2-1,0.6-1.8l2.6-6.2
		c-0.6,0.9-1.5,2.1-3.2,4.2L0,41.5c3.6-4.4,4.1-5.9,5.1-7.7L6.6,30h1.6L2.8,42.8C2.8,42.8,2.8,43,2.8,43.1z"/>
	<path class="st0" d="M18,41l0.4,0.2c-3.7,4.7-5.5,4.8-6.3,4.8c-0.8,0-2.2-0.4-2.2-2.2c0-3.9,4.2-7.3,6.2-7.3c0.9,0,1.3,0.6,1.3,1.5
		c0,2.3-3.4,4.4-5.6,4.5c-0.2,0.6-0.4,1.3-0.4,1.8c0,0.9,0.4,1.2,0.9,1.2C13.4,45.6,15.1,44.6,18,41z M11.7,42.2
		c2.5-0.4,4.2-2.8,4.2-4.4c0-0.5-0.2-0.6-0.4-0.6C14.5,37.2,12.6,39.8,11.7,42.2z"/>
	<path class="st0" d="M23.6,44.3c0,0.2,0.1,0.2,0.3,0.2c0.2,0,0.6-0.2,1-0.7l2.4-3l0.4,0.3l-2.9,3.6c-0.9,1.1-1.4,1.3-2.1,1.3
		c-0.5,0-0.9-0.3-0.9-0.8c0-0.5,0.2-1,0.6-1.9c0.4-0.9,1.5-3.6,1.5-3.7c0-0.1,0-0.1-0.1-0.1s-0.2,0.1-0.2,0.2c-0.3,0.4-2.8,4-3.8,5
		c-0.8,0.8-1.5,1.3-2.1,1.3c-0.4,0-1.1-0.3-1.1-1.5c0-2.7,3.9-7.7,7.8-8v0.2c-3.2,0.9-5.8,5.3-5.8,7.1c0,0.3,0.1,0.6,0.3,0.6
		c0.6,0,3-3.1,4.5-5.1c1.6-2.1,1.9-2.7,2.6-2.7c0.4,0,0.5,0.2,0.5,0.5c0,0.2-0.1,0.5-0.2,0.7c-0.2,0.5-2.2,5.3-2.5,6
		C23.7,44,23.6,44.2,23.6,44.3z"/>
	<path class="st0" d="M30.2,44.3c0,0.2,0.1,0.2,0.3,0.2c0.2,0,0.6-0.2,1-0.7l2.4-3l0.3,0.3l-2.9,3.6c-0.9,1.1-1.4,1.3-2.1,1.3
		c-0.5,0-0.9-0.3-0.9-0.8c0-0.4,0.2-1,0.6-1.9l1.8-4.4c0.2-0.4,0.4-1,0.4-1.1c0-0.1-0.1-0.1-0.2-0.1c-0.2,0-0.5,0-0.8-0.1
		c-0.6,0.9-1.5,2.1-3.1,4l-0.3-0.3c1.3-1.7,2.3-2.9,3-3.9c-0.4-0.2-0.7-0.5-0.7-1c0-0.4,0.5-1.5,1.3-1.5c0.4,0,0.7,0.2,0.7,0.6
		c0,0.3-0.2,0.8-0.7,1.4c0.3,0.1,0.5,0.1,0.8,0.1c0.3,0,0.6,0,0.8,0c0.5,0,0.7,0.3,0.7,0.6c0,0.4-0.2,0.9-0.3,1.2l-2.1,4.9
		C30.3,44,30.2,44.2,30.2,44.3z"/>
	<path class="st0" d="M40.1,33.7h3.8l-0.3,0.5h-3.7l-4.1,9.6c-0.1,0.2-0.2,0.4-0.2,0.6c0,0.2,0.1,0.4,0.4,0.4c0.4,0,0.9-0.5,1.3-1
		l2.4-3l0.4,0.3l-2.8,3.4c-0.8,1.1-1.6,1.5-2.3,1.5c-0.5,0-1.1-0.3-1.1-0.9c0-0.4,0.2-0.9,0.6-1.8l2.5-5.9c-0.6,0.9-1.5,2.1-3.2,4.2
		l-0.3-0.3c3.3-4,4-5.6,4.8-7.2h-3.2l0.2-0.5h3.2l1-2.5h1.6L40.1,33.7z"/>
	<path class="st0" d="M51.8,44.3c0,0.2,0.1,0.2,0.3,0.2c0.2,0,0.6-0.2,1-0.7l2.4-3l0.4,0.3l-2.9,3.6c-0.9,1.1-1.4,1.3-2.1,1.3
		c-0.5,0-0.9-0.3-0.9-0.8c0-0.5,0.2-1,0.6-1.9c0.4-0.8,1.2-2.8,1.5-3.5c0.1-0.1,0.1-0.2,0.1-0.2c0-0.1,0-0.1-0.1-0.1
		s-0.1,0.1-0.2,0.2c-1.6,2.1-4.2,6.3-5.9,6.3c-0.4,0-1.1-0.3-1.1-1.5c0-3,4.2-7.6,7.8-8v0.2c-3.3,1.1-5.8,5.3-5.8,7.1
		c0,0.3,0.1,0.6,0.3,0.6c0.6,0,3-3.1,4.5-5.1c1.6-2.1,2.5-4,2.5-4l2.2-5.3h1.6l-5.8,13.8C51.9,44,51.8,44.2,51.8,44.3z"/>
	<path class="st0" d="M62.9,41l0.4,0.2c-3.7,4.7-5.5,4.8-6.3,4.8c-0.8,0-2.2-0.4-2.2-2.2c0-3.9,4.2-7.3,6.2-7.3
		c0.9,0,1.3,0.6,1.3,1.5c0,2.3-3.4,4.4-5.6,4.5c-0.2,0.6-0.4,1.3-0.4,1.8c0,0.9,0.4,1.2,0.9,1.2C58.4,45.6,60.1,44.6,62.9,41z
		 M56.7,42.2c2.5-0.4,4.2-2.8,4.2-4.4c0-0.5-0.2-0.6-0.4-0.6C59.5,37.2,57.6,39.8,56.7,42.2z"/>
	<path class="st0" d="M63.3,43.9c0.7,0,0,1.1,0.5,1.1c1.5,0,2.6-2.8,2.6-5.1c0-1-0.2-1.6-0.5-2.1c-0.6,0.9-1.5,2.1-3,3.9l-0.3-0.3
		c1.4-1.8,2.4-3,3.1-4.1c-0.1-0.2-0.2-0.4-0.2-0.5c0-0.8,1-1.8,1.8-1.8c0.2,0,0.5,0.1,0.5,0.5c0,0.2-0.6,0.9-0.6,1.2
		c0,0.3,0.5,1.3,0.5,2.9c0,2-1,4-2.4,5.3c1.3-0.7,2.8-1.9,4.3-3.8l0.3,0.3c-2.1,2.7-4.6,4.2-6.6,4.8c-0.3,0.1-0.6,0.1-0.9,0.1
		c-0.4,0-0.9-0.1-0.9-0.6C61.7,45,62.7,43.9,63.3,43.9z"/>
	<path class="st0" d="M72.7,38.4c0-0.1-0.1-0.2-0.1-0.2c-0.1,0-0.2,0.1-0.2,0.2l-2.6,3.2l-0.3-0.2l3-3.7c0.5-0.6,0.9-1.1,1.5-1.1
		c0.5,0,0.7,0.4,0.7,0.7s-0.1,0.8-0.3,1.2l-2.2,5.3c-0.1,0.2-0.1,0.4-0.1,0.5c0,0.2,0.1,0.2,0.3,0.2c0.2,0,0.6-0.2,1-0.7l2.4-3
		l0.4,0.3L73,44.7c-0.9,1.1-1.4,1.3-2.1,1.3c-0.5,0-0.9-0.3-0.9-0.8c0-0.4,0.2-1,0.6-1.9l2.1-4.9C72.7,38.5,72.7,38.4,72.7,38.4z
		 M76.7,32.4c0,0.6-0.4,1.2-1.1,1.2c-0.5,0-0.9-0.5-0.9-1c0-0.7,0.6-1.2,1.1-1.2S76.7,31.8,76.7,32.4z"/>
	<path class="st0" d="M78.5,44.3c0,0.2,0.1,0.2,0.3,0.2c0.2,0,0.6-0.2,1-0.7l2.4-3l0.3,0.3l-2.9,3.6c-0.9,1.1-1.4,1.3-2.1,1.3
		c-0.5,0-0.9-0.3-0.9-0.8c0-0.4,0.2-1,0.6-1.9l1.8-4.4c0.2-0.4,0.4-1,0.4-1.1c0-0.1-0.1-0.1-0.2-0.1c-0.2,0-0.5,0-0.8-0.1
		c-0.6,0.9-1.5,2.1-3.1,4l-0.3-0.3c1.3-1.7,2.3-2.9,3-3.9c-0.4-0.2-0.7-0.5-0.7-1c0-0.4,0.5-1.5,1.3-1.5c0.4,0,0.7,0.2,0.7,0.6
		c0,0.3-0.2,0.8-0.7,1.4c0.3,0.1,0.5,0.1,0.8,0.1c0.3,0,0.6,0,0.8,0c0.5,0,0.7,0.3,0.7,0.6c0,0.4-0.2,0.9-0.3,1.2l-2.1,4.9
		C78.6,44,78.5,44.2,78.5,44.3z"/>
	<path class="st0" d="M89.6,41l0.4,0.2c-3.7,4.7-5.5,4.8-6.3,4.8c-0.8,0-2.2-0.4-2.2-2.2c0-3.9,4.2-7.3,6.2-7.3
		c0.9,0,1.3,0.6,1.3,1.5c0,2.3-3.4,4.4-5.6,4.5c-0.2,0.6-0.4,1.3-0.4,1.8c0,0.9,0.4,1.2,0.9,1.2C85.1,45.6,86.8,44.6,89.6,41z
		 M83.4,42.2c2.5-0.4,4.2-2.8,4.2-4.4c0-0.5-0.2-0.6-0.4-0.6C86.2,37.2,84.3,39.8,83.4,42.2z"/>
	<path class="st0" d="M90,43.9c0.7,0,0,1.1,0.5,1.1c1.5,0,2.6-2.8,2.6-5.1c0-1-0.2-1.6-0.5-2.1c-0.6,0.9-1.5,2.1-3,3.9l-0.3-0.3
		c1.4-1.8,2.4-3,3.1-4.1c-0.1-0.2-0.2-0.4-0.2-0.5c0-0.8,1-1.8,1.8-1.8c0.2,0,0.5,0.1,0.5,0.5c0,0.2-0.6,0.9-0.6,1.2
		c0,0.3,0.5,1.3,0.5,2.9c0,2-1,4-2.4,5.3c1.3-0.7,2.8-1.9,4.3-3.8l0.3,0.3c-2.1,2.7-4.6,4.2-6.6,4.8c-0.3,0.1-0.6,0.1-0.9,0.1
		c-0.4,0-0.9-0.1-0.9-0.6C88.5,45,89.5,43.9,90,43.9z"/>
	<path class="st0" d="M97.4,46.2c-0.5,0-0.9-0.4-0.9-0.9s0.4-0.9,0.9-0.9c0.5,0,0.9,0.4,0.9,0.9S97.9,46.2,97.4,46.2z M98.2,43.5
		h-0.4l6.3-15.8h1.9L98.2,43.5z"/>
</g>
</svg>
